<svg width="100" height="78" viewBox="0 0 100 78" fill="none" xmlns="http://www.w3.org/2000/svg">
<path d="M23.496 37.0333H15.4609V67.6919H23.496V37.0333Z" fill="url(#paint0_linear_1_3907)"/>
<path d="M25.2376 34.9881H13.7207V39.078H25.2376V34.9881Z" fill="url(#paint1_linear_1_3907)"/>
<path d="M25.2376 65.6464H13.7207V69.7363H25.2376V65.6464Z" fill="url(#paint2_linear_1_3907)"/>
<path d="M17.9155 63.3061H17.5315C17.1199 63.3061 16.7861 62.9664 16.7861 62.5474V42.1771C16.7861 41.758 17.1199 41.4183 17.5315 41.4183H17.9155C18.3272 41.4183 18.6609 41.758 18.6609 42.1771V62.5474C18.6609 62.9664 18.3272 63.3061 17.9155 63.3061Z" fill="url(#paint3_linear_1_3907)"/>
<path d="M21.4262 63.3061H21.0423C20.6306 63.3061 20.2969 62.9664 20.2969 62.5474V42.1771C20.2969 41.758 20.6306 41.4183 21.0423 41.4183H21.4262C21.8379 41.4183 22.1716 41.758 22.1716 42.1771V62.5474C22.1716 62.9664 21.8379 63.3061 21.4262 63.3061Z" fill="url(#paint4_linear_1_3907)"/>
<path d="M39.4667 37.0333H31.4316V67.6919H39.4667V37.0333Z" fill="url(#paint5_linear_1_3907)"/>
<path d="M41.2083 34.9881H29.6914V39.078H41.2083V34.9881Z" fill="url(#paint6_linear_1_3907)"/>
<path d="M41.2083 65.6464H29.6914V69.7363H41.2083V65.6464Z" fill="url(#paint7_linear_1_3907)"/>
<path d="M33.8862 63.3061H33.5022C33.0906 63.3061 32.7568 62.9664 32.7568 62.5474V42.1771C32.7568 41.758 33.0906 41.4183 33.5022 41.4183H33.8862C34.2979 41.4183 34.6316 41.758 34.6316 42.1771V62.5474C34.6316 62.9664 34.2979 63.3061 33.8862 63.3061Z" fill="white"/>
<path d="M37.3969 63.3061H37.013C36.6013 63.3061 36.2676 62.9664 36.2676 62.5474V42.1771C36.2676 41.758 36.6013 41.4183 37.013 41.4183H37.3969C37.8086 41.4183 38.1423 41.758 38.1423 42.1771V62.5474C38.1423 62.9664 37.8086 63.3061 37.3969 63.3061Z" fill="white"/>
<path d="M55.4374 37.0333H47.4023V67.6919H55.4374V37.0333Z" fill="url(#paint8_linear_1_3907)"/>
<path d="M57.178 34.9881H45.6611V39.078H57.178V34.9881Z" fill="url(#paint9_linear_1_3907)"/>
<path d="M57.178 65.6464H45.6611V69.7363H57.178V65.6464Z" fill="url(#paint10_linear_1_3907)"/>
<path d="M49.8559 63.3061H49.472C49.0603 63.3061 48.7266 62.9664 48.7266 62.5474V42.1771C48.7266 41.758 49.0603 41.4183 49.472 41.4183H49.8559C50.2676 41.4183 50.6013 41.758 50.6013 42.1771V62.5474C50.6013 62.9664 50.2676 63.3061 49.8559 63.3061Z" fill="url(#paint11_linear_1_3907)"/>
<path d="M53.3667 63.3061H52.9827C52.571 63.3061 52.2373 62.9664 52.2373 62.5474V42.1771C52.2373 41.758 52.571 41.4183 52.9827 41.4183H53.3667C53.7783 41.4183 54.1121 41.758 54.1121 42.1771V62.5474C54.1121 62.9664 53.7783 63.3061 53.3667 63.3061Z" fill="url(#paint12_linear_1_3907)"/>
<path d="M71.4062 37.0333H63.3711V67.6919H71.4062V37.0333Z" fill="#98C9ED"/>
<path d="M73.1478 34.9881H61.6309V39.078H73.1478V34.9881Z" fill="#63AEE0"/>
<path d="M73.1478 65.6464H61.6309V69.7363H73.1478V65.6464Z" fill="#63AEE0"/>
<path d="M65.8257 63.3061H65.4417C65.03 63.3061 64.6963 62.9664 64.6963 62.5474V42.1771C64.6963 41.758 65.03 41.4183 65.4417 41.4183H65.8257C66.2373 41.4183 66.5711 41.758 66.5711 42.1771V62.5474C66.5711 62.9664 66.2373 63.3061 65.8257 63.3061Z" fill="#D4EFFF"/>
<path d="M69.3364 63.3061H68.9524C68.5408 63.3061 68.207 62.9664 68.207 62.5474V42.1771C68.207 41.758 68.5408 41.4183 68.9524 41.4183H69.3364C69.7481 41.4183 70.0818 41.758 70.0818 42.1771V62.5474C70.0818 62.9664 69.7481 63.3061 69.3364 63.3061Z" fill="#D4EFFF"/>
<path d="M76.4121 31.1586H10.458V34.9879H76.4121V31.1586Z" fill="url(#paint13_linear_1_3907)"/>
<path d="M76.4121 31.1586H10.458V32.3816H76.4121V31.1586Z" fill="white"/>
<path d="M76.4121 67.8218H10.458V71.6511H76.4121V67.8218Z" fill="url(#paint14_linear_1_3907)"/>
<path d="M76.4121 67.8218H10.458V69.0449H76.4121V67.8218Z" fill="white"/>
<path d="M73.1481 31.1585H13.7217V27.0526C13.7217 27.0235 13.7401 26.9981 13.7673 26.9893L43.4155 17.5708C43.4279 17.567 43.4415 17.567 43.4543 17.5708L73.1024 26.9893C73.1296 26.9978 73.1481 27.0235 73.1481 27.0526V31.1585Z" fill="url(#paint15_linear_1_3907)"/>
<path d="M62.2461 28.6654H24.625V26.0349L43.4354 20.0593L62.2461 26.0349V28.6654Z" fill="white"/>
<path d="M39.1383 26.2616C39.1383 27.0583 38.4125 27.4249 37.4859 27.4249H35.5039L36.2246 23.7565H38.0467C38.86 23.7565 39.2974 24.0659 39.2974 24.6158C39.2974 25.0562 39.0452 25.3653 38.6541 25.5328C38.9634 25.6694 39.1383 25.921 39.1383 26.2616ZM38.1241 26.2406C38.1241 26.0205 37.9492 25.9315 37.7018 25.9315H36.8011L36.6572 26.6754H37.5424C37.8979 26.6754 38.1241 26.5342 38.1241 26.2406ZM37.0846 24.506L36.9456 25.2135H37.6766C38.0369 25.2135 38.2324 25.0667 38.2324 24.7944C38.2324 24.595 38.073 24.506 37.8053 24.506H37.0846V24.506Z" fill="url(#paint16_linear_1_3907)"/>
<path d="M42.057 26.7122H40.523L40.1061 27.4249H39.0303L41.3414 23.7565H42.3453L43.2154 27.4249H42.2011L42.057 26.7122ZM41.9024 25.947L41.6605 24.7576L40.9708 25.947H41.9024V25.947Z" fill="url(#paint17_linear_1_3907)"/>
<path d="M47.6533 23.7565L46.9326 27.4249H46.0935L44.9044 25.4126L44.5082 27.4249H43.5098L44.2302 23.7565H45.069L46.2635 25.7637L46.6546 23.7565H47.6533Z" fill="url(#paint18_linear_1_3907)"/>
<path d="M50.0619 25.4441L51.2714 27.4252H50.1339L49.3054 26.1046L48.8367 26.5345L48.6618 27.4252H47.6582L48.3786 23.7568H49.3823L49.089 25.2555L50.7156 23.7568H51.915L50.0619 25.4441Z" fill="url(#paint19_linear_1_3907)"/>
<path d="M65.4083 19.639C61.1154 13.6349 59.4457 11.7106 53.3125 7.43191C55.0575 4.99017 56.665 2.45446 58.3932 0C65.2345 4.79476 67.9199 7.38382 72.5932 14.3903C70.1922 16.1328 67.7708 17.8421 65.4083 19.639Z" fill="url(#paint20_linear_1_3907)"/>
<path d="M65.6093 18.209C62.1523 12.7058 60.0822 10.8058 54.7295 7.20703C56.0739 5.3145 57.3364 3.36614 58.6726 1.4678C64.632 5.45242 67.3559 7.89914 71.1546 14.1077C69.2991 15.4643 67.4132 16.7802 65.6093 18.209Z" fill="#D4EFFF"/>
<path d="M67.2563 14.3366C66.802 14.6974 66.2415 14.5973 65.9474 14.1019C65.653 13.6065 65.7633 12.956 66.1893 12.5584C66.6151 12.1611 67.2256 12.2598 67.5297 12.7699C67.8336 13.28 67.7106 13.9759 67.2563 14.3366Z" fill="url(#paint21_linear_1_3907)"/>
<path d="M60.3915 6.73629C60.0083 7.22342 59.3373 7.27401 58.8371 6.96078C58.3369 6.64754 58.1786 6.05204 58.5379 5.5533C58.8969 5.05456 59.5817 4.97798 60.0909 5.30144C60.6 5.6249 60.7746 6.24916 60.3915 6.73629Z" fill="url(#paint22_linear_1_3907)"/>
<path d="M71.6439 14.8529C71.2309 15.1507 70.7193 15.0592 70.4477 14.6265C70.1759 14.1938 70.281 13.6392 70.6856 13.3335C71.0905 13.0277 71.5967 13.1527 71.8793 13.5765C72.1618 14.0003 72.0569 14.5552 71.6439 14.8529Z" fill="url(#paint23_linear_1_3907)"/>
<path d="M66.0819 18.8992C65.7164 19.1825 65.2094 19.1272 64.949 18.7272C64.6886 18.3271 64.8051 17.8066 65.1769 17.5085C65.5486 17.2105 65.9942 17.3136 66.2519 17.704C66.5093 18.0941 66.4474 18.6158 66.0819 18.8992Z" fill="url(#paint24_linear_1_3907)"/>
<path d="M59.4339 1.96932C59.1354 2.39037 58.5788 2.49183 58.1565 2.20265C57.7343 1.91319 57.6528 1.37824 57.9444 0.959946C58.2361 0.541379 58.7759 0.444893 59.1889 0.734074C59.6022 1.02298 59.7323 1.54826 59.4339 1.96932Z" fill="url(#paint25_linear_1_3907)"/>
<path d="M55.4358 7.68013C55.1498 8.07299 54.6323 8.1739 54.2336 7.89882C53.8353 7.62401 53.7492 7.12057 54.0327 6.72523C54.3162 6.32988 54.8213 6.24915 55.2226 6.51484C55.6237 6.78052 55.7217 7.28728 55.4358 7.68013Z" fill="url(#paint26_linear_1_3907)"/>
<path d="M63.6306 9.70355C63.4547 9.89265 63.2795 10.084 63.1055 10.2745C63.2793 10.4019 63.4609 10.4699 63.6279 10.3085C63.7059 10.2333 63.7192 10.1735 63.7232 10.0638C63.7273 9.95403 63.6695 9.81165 63.6306 9.70355Z" fill="#285193"/>
<path d="M63.8499 8.39329C63.791 8.46324 63.766 8.52157 63.7677 8.62635C63.7693 8.73141 63.8277 8.87462 63.8733 8.97691C64.0305 8.79417 64.1877 8.60921 64.3436 8.42453C64.2627 8.36731 64.1581 8.3051 64.0628 8.30234C63.9672 8.29957 63.9089 8.32335 63.8499 8.39329Z" fill="#285193"/>
<path d="M65.58 7.31059C64.4911 6.23124 62.9161 6.92805 62.0594 7.92863C61.2027 8.92921 60.7239 10.5127 61.7322 11.51C62.7404 12.5072 64.1824 11.8972 65.0972 10.9812C66.0123 10.0652 66.6689 8.38995 65.58 7.31059ZM63.4478 10.9237C63.2097 10.9127 62.9734 10.7637 62.7801 10.6144C62.6516 10.7449 62.5273 10.8781 62.4007 11.01C62.3304 10.9364 62.2598 10.8626 62.1895 10.7888C62.3119 10.6606 62.4363 10.5343 62.5563 10.4038C62.3176 10.1636 62.114 9.91569 61.9725 9.60391C62.0903 9.47483 62.2106 9.34796 62.3258 9.21667C62.4021 9.36979 62.4716 9.52845 62.5623 9.67273C62.653 9.81701 62.7516 9.9436 62.8697 10.0641C63.0796 9.83885 63.2887 9.61469 63.4956 9.38582C63.4769 9.33552 63.4304 9.23187 63.416 9.18958C63.3403 8.96901 63.2235 8.7407 63.2227 8.52151C63.2219 8.30233 63.2716 8.16799 63.4144 8.00602C63.5575 7.84405 63.7321 7.76528 63.97 7.77661C64.2076 7.78794 64.4577 7.93913 64.651 8.0895C64.7439 7.99331 64.8322 7.89408 64.921 7.79485C64.9992 7.87363 65.0779 7.95212 65.1567 8.03007C65.0684 8.12598 64.9799 8.22162 64.8914 8.31753C65.1203 8.57182 65.2742 8.84076 65.3997 9.16056C65.2612 9.22219 65.1227 9.28383 64.9826 9.34243C64.887 9.08095 64.761 8.86287 64.5842 8.65032C64.3893 8.86315 64.2052 9.08344 64.0094 9.29682C64.0257 9.33966 64.0672 9.44083 64.0797 9.47538C64.1636 9.7059 64.2608 9.97898 64.2375 10.2034C64.2141 10.4279 64.1593 10.534 64.0105 10.6899C63.8614 10.8463 63.6857 10.9351 63.4478 10.9237Z" fill="url(#paint27_linear_1_3907)"/>
<path d="M99.9997 51.8116C91.6923 59.2115 87.2755 61.5358 76.693 64.5535C75.4521 60.7859 74.4696 56.997 73.4453 53.1677C85.4127 50.2751 83.4345 51.7597 91.62 42.4463C94.9316 45.1841 97.3888 48.4097 99.9997 51.8116Z" fill="url(#paint28_linear_1_3907)"/>
<path d="M98.1483 51.7076C91.3561 57.9466 86.579 60.8123 77.6073 62.892C76.6376 59.9698 75.8213 57.0303 75.0371 54.0529C83.7739 52.6869 86.6189 52.0324 91.7387 44.271C94.2584 46.4233 96.1706 49.0522 98.1483 51.7076Z" fill="#D4EFFF"/>
<path d="M93.2622 50.0148C93.7534 50.6723 93.6065 51.573 93.027 52.1113C92.4476 52.6495 91.6848 52.662 91.2259 52.0092C90.767 51.3565 90.9486 50.5376 91.4784 49.9828C92.0082 49.4279 92.771 49.3574 93.2622 50.0148Z" fill="url(#paint29_linear_1_3907)"/>
<path d="M81.6614 57.3111C81.9408 58.0462 81.5454 58.6738 80.7897 58.8638C80.034 59.0537 79.2351 58.629 78.9874 57.8818C78.7398 57.1345 79.1802 56.5409 79.9001 56.4079C80.6202 56.2749 81.3819 56.5763 81.6614 57.3111Z" fill="url(#paint30_linear_1_3907)"/>
<path d="M92.492 43.4869C93.0015 43.8977 93.1353 44.572 92.7044 45.0857C92.2734 45.5993 91.6163 45.5974 91.1362 45.1824C90.6561 44.7675 90.4568 44.0666 90.9008 43.5624C91.3447 43.0584 91.9826 43.076 92.492 43.4869Z" fill="url(#paint31_linear_1_3907)"/>
<path d="M98.9995 50.9402C99.396 51.4688 99.3105 52.1536 98.8306 52.5869C98.3511 53.0201 97.6858 53.019 97.2912 52.4865C96.8967 51.9538 96.9806 51.2361 97.4596 50.7769C97.9391 50.3174 98.6031 50.4116 98.9995 50.9402Z" fill="url(#paint32_linear_1_3907)"/>
<path d="M76.0966 53.8836C76.269 54.4893 75.8823 54.9369 75.3009 55.0425C74.7195 55.1481 74.1561 54.8753 73.9961 54.2809C73.8362 53.6865 74.1677 53.1629 74.7641 53.0443C75.3604 52.9254 75.9241 53.2776 76.0966 53.8836Z" fill="#285193"/>
<path d="M78.747 62.6225C78.9643 63.2589 78.5939 63.808 77.9669 63.9758C77.3399 64.1433 76.7145 63.8224 76.5038 63.1873C76.293 62.5523 76.5972 61.9438 77.2418 61.8028C77.8862 61.6618 78.5298 61.9861 78.747 62.6225Z" fill="#285193"/>
<path d="M86.9824 55.3688C87.1326 55.6561 87.2885 55.9406 87.4487 56.222C87.6575 56.0368 87.8391 55.8272 87.7213 55.5419C87.6662 55.4086 87.5939 55.3868 87.4582 55.3503C87.3227 55.3135 87.128 55.3542 86.9824 55.3688Z" fill="#285193"/>
<path d="M85.5318 54.6661C85.5896 54.7678 85.6447 54.8143 85.7697 54.8499C85.8946 54.8856 86.0798 54.8651 86.2166 54.8458C86.0735 54.5898 85.9274 54.3335 85.7792 54.0797C85.6819 54.158 85.5654 54.2591 85.5215 54.3733C85.4772 54.4878 85.4739 54.5643 85.5318 54.6661Z" fill="#285193"/>
<path d="M85.0756 52.3852C83.5337 53.2144 83.3917 54.8963 84.1507 56.4676C84.9097 58.0393 86.6174 59.1897 88.3206 58.2543C90.0237 57.319 89.9993 55.1735 89.0757 53.7003C88.1522 52.2271 86.6174 51.556 85.0756 52.3852ZM88.4148 55.9195C88.3005 56.2247 87.9961 56.513 87.7318 56.7186C87.834 56.9168 87.9437 57.1089 88.0479 57.3051C87.9208 57.3792 87.7938 57.4533 87.6667 57.5274C87.5635 57.3378 87.4614 57.1476 87.3566 56.9588C86.9449 57.1719 86.517 57.3057 86.0602 57.3734C85.9622 57.1849 85.8647 56.9959 85.7705 56.8054C86.0007 56.7899 86.2313 56.7537 86.4539 56.6973C86.6763 56.641 86.8767 56.558 87.0826 56.4594C86.9001 56.1238 86.7236 55.7866 86.5381 55.4524C86.4705 55.4635 86.3318 55.4942 86.275 55.5016C85.9777 55.5398 85.6662 55.5721 85.405 55.4668C85.144 55.3615 85.0115 55.2454 84.889 55.0013C84.7668 54.7573 84.7603 54.5461 84.886 54.2813C85.0118 54.0168 85.279 53.7943 85.5166 53.6185C85.4473 53.4833 85.3675 53.3534 85.2963 53.2191C85.4147 53.1547 85.5331 53.09 85.6515 53.0256C85.7254 53.1547 85.7979 53.2846 85.8726 53.4131C86.2465 53.2393 86.6207 53.1008 87.0207 53.0029C87.0446 53.1873 87.0674 53.3717 87.0899 53.5563C86.7594 53.6265 86.4501 53.7346 86.1381 53.865C86.3125 54.1638 86.4841 54.4629 86.6606 54.7614C86.7179 54.7531 86.8523 54.7252 86.8985 54.7194C87.2059 54.6802 87.5684 54.6122 87.8421 54.7006C88.1155 54.7891 88.2206 54.8651 88.3572 55.1149C88.4938 55.3648 88.5291 55.6141 88.4148 55.9195Z" fill="url(#paint33_linear_1_3907)"/>
<path d="M33.2489 76.246C18.7898 69.3627 13.3205 66.7819 1.48535 55.2963C5.18438 50.9548 9.06371 46.7975 12.8217 42.5129C22.6406 51.3526 28.2 55.2128 40.2233 60.6814C37.831 65.8386 35.5959 71.0673 33.2489 76.246Z" fill="url(#paint34_linear_1_3907)"/>
<path d="M32.2193 73.6998C19.5014 68.2522 14.1769 65.238 4.20996 55.2906C7.03433 51.8292 10.1007 48.6052 13.0182 45.2303C20.9927 53.353 27.3548 57.2163 37.6992 61.5845C35.7975 65.588 34.0859 69.679 32.2193 73.6998Z" fill="#D4EFFF"/>
<path d="M31.2858 66.0681C30.8084 67.0955 29.6195 67.5996 28.5532 67.1814C27.4868 66.7632 27.1064 65.6087 27.6315 64.6051C28.1567 63.6015 29.3135 63.1457 30.334 63.5716C31.3545 63.9973 31.7631 65.0404 31.2858 66.0681Z" fill="url(#paint35_linear_1_3907)"/>
<path d="M14.4904 56.0744C13.7724 57.0255 12.5586 57.0805 11.7132 56.2552C10.8679 55.4298 10.7702 54.0456 11.5213 53.1525C12.2724 52.2595 13.434 52.2481 14.2357 53.063C15.0375 53.8784 15.2083 55.1233 14.4904 56.0744Z" fill="url(#paint36_linear_1_3907)"/>
<path d="M39.1485 62.2116C38.7664 63.0368 37.838 63.3799 37.0106 63.0257C36.1832 62.6713 35.841 61.7814 36.2339 60.9617C36.6269 60.1419 37.5491 59.7707 38.3702 60.1254C39.1916 60.4803 39.5305 61.3866 39.1485 62.2116Z" fill="url(#paint37_linear_1_3907)"/>
<path d="M33.7322 74.3559C33.3333 75.2268 32.3842 75.5754 31.5185 75.216C30.6528 74.8568 30.2773 73.9348 30.6781 73.0723C31.0789 72.2097 32.047 71.8 32.9205 72.168C33.7938 72.5362 34.1308 73.485 33.7322 74.3559Z" fill="url(#paint38_linear_1_3907)"/>
<path d="M14.1355 46.3923C13.5441 47.086 12.5907 47.0539 11.9832 46.4084C11.3758 45.7628 11.2528 44.8035 11.851 44.1251C12.4492 43.4466 13.4059 43.4032 14.0554 44.0391C14.7047 44.6747 14.727 45.6987 14.1355 46.3923Z" fill="url(#paint39_linear_1_3907)"/>
<path d="M5.42552 56.5082C4.80231 57.2618 3.80655 57.2176 3.13419 56.5413C2.46157 55.8654 2.37413 54.8184 2.99109 54.0745C3.60805 53.3305 4.60653 53.2865 5.29083 53.9677C5.97513 54.6492 6.04872 55.7548 5.42552 56.5082Z" fill="url(#paint40_linear_1_3907)"/>
<path d="M20.8788 61.4504C20.595 61.898 20.3037 62.3434 20.0234 62.7921C20.4316 62.9489 20.8288 62.9807 21.0898 62.5925C21.2117 62.4112 21.2199 62.2975 21.1892 62.0849C21.1585 61.8723 20.9948 61.6379 20.8788 61.4504Z" fill="#285193"/>
<path d="M20.885 58.9146C20.7919 59.0677 20.7558 59.1899 20.7856 59.3882C20.8155 59.5864 20.9635 59.8258 21.0781 60.0025C21.335 59.5936 21.5872 59.1781 21.8428 58.7672C21.6671 58.6926 21.4539 58.6226 21.2706 58.6558C21.0871 58.6887 20.9782 58.7614 20.885 58.9146Z" fill="#285193"/>
<path d="M23.7935 56.1904C21.4894 54.7089 18.8983 56.4458 17.4749 58.5194C16.0514 60.593 15.2319 64.2539 17.76 65.8297C20.2881 67.4055 23.0723 65.1373 24.3366 62.9794C25.6004 60.8213 26.0976 57.672 23.7935 56.1904ZM21.0088 63.8518C20.53 63.9554 19.975 63.8073 19.5139 63.6C19.3149 63.912 19.1204 64.2227 18.9257 64.5361C18.7481 64.4247 18.57 64.3134 18.394 64.1987C18.5847 63.8935 18.7794 63.5903 18.973 63.2871C18.4234 62.8949 17.955 62.4739 17.5938 61.8935C17.7912 61.5983 17.9922 61.3044 18.1912 61.0109C18.3577 61.305 18.5562 61.585 18.7756 61.8365C18.995 62.0878 19.2215 62.2964 19.4881 62.4897C19.8281 61.9695 20.1754 61.4559 20.501 60.9249C20.4453 60.839 20.3209 60.6676 20.2759 60.5946C20.0394 60.2126 19.7933 59.8135 19.7474 59.3895C19.7015 58.9652 19.7836 58.6814 20.0051 58.329C20.2265 57.9766 20.5211 57.772 20.9653 57.7129C21.4096 57.6534 21.8986 57.8143 22.3125 58.0155C22.4553 57.7969 22.5873 57.5733 22.7242 57.3516C22.8887 57.4547 23.0538 57.5581 23.2184 57.6612C23.0845 57.8804 22.9509 58.0998 22.817 58.3193C23.2996 58.6653 23.7023 59.0625 24.0602 59.5402C23.8217 59.7281 23.5831 59.9158 23.3457 60.1057C23.0568 59.7129 22.7339 59.381 22.3524 59.0811C22.0559 59.5703 21.7479 60.0496 21.4492 60.5388C21.4987 60.6098 21.6198 60.7732 21.6591 60.831C21.9206 61.216 22.215 61.6582 22.2593 62.0905C22.3035 62.5228 22.269 62.7351 22.0428 63.1044C21.8166 63.4731 21.4878 63.7484 21.0088 63.8518Z" fill="url(#paint41_linear_1_3907)"/>
<path d="M15.2283 30.003C11.176 31.4889 10.4029 32.3543 7.19617 35.1139C6.10808 33.8358 5.00994 32.571 3.95117 31.2667C7.62875 28.0397 8.92838 27.1986 13.3975 25.3127C14.0215 26.8699 14.6306 28.4352 15.2283 30.003Z" fill="url(#paint42_linear_1_3907)"/>
<path d="M14.5015 29.6924C10.7422 30.9436 10.1622 31.8525 7.27289 34.334C6.41453 33.3475 5.56269 32.3599 4.75293 31.3306C7.83962 28.4682 9.01678 27.4093 13.0696 26.0729C13.5492 27.2783 14.0209 28.487 14.5015 29.6924Z" fill="#D4EFFF"/>
<path d="M12.6826 28.254C12.8143 28.5553 12.6888 28.85 12.3817 28.9435C12.0746 29.0369 11.7417 28.8829 11.5967 28.5882C11.4517 28.2935 11.5741 27.9877 11.8891 27.8888C12.2039 27.7898 12.5509 27.9526 12.6826 28.254Z" fill="url(#paint43_linear_1_3907)"/>
<path d="M7.72084 31.1135C7.93482 31.4022 7.88702 31.8221 7.67304 32.0953C7.45906 32.3684 7.12832 32.414 6.90049 32.1265C6.67266 31.8393 6.71176 31.4044 6.94095 31.1329C7.17014 30.8614 7.50686 30.8246 7.72084 31.1135Z" fill="url(#paint44_linear_1_3907)"/>
<path d="M13.5135 25.8824C13.614 26.1442 13.5067 26.4276 13.2498 26.5274C12.9927 26.6275 12.7016 26.4865 12.5905 26.228C12.4792 25.9692 12.625 25.7124 12.8819 25.614C13.1388 25.5153 13.413 25.6206 13.5135 25.8824Z" fill="url(#paint45_linear_1_3907)"/>
<path d="M14.9385 29.5243C15.0371 29.7709 14.9301 30.0391 14.6819 30.1218C14.4334 30.2044 14.1771 30.0775 14.0744 29.8331C13.9718 29.5887 14.082 29.3504 14.3275 29.2539C14.573 29.1577 14.8399 29.2777 14.9385 29.5243Z" fill="url(#paint46_linear_1_3907)"/>
<path d="M5.12061 30.9877C5.29223 31.2078 5.27566 31.5379 5.06304 31.717C4.85042 31.8962 4.5604 31.858 4.38553 31.6424C4.21065 31.4267 4.24161 31.1287 4.44608 30.9385C4.65029 30.748 4.94899 30.7674 5.12061 30.9877Z" fill="url(#paint47_linear_1_3907)"/>
<path d="M7.62635 34.0291C7.7996 34.2359 7.77435 34.517 7.57476 34.6895C7.37517 34.862 7.09656 34.8397 6.92087 34.6436C6.74518 34.4476 6.78184 34.1734 6.97599 33.9973C7.17015 33.8209 7.4531 33.8223 7.62635 34.0291Z" fill="url(#paint48_linear_1_3907)"/>
<path d="M9.69824 29.5362C9.77183 29.6694 9.84841 29.8043 9.92281 29.9334C10.0219 29.8735 10.0646 29.7325 10.0219 29.6506C9.97929 29.5691 9.96707 29.5782 9.90489 29.5494C9.84271 29.521 9.76504 29.5384 9.69824 29.5362Z" fill="#285193"/>
<path d="M9.04335 29.2175C9.07132 29.2585 9.09766 29.2775 9.15225 29.2883C9.20656 29.2994 9.29236 29.285 9.35211 29.2825C9.28585 29.1703 9.21226 29.0619 9.13867 28.9543C9.09658 28.9906 9.04689 29.0414 9.03032 29.0923C9.01321 29.1429 9.01566 29.1766 9.04335 29.2175Z" fill="#285193"/>
<path d="M8.73855 28.1506C7.99966 28.5689 8.14413 29.6029 8.55009 30.2202C8.95606 30.8375 9.70825 31.3197 10.3784 30.8973C11.0486 30.4748 10.956 29.6023 10.6057 28.954C10.2554 28.306 9.47743 27.7323 8.73855 28.1506ZM10.3217 29.842C10.2763 29.9725 10.172 30.0872 10.0604 30.174C10.1101 30.2647 10.162 30.3535 10.2128 30.4436C10.1631 30.4721 10.1134 30.5003 10.0637 30.5287C10.014 30.4411 9.96404 30.3535 9.91435 30.2658C9.74789 30.3496 9.59474 30.4463 9.41144 30.4875C9.35795 30.3985 9.30581 30.3087 9.25422 30.2183C9.34709 30.2019 9.43833 30.174 9.52577 30.1403C9.61293 30.1066 9.69684 30.0706 9.77993 30.0292C9.68951 29.8713 9.60126 29.7132 9.51002 29.5559C9.48096 29.5581 9.41986 29.5672 9.39597 29.5688C9.26997 29.5777 9.13392 29.6183 9.01906 29.5907C8.90419 29.563 8.84065 29.516 8.77738 29.4165C8.71411 29.317 8.69374 29.2056 8.74153 29.0809C8.78933 28.9562 8.89958 28.8398 9.00684 28.7541C8.96855 28.6902 8.92809 28.6283 8.88899 28.565C8.94112 28.5329 8.99244 28.4981 9.0473 28.4702C9.0864 28.5307 9.12415 28.5921 9.16243 28.6532C9.33134 28.5614 9.49372 28.5216 9.68381 28.5045C9.6944 28.5882 9.70472 28.6723 9.71531 28.756C9.57084 28.7701 9.42855 28.7931 9.29441 28.852C9.38456 28.9844 9.46059 29.1265 9.54477 29.2636C9.5703 29.2617 9.63058 29.2556 9.65095 29.2542C9.78727 29.2459 9.94694 29.2399 10.0621 29.2899C10.1772 29.3399 10.2266 29.3856 10.2864 29.4925C10.3456 29.5993 10.3667 29.7115 10.3217 29.842Z" fill="#285193"/>
<path d="M89.4013 26.072C87.3731 28.786 85.4389 30.7484 82.7603 32.7938C81.8835 31.6733 81.0672 30.5044 80.1738 29.3971C82.5711 27.564 84.2878 25.8854 86.0909 23.4312C87.1765 24.3345 88.3119 25.1728 89.4013 26.072Z" fill="url(#paint49_linear_1_3907)"/>
<path d="M88.7122 26.1611C87.0332 28.6387 85.2649 30.3679 82.8579 32.0963C82.1874 31.2187 81.5392 30.3226 80.8457 29.4632C83.0292 27.8648 84.595 26.3731 86.1575 24.1229C86.9965 24.8188 87.8709 25.4687 88.7122 26.1611Z" fill="#D4EFFF"/>
<path d="M86.8368 26.0021C87.0589 26.1837 87.0839 26.5221 86.9245 26.7571C86.7648 26.9921 86.4767 27.0601 86.2608 26.8671C86.0449 26.6739 86.027 26.3518 86.1826 26.1168C86.3382 25.8821 86.6147 25.8204 86.8368 26.0021Z" fill="url(#paint50_linear_1_3907)"/>
<path d="M83.4899 29.6489C83.6729 29.8588 83.6303 30.1505 83.3932 30.3017C83.1562 30.4529 82.8352 30.4001 82.6611 30.18C82.4871 29.9602 82.5332 29.6877 82.7646 29.54C82.9957 29.3924 83.3069 29.4388 83.4899 29.6489Z" fill="url(#paint51_linear_1_3907)"/>
<path d="M86.3962 23.7947C86.5725 23.941 86.5904 24.1895 86.4625 24.3778C86.3343 24.5661 86.1 24.6059 85.9251 24.458C85.7502 24.3101 85.719 24.0549 85.8507 23.8674C85.9827 23.6797 86.2203 23.6488 86.3962 23.7947Z" fill="#285193"/>
<path d="M88.9651 25.8245C89.1484 25.9766 89.1892 26.2428 89.0444 26.4358C88.8997 26.629 88.6569 26.6769 88.4688 26.5218C88.2806 26.3667 88.248 26.0941 88.3838 25.8912C88.5195 25.6885 88.7816 25.6725 88.9651 25.8245Z" fill="url(#paint52_linear_1_3907)"/>
<path d="M81.1651 29.2304C81.3096 29.4054 81.2694 29.6341 81.0891 29.7682C80.9088 29.9022 80.6649 29.8857 80.5262 29.7043C80.3871 29.5229 80.4127 29.2885 80.5952 29.1566C80.7774 29.0245 81.0207 29.0554 81.1651 29.2304Z" fill="url(#paint53_linear_1_3907)"/>
<path d="M83.2023 31.8491C83.3501 32.0395 83.3145 32.2933 83.1195 32.4338C82.9245 32.5742 82.6723 32.5408 82.5259 32.3495C82.3798 32.1584 82.4089 31.9024 82.6006 31.7578C82.7926 31.6135 83.0546 31.6586 83.2023 31.8491Z" fill="url(#paint54_linear_1_3907)"/>
<path d="M85.0254 28.3371C85.1074 28.4176 85.1919 28.4994 85.2728 28.5771C85.339 28.508 85.3548 28.3744 85.3016 28.3191C85.2483 28.2638 85.2445 28.2796 85.1891 28.2768C85.1337 28.2743 85.0767 28.3172 85.0254 28.3371Z" fill="url(#paint55_linear_1_3907)"/>
<path d="M84.4256 28.2157C84.4574 28.2483 84.4842 28.2644 84.5339 28.2691C84.5836 28.2738 84.6502 28.2525 84.6998 28.2356C84.6138 28.146 84.5277 28.0559 84.4411 27.9666C84.4128 28.0061 84.3849 28.0545 84.383 28.1026C84.3813 28.1507 84.3938 28.1831 84.4256 28.2157Z" fill="url(#paint56_linear_1_3907)"/>
<path d="M83.921 27.3044C83.4325 27.7789 83.7022 28.5195 84.1217 28.9723C84.5415 29.4252 85.3095 29.7332 85.8143 29.2198C86.3191 28.7064 86.0258 27.9337 85.5691 27.4988C85.1123 27.0639 84.4095 26.83 83.921 27.3044ZM85.5772 28.3755C85.5704 28.4941 85.5006 28.6273 85.4273 28.7268C85.4841 28.7844 85.5408 28.8408 85.5973 28.8983C85.5601 28.9361 85.5232 28.9743 85.4862 29.0124C85.4314 28.9571 85.3765 28.9018 85.3219 28.8468C85.1976 28.9665 85.0713 29.0545 84.91 29.115C84.856 29.0575 84.8022 28.9997 84.7484 28.9422C84.828 28.9179 84.9048 28.8872 84.979 28.849C85.0531 28.8109 85.1139 28.7578 85.1729 28.6995C85.0757 28.6052 84.9795 28.5109 84.8812 28.4175C84.8587 28.4302 84.8093 28.4504 84.7892 28.4576C84.6835 28.4963 84.5722 28.5308 84.4679 28.5137C84.3637 28.4968 84.299 28.4628 84.2279 28.3868C84.1567 28.3108 84.1274 28.2276 84.1358 28.1142C84.1442 28.0009 84.2089 27.8897 84.2806 27.7996C84.2344 27.7498 84.1874 27.7012 84.1413 27.6517C84.1774 27.6179 84.2135 27.5839 84.2496 27.5499C84.2958 27.5978 84.3417 27.6456 84.3876 27.6934C84.5027 27.5892 84.6118 27.4955 84.749 27.4219C84.7808 27.4955 84.8128 27.569 84.8446 27.6426C84.7349 27.7025 84.6379 27.7728 84.5472 27.8599C84.6471 27.9621 84.7441 28.0669 84.8481 28.1653C84.8668 28.1551 84.9122 28.1286 84.9271 28.1206C85.0273 28.0683 85.1479 28.0039 85.2511 28.0056C85.3543 28.0075 85.4012 28.0279 85.4737 28.0987C85.5462 28.1698 85.5837 28.2569 85.5772 28.3755Z" fill="url(#paint57_linear_1_3907)"/>
<path d="M33.997 16.8412C30.0796 19.7321 28.7729 21.1059 26.3545 25.4379C24.7223 24.3071 22.9835 23.3712 21.3252 22.2861C23.6475 18.0159 25.9437 13.9841 29.8874 11.1321C31.4252 12.931 32.6857 14.8727 33.997 16.8412Z" fill="url(#paint58_linear_1_3907)"/>
<path d="M33.0155 16.6565C29.9753 18.7019 27.8523 21.1331 26.1236 24.3803C24.8783 23.5375 23.5678 22.8153 22.3008 22.0104C24.178 18.3881 26.3968 14.4055 29.7474 12.1088C30.9564 13.5428 32.0358 15.0511 33.0155 16.6565Z" fill="#D4EFFF"/>
<path d="M30.2711 15.1066C30.5367 15.4378 30.594 15.9415 30.2605 16.2315C29.9271 16.5216 29.5127 16.4085 29.2289 16.0914C28.9454 15.7743 28.8284 15.2338 29.1724 14.9087C29.5168 14.5833 30.0055 14.7751 30.2711 15.1066Z" fill="url(#paint59_linear_1_3907)"/>
<path d="M25.7317 20.6458C26.0489 20.8523 26.0261 21.2379 25.8328 21.5421C25.6394 21.8459 25.2641 22.0378 24.9255 21.8254C24.5869 21.6131 24.5606 21.1887 24.7759 20.8738C24.991 20.5589 25.4146 20.4392 25.7317 20.6458Z" fill="url(#paint60_linear_1_3907)"/>
<path d="M30.2507 11.7567C30.4786 12.0306 30.4528 12.3914 30.1603 12.6001C29.8679 12.8089 29.4717 12.727 29.239 12.4572C29.0062 12.1874 29.0578 11.8454 29.3478 11.6403C29.6379 11.4348 30.0229 11.4827 30.2507 11.7567Z" fill="url(#paint61_linear_1_3907)"/>
<path d="M33.4915 16.2932C33.6723 16.5787 33.6729 16.9802 33.3734 17.1842C33.0738 17.388 32.7388 17.2624 32.5522 16.9705C32.3657 16.6786 32.3624 16.276 32.654 16.0673C32.9459 15.8586 33.3106 16.0079 33.4915 16.2932Z" fill="url(#paint62_linear_1_3907)"/>
<path d="M22.5962 21.4373C22.8924 21.6297 22.9549 22.009 22.7947 22.3112C22.6345 22.6131 22.2988 22.7582 21.9985 22.5683C21.6982 22.3783 21.6075 21.9791 21.7772 21.6637C21.9466 21.3477 22.2999 21.2446 22.5962 21.4373Z" fill="url(#paint63_linear_1_3907)"/>
<path d="M26.4137 23.837C26.7013 24.0372 26.8028 24.4214 26.6339 24.7338C26.465 25.0465 26.1125 25.1148 25.8274 24.9191C25.542 24.7233 25.4625 24.3485 25.6295 24.0455C25.7965 23.7427 26.1261 23.6368 26.4137 23.837Z" fill="url(#paint64_linear_1_3907)"/>
<path d="M27.9561 18.7193C28.0649 18.8088 28.1752 18.9009 28.2871 18.9789C28.3808 18.8777 28.3732 18.6795 28.2952 18.6098C28.2173 18.5401 28.2195 18.5661 28.1486 18.5799C28.0777 18.5935 28.0155 18.6781 27.9561 18.7193Z" fill="url(#paint65_linear_1_3907)"/>
<path d="M27.1027 18.685C27.1635 18.7381 27.2138 18.7682 27.2961 18.7707C27.3783 18.7729 27.4584 18.7254 27.5231 18.6726C27.3525 18.52 27.1796 18.3693 27.0079 18.2181C26.9802 18.3024 26.965 18.3967 26.984 18.4818C27.0031 18.5667 27.0422 18.6319 27.1027 18.685Z" fill="url(#paint66_linear_1_3907)"/>
<path d="M25.9901 17.076C25.4402 18.0326 25.9567 19.1984 26.6814 19.7132C27.4059 20.228 28.3224 20.228 28.9752 19.5869C29.628 18.946 29.0982 17.8493 28.4487 17.2198C27.7991 16.5906 26.5399 16.1195 25.9901 17.076ZM28.6436 18.6242C28.6501 18.7931 28.5714 18.9756 28.4717 19.1227C28.5402 19.181 28.6094 19.2333 28.6819 19.2847C28.6347 19.3353 28.5871 19.3859 28.5399 19.4365C28.4736 19.3903 28.4071 19.3439 28.3409 19.2974C28.1815 19.4589 28.0058 19.604 27.8007 19.7013C27.7345 19.6579 27.6671 19.6159 27.6009 19.5728C27.7095 19.5227 27.8108 19.4636 27.908 19.3942C28.0049 19.3248 28.0845 19.2493 28.1608 19.1581C28.0386 19.0715 27.9172 18.9853 27.7978 18.8946C27.7752 18.927 27.7331 18.9903 27.7043 19.0096C27.5525 19.1111 27.4162 19.16 27.2424 19.1553C27.0687 19.1506 26.9603 19.0903 26.8291 18.9753C26.6977 18.8603 26.6374 18.7434 26.6138 18.5512C26.5902 18.3588 26.6279 18.1374 26.7037 17.9494C26.6146 17.8675 26.5272 17.7874 26.4392 17.7055C26.4791 17.6337 26.5188 17.5618 26.5587 17.4899C26.6453 17.5695 26.7317 17.6494 26.8186 17.7293C26.947 17.53 27.089 17.3522 27.2672 17.1968C27.3407 17.3257 27.4154 17.454 27.4874 17.5839C27.3524 17.7127 27.2302 17.8526 27.1194 18.0036C27.3068 18.1692 27.4874 18.3505 27.6864 18.5018C27.7062 18.4805 27.7633 18.4271 27.7793 18.4111C27.8852 18.3038 28.0272 18.1512 28.1665 18.139C28.3056 18.1269 28.3653 18.1484 28.4698 18.2416C28.5738 18.3345 28.6368 18.4553 28.6436 18.6242Z" fill="url(#paint67_linear_1_3907)"/>
<path d="M37.1301 55.185C38.0442 52.5915 36.7197 49.7347 34.1718 48.8043C31.6238 47.8738 28.8173 49.222 27.9032 51.8155C26.9891 54.409 28.3136 57.2657 30.8615 58.1962C33.4095 59.1266 36.216 57.7785 37.1301 55.185Z" fill="#FFAF2A"/>
<path d="M33.0721 57.9819C35.5049 57.6677 37.2269 55.4054 36.9181 52.929C36.6093 50.4527 34.3868 48.7 31.9539 49.0142C29.5211 49.3285 27.7991 51.5908 28.1079 54.0672C28.4167 56.5435 30.6392 58.2962 33.0721 57.9819Z" fill="#FB6B18"/>
<path d="M35.4611 54.8671C36.2024 53.2095 35.4832 51.2541 33.8548 50.4995C32.2263 49.745 30.3053 50.477 29.5639 52.1346C28.8226 53.7921 29.5418 55.7476 31.1703 56.5021C32.7987 57.2567 34.7198 56.5247 35.4611 54.8671Z" fill="#FFAF2A"/>
<path d="M32.8931 55.8563L32.7614 55.2471C32.4165 55.3181 32.0374 55.2891 31.7971 55.1849L31.852 54.7487C32.0966 54.8458 32.4298 54.8911 32.7616 54.8167C33.1825 54.7225 33.4131 54.4113 33.3387 54.0677C33.267 53.736 32.9914 53.5826 32.5134 53.5C31.8571 53.3944 31.4234 53.2006 31.3099 52.6757C31.2016 52.1749 31.4688 51.7166 31.9945 51.5038L31.8628 50.8949L32.2305 50.8125L32.357 51.3974C32.7152 51.3296 32.9789 51.3717 33.1728 51.4358L33.1108 51.867C32.9707 51.8225 32.6992 51.7443 32.3201 51.8294C31.8636 51.9317 31.752 52.2479 31.8042 52.4889C31.872 52.8026 32.1251 52.9104 32.6878 53.0118C33.3531 53.1285 33.7289 53.3731 33.8448 53.9099C33.948 54.3867 33.7188 54.9057 33.1307 55.1454L33.2664 55.7725L32.8931 55.8563Z" fill="white"/>
<path d="M90.5594 23.6354C89.4702 25.5432 87.0681 26.1911 85.1938 25.0824C83.3196 23.9738 82.6831 21.5287 83.7723 19.621C84.8615 17.7132 87.2636 17.0656 89.1378 18.174C91.012 19.2827 91.6483 21.7277 90.5594 23.6354Z" fill="#FFAF2A"/>
<path d="M90.6926 22.0962C90.9446 20.1138 89.57 18.2988 87.6225 18.0424C85.6749 17.7859 83.8918 19.185 83.6398 21.1674C83.3879 23.1498 84.7624 24.9648 86.71 25.2213C88.6576 25.4777 90.4407 24.0786 90.6926 22.0962Z" fill="#FB6B18"/>
<path d="M89.4092 22.955C88.6893 24.2159 87.1013 24.6441 85.8625 23.9113C84.6237 23.1786 84.2031 21.5622 84.9229 20.3012C85.6428 19.0403 87.2308 18.6121 88.4696 19.3449C89.7084 20.0779 90.1291 21.694 89.4092 22.955Z" fill="#FFAF2A"/>
<path d="M86.1353 23.2278L86.3819 22.7959C86.1408 22.6475 85.9328 22.4213 85.8467 22.2273L86.1112 22.0003C86.2038 22.1924 86.3759 22.4031 86.6114 22.5422C86.9098 22.7185 87.2112 22.6624 87.3505 22.4186C87.4849 22.1833 87.404 21.9408 87.1661 21.6287C86.8354 21.2043 86.683 20.8507 86.8954 20.4786C87.098 20.1234 87.4996 20.0006 87.9229 20.1651L88.1695 19.7333L88.4302 19.8875L88.1934 20.3025C88.4408 20.4601 88.5738 20.6304 88.6539 20.7753L88.3878 20.9953C88.3289 20.8917 88.2105 20.6959 87.9417 20.5367C87.618 20.3451 87.3839 20.4701 87.2862 20.6409C87.1593 20.8635 87.2511 21.0664 87.5289 21.4368C87.8591 21.8726 87.9504 22.2242 87.7331 22.6049C87.5401 22.943 87.1287 23.1227 86.6543 22.9394L86.4004 23.3843L86.1353 23.2278Z" fill="white"/>
<path d="M8.02411 22.1914C7.05658 23.8863 4.92221 24.4617 3.25708 23.4769C1.59195 22.4921 1.02658 20.3196 1.99411 18.6247C2.96164 16.9298 5.096 16.3543 6.76114 17.3391C8.42627 18.3242 8.99163 20.4967 8.02411 22.1914Z" fill="#FFAF2A"/>
<path d="M7.73991 22.0238C6.86335 23.5594 4.92966 24.0807 3.42093 23.1885C1.91221 22.2963 1.40035 20.328 2.2769 18.7923C3.15346 17.2566 5.08715 16.7353 6.59587 17.6276C8.1046 18.5198 8.61673 20.4881 7.73991 22.0238Z" fill="#FB6B18"/>
<path d="M7.00142 21.5868C6.36193 22.7071 4.95096 23.0877 3.85038 22.4365C2.74979 21.7856 2.37587 20.3494 3.01564 19.2291C3.65514 18.1088 5.0661 17.7282 6.16668 18.3794C7.26727 19.0306 7.64119 20.4666 7.00142 21.5868Z" fill="#FFAF2A"/>
<path d="M4.09282 21.829L4.31169 21.4453C4.09744 21.3134 3.91251 21.1124 3.83594 20.9402L4.0711 20.7387C4.15338 20.9095 4.30626 21.0964 4.51562 21.2203C4.78065 21.377 5.04867 21.3272 5.17223 21.1105C5.29143 20.9015 5.21975 20.6861 5.00848 20.4086C4.71467 20.0315 4.57916 19.7174 4.76789 19.3867C4.94793 19.0713 5.30474 18.9621 5.68056 19.1083L5.89943 18.7246L6.13106 18.8617L5.92061 19.2303C6.14029 19.3704 6.25842 19.5217 6.32983 19.6502L6.09332 19.8457C6.04091 19.7536 5.93582 19.5797 5.69686 19.4384C5.40929 19.2684 5.20128 19.379 5.11466 19.5311C5.00196 19.7287 5.08343 19.9093 5.33027 20.2383C5.62354 20.6253 5.70473 20.9377 5.51166 21.2758C5.34031 21.5761 4.97454 21.7359 4.5531 21.573L4.32744 21.9681L4.09282 21.829Z" fill="white"/>
<path d="M75.8189 23.6597C77.3045 23.6597 78.5088 22.4338 78.5088 20.9216C78.5088 19.4095 77.3045 18.1836 75.8189 18.1836C74.3332 18.1836 73.1289 19.4095 73.1289 20.9216C73.1289 22.4338 74.3332 23.6597 75.8189 23.6597Z" fill="url(#paint68_linear_1_3907)"/>
<path d="M75.819 23.4025C77.165 23.4025 78.2561 22.2918 78.2561 20.9218C78.2561 19.5517 77.165 18.441 75.819 18.441C74.473 18.441 73.3818 19.5517 73.3818 20.9218C73.3818 22.2918 74.473 23.4025 75.819 23.4025Z" fill="url(#paint69_linear_1_3907)"/>
<path d="M77.0763 22.2022C76.382 22.9091 75.2561 22.9091 74.5618 22.2022C73.8674 21.4953 73.8674 20.349 74.5618 19.6421C75.2561 18.9352 76.382 18.9352 77.0763 19.6421C77.7707 20.3488 77.7707 21.4953 77.0763 22.2022Z" fill="url(#paint70_linear_1_3907)"/>
<path d="M74.8605 21.7971L75.0984 21.5549C74.9643 21.4133 74.8654 21.2264 74.8418 21.0824L75.056 20.9793C75.0843 21.123 75.1622 21.2933 75.2939 21.4277C75.4612 21.598 75.6706 21.6146 75.805 21.478C75.9345 21.3461 75.9228 21.1711 75.8191 20.9218C75.6733 20.5814 75.6331 20.3202 75.8381 20.1115C76.0336 19.9124 76.3206 19.9027 76.5729 20.0874L76.8108 19.8452L76.9569 19.994L76.7285 20.2265C76.8651 20.3752 76.924 20.5118 76.952 20.6221L76.7377 20.7205C76.7166 20.6414 76.6718 20.4905 76.521 20.337C76.3397 20.1524 76.1631 20.193 76.0689 20.2889C75.9464 20.4136 75.9722 20.5646 76.0925 20.8596C76.2362 21.2074 76.2362 21.4564 76.0266 21.6699C75.8406 21.8593 75.5367 21.9049 75.2543 21.6986L75.0093 21.948L74.8605 21.7971Z" fill="white"/>
<path d="M50.1088 15.1662C49.3454 15.9431 48.108 15.9431 47.345 15.1662C46.5816 14.3892 46.5816 13.1296 47.345 12.3529C48.1083 11.5763 49.3457 11.576 50.1088 12.3529C50.8721 13.1296 50.8721 14.3892 50.1088 15.1662Z" fill="url(#paint71_linear_1_3907)"/>
<path d="M48.7268 15.5628C49.7048 15.5628 50.4976 14.7556 50.4976 13.76C50.4976 12.7643 49.7048 11.9572 48.7268 11.9572C47.7489 11.9572 46.9561 12.7643 46.9561 13.76C46.9561 14.7556 47.7489 15.5628 48.7268 15.5628Z" fill="url(#paint72_linear_1_3907)"/>
<path d="M49.6409 14.6899C49.1364 15.2036 48.3185 15.2036 47.8139 14.6899C47.3094 14.1762 47.3094 13.3435 47.8139 12.8298C48.3185 12.3162 49.1364 12.3162 49.6409 12.8298C50.1455 13.3435 50.1455 14.1762 49.6409 14.6899Z" fill="url(#paint73_linear_1_3907)"/>
<path d="M48.0304 14.3956L48.2032 14.2198C48.1057 14.117 48.0337 13.9812 48.0166 13.8767L48.1725 13.8018C48.1931 13.9063 48.2496 14.0302 48.3454 14.1277C48.4668 14.2513 48.6192 14.2635 48.7167 14.1642C48.8109 14.0683 48.8022 13.9414 48.727 13.7601C48.6211 13.5129 48.5917 13.323 48.7408 13.1715C48.8828 13.0269 49.0914 13.0197 49.2747 13.154L49.4474 12.9782L49.5536 13.0863L49.3876 13.2552C49.487 13.3633 49.5297 13.4626 49.55 13.5428L49.3944 13.6141C49.379 13.5566 49.3466 13.4468 49.2372 13.3354C49.1055 13.2013 48.9771 13.2309 48.9086 13.3006C48.8196 13.3912 48.8383 13.5007 48.9257 13.7153C49.03 13.968 49.03 14.149 48.8777 14.3041C48.7424 14.4418 48.5219 14.475 48.3164 14.3251L48.1385 14.5062L48.0304 14.3956Z" fill="white"/>
<path d="M90.3069 40.3877C89.2511 41.4624 87.5393 41.4624 86.4832 40.3877C85.4275 39.3131 85.4275 37.5706 86.4832 36.4957C87.539 35.421 89.2509 35.421 90.3069 36.4957C91.3627 37.5703 91.3627 39.3131 90.3069 40.3877Z" fill="url(#paint74_linear_1_3907)"/>
<path d="M90.127 40.2048C89.1703 41.1785 87.6195 41.1785 86.6628 40.2048C85.7061 39.231 85.7061 37.6525 86.6628 36.6787C87.6195 35.7049 89.1703 35.7049 90.127 36.6787C91.0836 37.6525 91.0836 39.231 90.127 40.2048Z" fill="url(#paint75_linear_1_3907)"/>
<path d="M88.3955 40.2616C89.3824 40.2616 90.1825 39.447 90.1825 38.4422C90.1825 37.4374 89.3824 36.6228 88.3955 36.6228C87.4085 36.6228 86.6084 37.4374 86.6084 38.4422C86.6084 39.447 87.4085 40.2616 88.3955 40.2616Z" fill="url(#paint76_linear_1_3907)"/>
<path d="M87.4321 39.3214L87.6711 39.0782C87.5364 38.936 87.4367 38.7481 87.4131 38.6035L87.6284 38.4998C87.6567 38.6444 87.7351 38.8155 87.8677 38.9504C88.0357 39.1216 88.2462 39.1384 88.3811 39.001C88.5112 38.8686 88.4995 38.6925 88.3953 38.442C88.2486 38.1 88.2084 37.8374 88.4143 37.6275C88.6109 37.4274 88.8993 37.4177 89.1526 37.6032L89.3916 37.3599L89.5385 37.5095L89.309 37.7431C89.4464 37.8924 89.5054 38.0298 89.5339 38.1407L89.3185 38.2394C89.2974 38.1597 89.2523 38.0082 89.1008 37.854C88.9185 37.6685 88.741 37.7094 88.6462 37.8056C88.5232 37.9308 88.549 38.0826 88.6698 38.3793C88.8143 38.7287 88.814 38.9792 88.6033 39.1937C88.4162 39.3842 88.111 39.4301 87.8269 39.2227L87.5809 39.4732L87.4321 39.3214Z" fill="white"/>
<path d="M2.70353 43.6868C4.19665 43.6868 5.40706 42.4548 5.40706 40.935C5.40706 39.4152 4.19665 38.1831 2.70353 38.1831C1.21041 38.1831 0 39.4152 0 40.935C0 42.4548 1.21041 43.6868 2.70353 43.6868Z" fill="url(#paint77_linear_1_3907)"/>
<path d="M4.43554 42.6981C3.47888 43.6719 1.92807 43.6719 0.971404 42.6981C0.0147403 41.7243 0.0147403 40.1458 0.971404 39.172C1.92807 38.1983 3.47888 38.1983 4.43554 39.172C5.39221 40.1455 5.39221 41.7243 4.43554 42.6981Z" fill="url(#paint78_linear_1_3907)"/>
<path d="M2.70307 42.7548C3.69004 42.7548 4.49013 41.9402 4.49013 40.9354C4.49013 39.9305 3.69004 39.116 2.70307 39.116C1.71611 39.116 0.916016 39.9305 0.916016 40.9354C0.916016 41.9402 1.71611 42.7548 2.70307 42.7548Z" fill="url(#paint79_linear_1_3907)"/>
<path d="M1.73971 41.8148L1.97867 41.5716C1.84371 41.4295 1.74433 41.2415 1.7207 41.0969L1.93604 40.9932C1.96428 41.1378 2.04249 41.3089 2.17527 41.4438C2.34336 41.615 2.55381 41.6318 2.68877 41.4944C2.81884 41.362 2.80717 41.1859 2.70289 40.9354C2.55626 40.5934 2.51607 40.3305 2.7219 40.121C2.9185 39.9208 3.20689 39.9111 3.46024 40.0966L3.6992 39.8533L3.84611 40.0029L3.61665 40.2365C3.75405 40.3861 3.81298 40.5232 3.84149 40.6341L3.62616 40.7328C3.60497 40.6531 3.5599 40.5014 3.40837 40.3474C3.22589 40.1619 3.04857 40.2028 2.9538 40.299C2.83079 40.4242 2.85659 40.576 2.97743 40.8727C3.12189 41.2221 3.12162 41.4726 2.9109 41.6871C2.7238 41.8776 2.41858 41.9235 2.13454 41.7161L1.88852 41.9666L1.73971 41.8148Z" fill="white"/>
<path d="M46.0184 8.87638C45.8291 10.5044 44.3791 11.6678 42.7796 11.4751C41.1802 11.2825 40.0373 9.80648 40.2265 8.17847C40.4158 6.55045 41.8659 5.38707 43.4653 5.57973C45.0644 5.77266 46.2077 7.24865 46.0184 8.87638Z" fill="url(#paint80_linear_1_3907)"/>
<path d="M45.7457 8.84374C45.5741 10.3186 44.2603 11.3728 42.8113 11.1984C41.3624 11.0237 40.3267 9.68649 40.498 8.21161C40.6694 6.73673 41.9834 5.68253 43.4324 5.85721C44.8816 6.03135 45.9173 7.36858 45.7457 8.84374Z" fill="url(#paint81_linear_1_3907)"/>
<path d="M45.0364 8.75833C44.9113 9.83436 43.9527 10.6036 42.8956 10.4762C41.8384 10.3487 41.0827 9.37305 41.2079 8.29701C41.3331 7.22098 42.2916 6.45175 43.3488 6.57917C44.4062 6.70631 45.1616 7.68202 45.0364 8.75833Z" fill="url(#paint82_linear_1_3907)"/>
<path d="M42.8834 9.92791L42.9263 9.55938C42.7188 9.53063 42.5113 9.43912 42.3965 9.33268L42.5111 9.09852C42.63 9.20164 42.8084 9.29343 43.0094 9.31775C43.2641 9.34844 43.4533 9.21961 43.4775 9.01143C43.5009 8.81072 43.3754 8.66972 43.1229 8.52817C42.7742 8.33824 42.5678 8.14306 42.6048 7.8254C42.6401 7.5224 42.8782 7.31781 43.2144 7.30288L43.2573 6.93436L43.4797 6.96117L43.4384 7.31505C43.6527 7.34822 43.7928 7.42425 43.8895 7.4989L43.7719 7.72891C43.7015 7.67611 43.5641 7.57797 43.3347 7.55032C43.0585 7.51714 42.935 7.67252 42.9181 7.81849C42.8961 8.00814 43.0175 8.11928 43.3143 8.2882C43.6657 8.48615 43.83 8.6982 43.7922 9.02332C43.7586 9.31167 43.5302 9.558 43.1536 9.57569L43.1096 9.95528L42.8834 9.92791Z" fill="white"/>
<path d="M59.7318 33.5763L78.334 33.5608C79.9152 33.5594 81.198 34.8632 81.1994 36.4727L81.2303 75.0679C81.2317 76.6774 79.9508 77.9831 78.3696 77.9845L59.7674 78C58.1862 78.0014 56.9034 76.6976 56.9021 75.0881L56.8711 36.4929C56.8697 34.8834 58.1506 33.5777 59.7318 33.5763Z" fill="url(#paint83_linear_1_3907)"/>
<path d="M59.7942 35.0167L78.1755 35C79.167 34.9991 79.9716 35.8957 79.9724 37.003L80 74.977C80.0008 76.084 79.1977 76.9824 78.206 76.9833L59.8247 77C58.8333 77.0009 58.0286 76.1043 58.0278 74.997L58 37.023C57.9995 35.9157 58.8028 35.0176 59.7942 35.0167Z" fill="white"/>
<path d="M74.2687 40.4385L63.942 40.447C63.7576 40.4473 63.608 40.295 63.6077 40.1073L63.6074 39.9323C63.6072 39.7446 63.7568 39.5922 63.9412 39.5919L74.2679 39.5834C74.4522 39.5831 74.6019 39.7352 74.6021 39.9231L74.6024 40.0982C74.6024 40.2861 74.4531 40.4385 74.2687 40.4385Z" fill="#D4EFFF"/>
<path d="M69.707 41.7444L63.8513 41.7494C63.7177 41.7494 63.6094 41.6393 63.6094 41.5033V41.3764C63.6094 41.2404 63.7175 41.1301 63.8511 41.1298L69.7067 41.1248C69.8403 41.1248 69.9487 41.2348 69.9489 41.3709V41.4978C69.9489 41.6338 69.8406 41.7441 69.707 41.7444Z" fill="#D4EFFF"/>
<path d="M62.547 40.5183C62.5478 41.498 61.7685 42.2926 60.8061 42.2934C59.844 42.2943 59.0633 41.5008 59.0625 40.521C59.0617 39.5412 59.841 38.7464 60.8034 38.7459C61.7658 38.745 62.5465 39.5387 62.547 40.5183Z" fill="#FFE088"/>
<path d="M77.1701 39.9552C77.1701 40.1133 77.0443 40.2416 76.889 40.2419C76.7337 40.2419 76.6077 40.1139 76.6074 39.9557C76.6074 39.7976 76.7331 39.6693 76.8885 39.6693C77.0441 39.669 77.1701 39.797 77.1701 39.9552ZM77.812 39.6685C77.6567 39.6688 77.531 39.797 77.531 39.9552C77.5312 40.1133 77.6572 40.2413 77.8125 40.2413C77.9679 40.2413 78.0936 40.113 78.0936 39.9549C78.0936 39.7965 77.9673 39.6682 77.812 39.6685ZM78.7355 39.6677C78.5802 39.6679 78.4545 39.7962 78.4545 39.9544C78.4548 40.1125 78.5808 40.2405 78.7361 40.2405C78.8914 40.2402 79.0171 40.1122 79.0171 39.9538C79.0169 39.7957 78.8909 39.6674 78.7355 39.6677Z" fill="#D4EFFF"/>
<path d="M61.5225 40.9253C61.5225 41.0738 61.4693 41.196 61.3628 41.2919C61.2564 41.3881 61.1027 41.4473 60.9017 41.47V41.8028H60.7013V41.4791C60.452 41.4749 60.2478 41.4362 60.0879 41.3624V41.0387C60.1742 41.0815 60.2753 41.1178 60.3907 41.1468C60.5061 41.1758 60.6095 41.191 60.701 41.1921V40.6182L60.5745 40.5706C60.4097 40.5062 60.2894 40.4294 60.2136 40.3398C60.1379 40.2502 60.0998 40.1396 60.0998 40.0078C60.0998 39.8665 60.1539 39.7506 60.262 39.6594C60.37 39.5685 60.5164 39.5132 60.7013 39.4938V39.2361H60.9017V39.4894C61.1057 39.4966 61.299 39.5383 61.482 39.6152L61.372 39.8961C61.2143 39.8328 61.0576 39.7949 60.9017 39.7824V40.3409L61.0163 40.3854C61.2072 40.4601 61.3392 40.5388 61.4128 40.6218C61.4858 40.7044 61.5225 40.8056 61.5225 40.9253ZM60.4539 40.0047C60.4539 40.063 60.4716 40.1117 60.5074 40.1504C60.543 40.1894 60.6076 40.2278 60.701 40.2654V39.7882C60.6207 39.8004 60.5593 39.8256 60.5172 39.8634C60.4751 39.9016 60.4539 39.9486 60.4539 40.0047ZM61.1668 40.9483C61.1668 40.8891 61.1464 40.8402 61.1057 40.8018C61.0649 40.7633 60.9968 40.7263 60.9014 40.6906V41.18C61.0785 41.1526 61.1668 41.0752 61.1668 40.9483Z" fill="white"/>
<path d="M78.4544 58.1623C78.4588 63.4106 74.2821 67.6686 69.1259 67.673C63.9698 67.6774 59.7866 63.4261 59.7822 58.1777C59.7782 52.9294 63.9546 48.6711 69.1107 48.667C74.2669 48.6626 78.4503 52.9136 78.4544 58.1623Z" fill="#FFAF2A"/>
<path d="M76.3975 58.1639C76.4008 62.2557 73.1447 65.5753 69.1247 65.5789C65.1047 65.5823 61.8434 62.2679 61.8398 58.176C61.8366 54.0842 65.0927 50.7643 69.1127 50.761C73.1327 50.7577 76.3943 54.072 76.3975 58.1639Z" fill="#FB6B18"/>
<path d="M72.2192 59.9239C72.2192 60.5648 71.9887 61.0933 71.5286 61.5085C71.0681 61.9242 70.4036 62.1807 69.5352 62.2777V63.7166H68.669V62.3175C67.5917 62.3001 66.7081 62.1318 66.0176 61.8136V60.4145C66.391 60.6002 66.8273 60.7558 67.327 60.8819C67.8261 61.0079 68.2736 61.0734 68.669 61.0776V58.5977L68.1218 58.392C67.4093 58.1134 66.8895 57.7812 66.5618 57.3942C66.2335 57.0075 66.07 56.5288 66.07 55.9586C66.07 55.3486 66.3032 54.8472 66.7703 54.4533C67.2368 54.06 67.8701 53.8214 68.6692 53.7371V52.6232H69.5355V53.7172C70.4169 53.7485 71.2528 53.9295 72.0435 54.2609L71.568 55.4743C70.8862 55.2004 70.2087 55.0368 69.5355 54.9837V57.3973L70.0305 57.5896C70.8555 57.9125 71.4265 58.2527 71.7437 58.6107C72.0603 58.9689 72.2192 59.4067 72.2192 59.9239ZM67.6007 55.9453C67.6007 56.1974 67.6776 56.4075 67.8321 56.5752C67.986 56.7436 68.2652 56.9091 68.6692 57.0725V55.0102C68.3217 55.0633 68.0569 55.1719 67.8744 55.3353C67.6917 55.4989 67.6007 55.7026 67.6007 55.9453ZM70.6817 60.0234C70.6817 59.7671 70.5937 59.556 70.418 59.3901C70.2421 59.2243 69.9477 59.0642 69.5352 58.9095V61.0248C70.2996 60.9051 70.6817 60.5715 70.6817 60.0234Z" fill="white"/>
<defs>
<linearGradient id="paint0_linear_1_3907" x1="19.4785" y1="37.0333" x2="19.4785" y2="67.6919" gradientUnits="userSpaceOnUse">
<stop stop-color="#469FEF"/>
<stop offset="0.258455" stop-color="#5C75F0"/>
<stop offset="0.652018" stop-color="#6C56F0"/>
</linearGradient>
<linearGradient id="paint1_linear_1_3907" x1="19.4792" y1="34.9881" x2="19.4792" y2="39.078" gradientUnits="userSpaceOnUse">
<stop stop-color="#469FEF"/>
<stop offset="0.258455" stop-color="#5C75F0"/>
<stop offset="0.652018" stop-color="#6C56F0"/>
</linearGradient>
<linearGradient id="paint2_linear_1_3907" x1="19.4792" y1="65.6464" x2="19.4792" y2="69.7363" gradientUnits="userSpaceOnUse">
<stop stop-color="#469FEF"/>
<stop offset="0.258455" stop-color="#5C75F0"/>
<stop offset="0.652018" stop-color="#6C56F0"/>
</linearGradient>
<linearGradient id="paint3_linear_1_3907" x1="17.7235" y1="41.4183" x2="17.7235" y2="63.3061" gradientUnits="userSpaceOnUse">
<stop stop-color="#469FEF"/>
<stop offset="0.258455" stop-color="#5C75F0"/>
<stop offset="0.652018" stop-color="#6C56F0"/>
</linearGradient>
<linearGradient id="paint4_linear_1_3907" x1="21.2343" y1="41.4183" x2="21.2343" y2="63.3061" gradientUnits="userSpaceOnUse">
<stop stop-color="#469FEF"/>
<stop offset="0.258455" stop-color="#5C75F0"/>
<stop offset="0.652018" stop-color="#6C56F0"/>
</linearGradient>
<linearGradient id="paint5_linear_1_3907" x1="35.4492" y1="37.0333" x2="35.4492" y2="67.6919" gradientUnits="userSpaceOnUse">
<stop stop-color="#469FEF"/>
<stop offset="0.258455" stop-color="#5C75F0"/>
<stop offset="0.652018" stop-color="#6C56F0"/>
</linearGradient>
<linearGradient id="paint6_linear_1_3907" x1="35.4499" y1="34.9881" x2="35.4499" y2="39.078" gradientUnits="userSpaceOnUse">
<stop stop-color="#469FEF"/>
<stop offset="0.258455" stop-color="#5C75F0"/>
<stop offset="0.652018" stop-color="#6C56F0"/>
</linearGradient>
<linearGradient id="paint7_linear_1_3907" x1="35.4499" y1="65.6464" x2="35.4499" y2="69.7363" gradientUnits="userSpaceOnUse">
<stop stop-color="#469FEF"/>
<stop offset="0.258455" stop-color="#5C75F0"/>
<stop offset="0.652018" stop-color="#6C56F0"/>
</linearGradient>
<linearGradient id="paint8_linear_1_3907" x1="51.4199" y1="37.0333" x2="51.4199" y2="67.6919" gradientUnits="userSpaceOnUse">
<stop stop-color="#469FEF"/>
<stop offset="0.258455" stop-color="#5C75F0"/>
<stop offset="0.652018" stop-color="#6C56F0"/>
</linearGradient>
<linearGradient id="paint9_linear_1_3907" x1="51.4196" y1="34.9881" x2="51.4196" y2="39.078" gradientUnits="userSpaceOnUse">
<stop stop-color="#469FEF"/>
<stop offset="0.258455" stop-color="#5C75F0"/>
<stop offset="0.652018" stop-color="#6C56F0"/>
</linearGradient>
<linearGradient id="paint10_linear_1_3907" x1="51.4196" y1="65.6464" x2="51.4196" y2="69.7363" gradientUnits="userSpaceOnUse">
<stop stop-color="#469FEF"/>
<stop offset="0.258455" stop-color="#5C75F0"/>
<stop offset="0.652018" stop-color="#6C56F0"/>
</linearGradient>
<linearGradient id="paint11_linear_1_3907" x1="49.6639" y1="41.4183" x2="49.6639" y2="63.3061" gradientUnits="userSpaceOnUse">
<stop stop-color="#469FEF"/>
<stop offset="0.258455" stop-color="#5C75F0"/>
<stop offset="0.652018" stop-color="#6C56F0"/>
</linearGradient>
<linearGradient id="paint12_linear_1_3907" x1="53.1747" y1="41.4183" x2="53.1747" y2="63.3061" gradientUnits="userSpaceOnUse">
<stop stop-color="#469FEF"/>
<stop offset="0.258455" stop-color="#5C75F0"/>
<stop offset="0.652018" stop-color="#6C56F0"/>
</linearGradient>
<linearGradient id="paint13_linear_1_3907" x1="43.4351" y1="31.1586" x2="43.4351" y2="34.9879" gradientUnits="userSpaceOnUse">
<stop stop-color="#469FEF"/>
<stop offset="0.258455" stop-color="#5C75F0"/>
<stop offset="0.652018" stop-color="#6C56F0"/>
</linearGradient>
<linearGradient id="paint14_linear_1_3907" x1="43.4351" y1="67.8218" x2="43.4351" y2="71.6511" gradientUnits="userSpaceOnUse">
<stop stop-color="#469FEF"/>
<stop offset="0.258455" stop-color="#5C75F0"/>
<stop offset="0.652018" stop-color="#6C56F0"/>
</linearGradient>
<linearGradient id="paint15_linear_1_3907" x1="43.4349" y1="17.5679" x2="43.4349" y2="31.1585" gradientUnits="userSpaceOnUse">
<stop stop-color="#469FEF"/>
<stop offset="0.258455" stop-color="#5C75F0"/>
<stop offset="0.652018" stop-color="#6C56F0"/>
</linearGradient>
<linearGradient id="paint16_linear_1_3907" x1="37.4007" y1="23.7565" x2="37.4007" y2="27.4249" gradientUnits="userSpaceOnUse">
<stop stop-color="#469FEF"/>
<stop offset="0.258455" stop-color="#5C75F0"/>
<stop offset="0.652018" stop-color="#6C56F0"/>
</linearGradient>
<linearGradient id="paint17_linear_1_3907" x1="41.1228" y1="23.7565" x2="41.1228" y2="27.4249" gradientUnits="userSpaceOnUse">
<stop stop-color="#469FEF"/>
<stop offset="0.258455" stop-color="#5C75F0"/>
<stop offset="0.652018" stop-color="#6C56F0"/>
</linearGradient>
<linearGradient id="paint18_linear_1_3907" x1="45.5815" y1="23.7565" x2="45.5815" y2="27.4249" gradientUnits="userSpaceOnUse">
<stop stop-color="#469FEF"/>
<stop offset="0.258455" stop-color="#5C75F0"/>
<stop offset="0.652018" stop-color="#6C56F0"/>
</linearGradient>
<linearGradient id="paint19_linear_1_3907" x1="49.7866" y1="23.7568" x2="49.7866" y2="27.4252" gradientUnits="userSpaceOnUse">
<stop stop-color="#469FEF"/>
<stop offset="0.258455" stop-color="#5C75F0"/>
<stop offset="0.652018" stop-color="#6C56F0"/>
</linearGradient>
<linearGradient id="paint20_linear_1_3907" x1="62.9529" y1="0" x2="62.9529" y2="19.639" gradientUnits="userSpaceOnUse">
<stop stop-color="#469FEF"/>
<stop offset="0.258455" stop-color="#5C75F0"/>
<stop offset="0.652018" stop-color="#6C56F0"/>
</linearGradient>
<linearGradient id="paint21_linear_1_3907" x1="66.7394" y1="12.314" x2="66.7394" y2="14.5526" gradientUnits="userSpaceOnUse">
<stop stop-color="#469FEF"/>
<stop offset="0.258455" stop-color="#5C75F0"/>
<stop offset="0.652018" stop-color="#6C56F0"/>
</linearGradient>
<linearGradient id="paint22_linear_1_3907" x1="59.4709" y1="5.10672" x2="59.4709" y2="7.15758" gradientUnits="userSpaceOnUse">
<stop stop-color="#469FEF"/>
<stop offset="0.258455" stop-color="#5C75F0"/>
<stop offset="0.652018" stop-color="#6C56F0"/>
</linearGradient>
<linearGradient id="paint23_linear_1_3907" x1="71.1674" y1="13.1642" x2="71.1674" y2="15.0265" gradientUnits="userSpaceOnUse">
<stop stop-color="#469FEF"/>
<stop offset="0.258455" stop-color="#5C75F0"/>
<stop offset="0.652018" stop-color="#6C56F0"/>
</linearGradient>
<linearGradient id="paint24_linear_1_3907" x1="65.6086" y1="17.3361" x2="65.6086" y2="19.0765" gradientUnits="userSpaceOnUse">
<stop stop-color="#469FEF"/>
<stop offset="0.258455" stop-color="#5C75F0"/>
<stop offset="0.652018" stop-color="#6C56F0"/>
</linearGradient>
<linearGradient id="paint25_linear_1_3907" x1="58.684" y1="0.567932" x2="58.684" y2="2.367" gradientUnits="userSpaceOnUse">
<stop stop-color="#469FEF"/>
<stop offset="0.258455" stop-color="#5C75F0"/>
<stop offset="0.652018" stop-color="#6C56F0"/>
</linearGradient>
<linearGradient id="paint26_linear_1_3907" x1="54.7331" y1="6.36017" x2="54.7331" y2="8.05415" gradientUnits="userSpaceOnUse">
<stop stop-color="#469FEF"/>
<stop offset="0.258455" stop-color="#5C75F0"/>
<stop offset="0.652018" stop-color="#6C56F0"/>
</linearGradient>
<linearGradient id="paint27_linear_1_3907" x1="63.6561" y1="6.76672" x2="63.6561" y2="12.0229" gradientUnits="userSpaceOnUse">
<stop stop-color="#469FEF"/>
<stop offset="0.258455" stop-color="#5C75F0"/>
<stop offset="0.652018" stop-color="#6C56F0"/>
</linearGradient>
<linearGradient id="paint28_linear_1_3907" x1="86.7225" y1="42.4463" x2="86.7225" y2="64.5535" gradientUnits="userSpaceOnUse">
<stop stop-color="#469FEF"/>
<stop offset="0.258455" stop-color="#5C75F0"/>
<stop offset="0.652018" stop-color="#6C56F0"/>
</linearGradient>
<linearGradient id="paint29_linear_1_3907" x1="92.2613" y1="49.5441" x2="92.2613" y2="52.5075" gradientUnits="userSpaceOnUse">
<stop stop-color="#469FEF"/>
<stop offset="0.258455" stop-color="#5C75F0"/>
<stop offset="0.652018" stop-color="#6C56F0"/>
</linearGradient>
<linearGradient id="paint30_linear_1_3907" x1="80.3346" y1="56.3774" x2="80.3346" y2="58.9089" gradientUnits="userSpaceOnUse">
<stop stop-color="#469FEF"/>
<stop offset="0.258455" stop-color="#5C75F0"/>
<stop offset="0.652018" stop-color="#6C56F0"/>
</linearGradient>
<linearGradient id="paint31_linear_1_3907" x1="91.808" y1="43.1812" x2="91.808" y2="45.4832" gradientUnits="userSpaceOnUse">
<stop stop-color="#469FEF"/>
<stop offset="0.258455" stop-color="#5C75F0"/>
<stop offset="0.652018" stop-color="#6C56F0"/>
</linearGradient>
<linearGradient id="paint32_linear_1_3907" x1="98.1458" y1="50.4818" x2="98.1458" y2="52.8998" gradientUnits="userSpaceOnUse">
<stop stop-color="#469FEF"/>
<stop offset="0.258455" stop-color="#5C75F0"/>
<stop offset="0.652018" stop-color="#6C56F0"/>
</linearGradient>
<linearGradient id="paint33_linear_1_3907" x1="86.7028" y1="52.0251" x2="86.7028" y2="58.5908" gradientUnits="userSpaceOnUse">
<stop stop-color="#469FEF"/>
<stop offset="0.258455" stop-color="#5C75F0"/>
<stop offset="0.652018" stop-color="#6C56F0"/>
</linearGradient>
<linearGradient id="paint34_linear_1_3907" x1="20.8543" y1="42.5129" x2="20.8543" y2="76.246" gradientUnits="userSpaceOnUse">
<stop stop-color="#469FEF"/>
<stop offset="0.258455" stop-color="#5C75F0"/>
<stop offset="0.652018" stop-color="#6C56F0"/>
</linearGradient>
<linearGradient id="paint35_linear_1_3907" x1="29.4409" y1="63.4122" x2="29.4409" y2="67.3287" gradientUnits="userSpaceOnUse">
<stop stop-color="#469FEF"/>
<stop offset="0.258455" stop-color="#5C75F0"/>
<stop offset="0.652018" stop-color="#6C56F0"/>
</linearGradient>
<linearGradient id="paint36_linear_1_3907" x1="12.9789" y1="52.4667" x2="12.9789" y2="56.8339" gradientUnits="userSpaceOnUse">
<stop stop-color="#469FEF"/>
<stop offset="0.258455" stop-color="#5C75F0"/>
<stop offset="0.652018" stop-color="#6C56F0"/>
</linearGradient>
<linearGradient id="paint37_linear_1_3907" x1="37.6882" y1="59.991" x2="37.6882" y2="63.1644" gradientUnits="userSpaceOnUse">
<stop stop-color="#469FEF"/>
<stop offset="0.258455" stop-color="#5C75F0"/>
<stop offset="0.652018" stop-color="#6C56F0"/>
</linearGradient>
<linearGradient id="paint38_linear_1_3907" x1="32.208" y1="72.0327" x2="32.208" y2="75.356" gradientUnits="userSpaceOnUse">
<stop stop-color="#469FEF"/>
<stop offset="0.258455" stop-color="#5C75F0"/>
<stop offset="0.652018" stop-color="#6C56F0"/>
</linearGradient>
<linearGradient id="paint39_linear_1_3907" x1="13.0107" y1="43.588" x2="13.0107" y2="46.9026" gradientUnits="userSpaceOnUse">
<stop stop-color="#469FEF"/>
<stop offset="0.258455" stop-color="#5C75F0"/>
<stop offset="0.652018" stop-color="#6C56F0"/>
</linearGradient>
<linearGradient id="paint40_linear_1_3907" x1="4.21339" y1="53.4852" x2="4.21339" y2="57.061" gradientUnits="userSpaceOnUse">
<stop stop-color="#469FEF"/>
<stop offset="0.258455" stop-color="#5C75F0"/>
<stop offset="0.652018" stop-color="#6C56F0"/>
</linearGradient>
<linearGradient id="paint41_linear_1_3907" x1="20.766" y1="55.6369" x2="20.766" y2="66.3551" gradientUnits="userSpaceOnUse">
<stop stop-color="#469FEF"/>
<stop offset="0.258455" stop-color="#5C75F0"/>
<stop offset="0.652018" stop-color="#6C56F0"/>
</linearGradient>
<linearGradient id="paint42_linear_1_3907" x1="9.58973" y1="25.3127" x2="9.58973" y2="35.1139" gradientUnits="userSpaceOnUse">
<stop stop-color="#469FEF"/>
<stop offset="0.258455" stop-color="#5C75F0"/>
<stop offset="0.652018" stop-color="#6C56F0"/>
</linearGradient>
<linearGradient id="paint43_linear_1_3907" x1="12.1353" y1="27.8598" x2="12.1353" y2="28.9707" gradientUnits="userSpaceOnUse">
<stop stop-color="#469FEF"/>
<stop offset="0.258455" stop-color="#5C75F0"/>
<stop offset="0.652018" stop-color="#6C56F0"/>
</linearGradient>
<linearGradient id="paint44_linear_1_3907" x1="7.30373" y1="30.9125" x2="7.30373" y2="32.3221" gradientUnits="userSpaceOnUse">
<stop stop-color="#469FEF"/>
<stop offset="0.258455" stop-color="#5C75F0"/>
<stop offset="0.652018" stop-color="#6C56F0"/>
</linearGradient>
<linearGradient id="paint45_linear_1_3907" x1="13.0518" y1="25.5775" x2="13.0518" y2="26.5598" gradientUnits="userSpaceOnUse">
<stop stop-color="#469FEF"/>
<stop offset="0.258455" stop-color="#5C75F0"/>
<stop offset="0.652018" stop-color="#6C56F0"/>
</linearGradient>
<linearGradient id="paint46_linear_1_3907" x1="14.5055" y1="29.2208" x2="14.5055" y2="30.147" gradientUnits="userSpaceOnUse">
<stop stop-color="#469FEF"/>
<stop offset="0.258455" stop-color="#5C75F0"/>
<stop offset="0.652018" stop-color="#6C56F0"/>
</linearGradient>
<linearGradient id="paint47_linear_1_3907" x1="4.75437" y1="30.808" x2="4.75437" y2="31.8308" gradientUnits="userSpaceOnUse">
<stop stop-color="#469FEF"/>
<stop offset="0.258455" stop-color="#5C75F0"/>
<stop offset="0.652018" stop-color="#6C56F0"/>
</linearGradient>
<linearGradient id="paint48_linear_1_3907" x1="7.27473" y1="33.8692" x2="7.27473" y2="34.806" gradientUnits="userSpaceOnUse">
<stop stop-color="#469FEF"/>
<stop offset="0.258455" stop-color="#5C75F0"/>
<stop offset="0.652018" stop-color="#6C56F0"/>
</linearGradient>
<linearGradient id="paint49_linear_1_3907" x1="84.7876" y1="23.4312" x2="84.7876" y2="32.7938" gradientUnits="userSpaceOnUse">
<stop stop-color="#469FEF"/>
<stop offset="0.258455" stop-color="#5C75F0"/>
<stop offset="0.652018" stop-color="#6C56F0"/>
</linearGradient>
<linearGradient id="paint50_linear_1_3907" x1="86.5535" y1="25.8964" x2="86.5535" y2="26.9794" gradientUnits="userSpaceOnUse">
<stop stop-color="#469FEF"/>
<stop offset="0.258455" stop-color="#5C75F0"/>
<stop offset="0.652018" stop-color="#6C56F0"/>
</linearGradient>
<linearGradient id="paint51_linear_1_3907" x1="83.0795" y1="29.454" x2="83.0795" y2="30.3877" gradientUnits="userSpaceOnUse">
<stop stop-color="#469FEF"/>
<stop offset="0.258455" stop-color="#5C75F0"/>
<stop offset="0.652018" stop-color="#6C56F0"/>
</linearGradient>
<linearGradient id="paint52_linear_1_3907" x1="88.7163" y1="25.723" x2="88.7163" y2="26.6142" gradientUnits="userSpaceOnUse">
<stop stop-color="#469FEF"/>
<stop offset="0.258455" stop-color="#5C75F0"/>
<stop offset="0.652018" stop-color="#6C56F0"/>
</linearGradient>
<linearGradient id="paint53_linear_1_3907" x1="80.8451" y1="29.075" x2="80.8451" y2="29.8565" gradientUnits="userSpaceOnUse">
<stop stop-color="#469FEF"/>
<stop offset="0.258455" stop-color="#5C75F0"/>
<stop offset="0.652018" stop-color="#6C56F0"/>
</linearGradient>
<linearGradient id="paint54_linear_1_3907" x1="82.8634" y1="31.6727" x2="82.8634" y2="32.5199" gradientUnits="userSpaceOnUse">
<stop stop-color="#469FEF"/>
<stop offset="0.258455" stop-color="#5C75F0"/>
<stop offset="0.652018" stop-color="#6C56F0"/>
</linearGradient>
<linearGradient id="paint55_linear_1_3907" x1="85.1795" y1="28.2767" x2="85.1795" y2="28.5771" gradientUnits="userSpaceOnUse">
<stop stop-color="#469FEF"/>
<stop offset="0.258455" stop-color="#5C75F0"/>
<stop offset="0.652018" stop-color="#6C56F0"/>
</linearGradient>
<linearGradient id="paint56_linear_1_3907" x1="84.5413" y1="27.9666" x2="84.5413" y2="28.2697" gradientUnits="userSpaceOnUse">
<stop stop-color="#469FEF"/>
<stop offset="0.258455" stop-color="#5C75F0"/>
<stop offset="0.652018" stop-color="#6C56F0"/>
</linearGradient>
<linearGradient id="paint57_linear_1_3907" x1="84.8691" y1="27.0425" x2="84.8691" y2="29.4866" gradientUnits="userSpaceOnUse">
<stop stop-color="#469FEF"/>
<stop offset="0.258455" stop-color="#5C75F0"/>
<stop offset="0.652018" stop-color="#6C56F0"/>
</linearGradient>
<linearGradient id="paint58_linear_1_3907" x1="27.6611" y1="11.1321" x2="27.6611" y2="25.4379" gradientUnits="userSpaceOnUse">
<stop stop-color="#469FEF"/>
<stop offset="0.258455" stop-color="#5C75F0"/>
<stop offset="0.652018" stop-color="#6C56F0"/>
</linearGradient>
<linearGradient id="paint59_linear_1_3907" x1="29.7259" y1="14.7407" x2="29.7259" y2="16.3988" gradientUnits="userSpaceOnUse">
<stop stop-color="#469FEF"/>
<stop offset="0.258455" stop-color="#5C75F0"/>
<stop offset="0.652018" stop-color="#6C56F0"/>
</linearGradient>
<linearGradient id="paint60_linear_1_3907" x1="25.3063" y1="20.5431" x2="25.3063" y2="21.9153" gradientUnits="userSpaceOnUse">
<stop stop-color="#469FEF"/>
<stop offset="0.258455" stop-color="#5C75F0"/>
<stop offset="0.652018" stop-color="#6C56F0"/>
</linearGradient>
<linearGradient id="paint61_linear_1_3907" x1="29.7479" y1="11.5134" x2="29.7479" y2="12.7179" gradientUnits="userSpaceOnUse">
<stop stop-color="#469FEF"/>
<stop offset="0.258455" stop-color="#5C75F0"/>
<stop offset="0.652018" stop-color="#6C56F0"/>
</linearGradient>
<linearGradient id="paint62_linear_1_3907" x1="33.0186" y1="15.9696" x2="33.0186" y2="17.2842" gradientUnits="userSpaceOnUse">
<stop stop-color="#469FEF"/>
<stop offset="0.258455" stop-color="#5C75F0"/>
<stop offset="0.652018" stop-color="#6C56F0"/>
</linearGradient>
<linearGradient id="paint63_linear_1_3907" x1="22.2865" y1="21.34" x2="22.2865" y2="22.6536" gradientUnits="userSpaceOnUse">
<stop stop-color="#469FEF"/>
<stop offset="0.258455" stop-color="#5C75F0"/>
<stop offset="0.652018" stop-color="#6C56F0"/>
</linearGradient>
<linearGradient id="paint64_linear_1_3907" x1="26.1294" y1="23.7346" x2="26.1294" y2="25.0289" gradientUnits="userSpaceOnUse">
<stop stop-color="#469FEF"/>
<stop offset="0.258455" stop-color="#5C75F0"/>
<stop offset="0.652018" stop-color="#6C56F0"/>
</linearGradient>
<linearGradient id="paint65_linear_1_3907" x1="28.1558" y1="18.5635" x2="28.1558" y2="18.9789" gradientUnits="userSpaceOnUse">
<stop stop-color="#469FEF"/>
<stop offset="0.258455" stop-color="#5C75F0"/>
<stop offset="0.652018" stop-color="#6C56F0"/>
</linearGradient>
<linearGradient id="paint66_linear_1_3907" x1="27.2493" y1="18.2181" x2="27.2493" y2="18.7708" gradientUnits="userSpaceOnUse">
<stop stop-color="#469FEF"/>
<stop offset="0.258455" stop-color="#5C75F0"/>
<stop offset="0.652018" stop-color="#6C56F0"/>
</linearGradient>
<linearGradient id="paint67_linear_1_3907" x1="27.5166" y1="16.5319" x2="27.5166" y2="20.0848" gradientUnits="userSpaceOnUse">
<stop stop-color="#469FEF"/>
<stop offset="0.258455" stop-color="#5C75F0"/>
<stop offset="0.652018" stop-color="#6C56F0"/>
</linearGradient>
<linearGradient id="paint68_linear_1_3907" x1="75.8189" y1="18.1836" x2="75.8189" y2="23.6597" gradientUnits="userSpaceOnUse">
<stop stop-color="#469FEF"/>
<stop offset="0.258455" stop-color="#5C75F0"/>
<stop offset="0.652018" stop-color="#6C56F0"/>
</linearGradient>
<linearGradient id="paint69_linear_1_3907" x1="75.819" y1="18.441" x2="75.819" y2="23.4025" gradientUnits="userSpaceOnUse">
<stop stop-color="#469FEF"/>
<stop offset="0.258455" stop-color="#5C75F0"/>
<stop offset="0.652018" stop-color="#6C56F0"/>
</linearGradient>
<linearGradient id="paint70_linear_1_3907" x1="75.819" y1="19.1119" x2="75.819" y2="22.7324" gradientUnits="userSpaceOnUse">
<stop stop-color="#469FEF"/>
<stop offset="0.258455" stop-color="#5C75F0"/>
<stop offset="0.652018" stop-color="#6C56F0"/>
</linearGradient>
<linearGradient id="paint71_linear_1_3907" x1="48.7269" y1="11.7703" x2="48.7269" y2="15.7489" gradientUnits="userSpaceOnUse">
<stop stop-color="#469FEF"/>
<stop offset="0.258455" stop-color="#5C75F0"/>
<stop offset="0.652018" stop-color="#6C56F0"/>
</linearGradient>
<linearGradient id="paint72_linear_1_3907" x1="48.7268" y1="11.9572" x2="48.7268" y2="15.5628" gradientUnits="userSpaceOnUse">
<stop stop-color="#469FEF"/>
<stop offset="0.258455" stop-color="#5C75F0"/>
<stop offset="0.652018" stop-color="#6C56F0"/>
</linearGradient>
<linearGradient id="paint73_linear_1_3907" x1="48.7274" y1="12.4446" x2="48.7274" y2="15.0751" gradientUnits="userSpaceOnUse">
<stop stop-color="#469FEF"/>
<stop offset="0.258455" stop-color="#5C75F0"/>
<stop offset="0.652018" stop-color="#6C56F0"/>
</linearGradient>
<linearGradient id="paint74_linear_1_3907" x1="88.3951" y1="35.6897" x2="88.3951" y2="41.1937" gradientUnits="userSpaceOnUse">
<stop stop-color="#469FEF"/>
<stop offset="0.258455" stop-color="#5C75F0"/>
<stop offset="0.652018" stop-color="#6C56F0"/>
</linearGradient>
<linearGradient id="paint75_linear_1_3907" x1="88.3949" y1="35.9484" x2="88.3949" y2="40.9351" gradientUnits="userSpaceOnUse">
<stop stop-color="#469FEF"/>
<stop offset="0.258455" stop-color="#5C75F0"/>
<stop offset="0.652018" stop-color="#6C56F0"/>
</linearGradient>
<linearGradient id="paint76_linear_1_3907" x1="88.3955" y1="36.6228" x2="88.3955" y2="40.2616" gradientUnits="userSpaceOnUse">
<stop stop-color="#469FEF"/>
<stop offset="0.258455" stop-color="#5C75F0"/>
<stop offset="0.652018" stop-color="#6C56F0"/>
</linearGradient>
<linearGradient id="paint77_linear_1_3907" x1="2.70353" y1="38.1831" x2="2.70353" y2="43.6868" gradientUnits="userSpaceOnUse">
<stop stop-color="#469FEF"/>
<stop offset="0.258455" stop-color="#5C75F0"/>
<stop offset="0.652018" stop-color="#6C56F0"/>
</linearGradient>
<linearGradient id="paint78_linear_1_3907" x1="2.70347" y1="38.4417" x2="2.70347" y2="43.4284" gradientUnits="userSpaceOnUse">
<stop stop-color="#469FEF"/>
<stop offset="0.258455" stop-color="#5C75F0"/>
<stop offset="0.652018" stop-color="#6C56F0"/>
</linearGradient>
<linearGradient id="paint79_linear_1_3907" x1="2.70307" y1="39.116" x2="2.70307" y2="42.7548" gradientUnits="userSpaceOnUse">
<stop stop-color="#469FEF"/>
<stop offset="0.258455" stop-color="#5C75F0"/>
<stop offset="0.652018" stop-color="#6C56F0"/>
</linearGradient>
<linearGradient id="paint80_linear_1_3907" x1="43.1225" y1="5.55887" x2="43.1225" y2="11.496" gradientUnits="userSpaceOnUse">
<stop stop-color="#469FEF"/>
<stop offset="0.258455" stop-color="#5C75F0"/>
<stop offset="0.652018" stop-color="#6C56F0"/>
</linearGradient>
<linearGradient id="paint81_linear_1_3907" x1="43.1219" y1="5.83829" x2="43.1219" y2="11.2173" gradientUnits="userSpaceOnUse">
<stop stop-color="#469FEF"/>
<stop offset="0.258455" stop-color="#5C75F0"/>
<stop offset="0.652018" stop-color="#6C56F0"/>
</linearGradient>
<linearGradient id="paint82_linear_1_3907" x1="43.1222" y1="6.56537" x2="43.1222" y2="10.49" gradientUnits="userSpaceOnUse">
<stop stop-color="#469FEF"/>
<stop offset="0.258455" stop-color="#5C75F0"/>
<stop offset="0.652018" stop-color="#6C56F0"/>
</linearGradient>
<linearGradient id="paint83_linear_1_3907" x1="69.0507" y1="33.5608" x2="69.0507" y2="78" gradientUnits="userSpaceOnUse">
<stop stop-color="#469FEF"/>
<stop offset="0.258455" stop-color="#5C75F0"/>
<stop offset="0.652018" stop-color="#6C56F0"/>
</linearGradient>
</defs>
</svg>
