<svg width="24" height="24" viewBox="0 0 24 24" fill="none" xmlns="http://www.w3.org/2000/svg">
<path fill-rule="evenodd" clip-rule="evenodd" d="M14.46 8.28996L12 5.82996L9.53001 8.28996C9.14001 8.67996 8.51001 8.67996 8.12001 8.28996C7.73001 7.89996 7.73001 7.26996 8.12001 6.87996L11.29 3.69996C11.4768 3.5127 11.7305 3.40747 11.995 3.40747C12.2595 3.40747 12.5132 3.5127 12.7 3.69996L15.87 6.87996C16.26 7.26996 16.26 7.89996 15.87 8.28996C15.48 8.67996 14.85 8.67996 14.46 8.28996ZM9.54001 15.71L12 18.17L14.47 15.72C14.6568 15.5327 14.9105 15.4275 15.175 15.4275C15.4395 15.4275 15.6932 15.5327 15.88 15.72C16.27 16.11 16.27 16.74 15.88 17.13L12.71 20.3C12.32 20.69 11.69 20.69 11.3 20.3L8.13001 17.12C7.74001 16.73 7.74001 16.1 8.13001 15.71C8.31685 15.5227 8.5705 15.4175 8.83501 15.4175C9.09953 15.4175 9.35318 15.5227 9.54001 15.71Z" fill="black" fill-opacity="0.54"/>
</svg>
