<svg width="24" height="24" viewBox="0 0 24 24" fill="none" xmlns="http://www.w3.org/2000/svg">
<path d="M3.46957 21.2227C3.78261 21.5357 4.17391 21.6923 4.60435 21.6923C5.03478 21.6923 5.42609 21.5357 5.73913 21.2227L12 14.9618L18.2609 21.2227C18.5739 21.5357 18.9652 21.6923 19.3957 21.6923C19.8261 21.6923 20.2174 21.5357 20.5304 21.2227C21.1565 20.5966 21.1565 19.5792 20.5304 18.9531L14.2696 12.6923L20.5304 6.43139C21.1565 5.8053 21.1565 4.78791 20.5304 4.16183C19.9043 3.53574 18.887 3.53574 18.2609 4.16183L12 10.4227L5.73913 4.16183C5.11304 3.53574 4.09565 3.53574 3.46957 4.16183C2.84348 4.78791 2.84348 5.8053 3.46957 6.43139L9.73043 12.6923L3.46957 18.9531C2.84348 19.5792 2.84348 20.5966 3.46957 21.2227Z" fill="#989898"/>
</svg>
