<svg width="24" height="24" viewBox="0 0 24 24" fill="none" xmlns="http://www.w3.org/2000/svg">
<path d="M12.551 14.5229V16.4679C13.259 16.3479 13.613 16.0409 13.613 15.5459C13.613 15.0189 13.033 14.7439 12.551 14.5229Z" fill="#898989"/>
<path d="M10.473 10.8049C10.473 11.3569 10.972 11.6039 11.481 11.8279V9.99194C10.809 10.0909 10.473 10.3619 10.473 10.8049Z" fill="#898989"/>
<path d="M18 3L15 0L12 3L9 0L6 3L2 0V23C2 23.553 2.448 24 3 24H21C21.552 24 22 23.553 22 23V0L18 3ZM12.551 18.328V19.93H11.481V18.36C10.21 18.334 9.095 18.11 8.137 17.688V15.626C9.037 16.071 10.465 16.461 11.481 16.524V14.102C9.692 13.408 8.122 12.735 8.122 10.805C8.122 9.052 9.73 8.228 11.481 8.055V6.859H12.551V8.023C13.743 8.075 14.822 8.315 15.785 8.742L15.051 10.57C14.239 10.237 13.405 10.034 12.551 9.961V12.266C14.449 12.996 15.965 13.661 15.965 15.43C15.965 17.295 14.416 18.157 12.551 18.328Z" fill="#898989"/>
</svg>
