<svg width="24" height="24" viewBox="0 0 24 24" fill="none" xmlns="http://www.w3.org/2000/svg">
<path d="M12.71 0.300032C12.5184 0.11806 12.2642 0.0166016 12 0.0166016C11.7358 0.0166016 11.4816 0.11806 11.29 0.300032C10.952 0.637032 3 8.71103 3 14C2.98838 15.1852 3.21323 16.3607 3.6614 17.4579C4.10958 18.5551 4.77208 19.5519 5.61013 20.3899C6.44818 21.228 7.44496 21.8905 8.54214 22.3386C9.63932 22.7868 10.8149 23.0117 12 23C13.1851 23.0117 14.3607 22.7868 15.4579 22.3386C16.555 21.8905 17.5518 21.228 18.3899 20.3899C19.2279 19.5519 19.8904 18.5551 20.3386 17.4579C20.7868 16.3607 21.0116 15.1852 21 14C21 8.71103 13.048 0.637032 12.71 0.300032ZM13 18H12C11.4723 18.0088 10.9482 17.9114 10.4589 17.7135C9.96965 17.5156 9.52519 17.2212 9.15199 16.848C8.77879 16.4748 8.48448 16.0304 8.28657 15.5411C8.08867 15.0518 7.99121 14.5277 8 14V13H10V14C10 14.5305 10.2107 15.0392 10.5858 15.4142C10.9609 15.7893 11.4696 16 12 16H13V18Z" fill="#898989"/>
</svg>
