<svg width="24" height="24" viewBox="0 0 24 24" fill="none" xmlns="http://www.w3.org/2000/svg">
<path d="M22 0H2C1.447 0 1 0.448 1 1V23C1 23.552 1.447 24 2 24H22C22.553 24 23 23.552 23 23V1C23 0.448 22.553 0 22 0ZM20 21H4V3H7V6H10C10 4.895 10.895 4 12 4C13.105 4 14 4.895 14 6H17V3H20V21Z" fill="#898989"/>
<path d="M11.0001 17.0001C10.7441 17.0001 10.4881 16.9021 10.2931 16.7071L7.58606 14.0001L9.00006 12.5861L11.0001 14.5861L15.0001 10.5861L16.4141 12.0001L11.7071 16.7071C11.5121 16.9021 11.2561 17.0001 11.0001 17.0001Z" fill="#898989"/>
</svg>
