<svg width="24" height="24" viewBox="0 0 24 24" fill="none" xmlns="http://www.w3.org/2000/svg">
<path d="M21.855 18.4821C20.6697 16.5233 20.0293 14.2834 20 11.9941V8.0061C20 5.88437 19.1571 3.84954 17.6568 2.34925C16.1565 0.848958 14.1217 0.00610352 12 0.00610352C9.87825 0.00610352 7.84342 0.848958 6.34313 2.34925C4.84284 3.84954 3.99999 5.88437 3.99999 8.0061V11.9881C3.9717 14.2794 3.33125 16.5215 2.14499 18.4821C2.05316 18.6337 2.00329 18.8071 2.00049 18.9843C1.99769 19.1616 2.04207 19.3364 2.12907 19.4909C2.21607 19.6453 2.34256 19.7739 2.4956 19.8634C2.64863 19.9528 2.82271 20 2.99999 20.0001H21C21.1773 20 21.3513 19.9528 21.5044 19.8634C21.6574 19.7739 21.7839 19.6453 21.8709 19.4909C21.9579 19.3364 22.0023 19.1616 21.9995 18.9843C21.9967 18.8071 21.9468 18.6337 21.855 18.4821Z" fill="#898989"/>
<path d="M13.007 23.8251C13.4261 23.6758 13.8067 23.4351 14.1213 23.1205C14.4359 22.8059 14.6766 22.4252 14.826 22.0061H9.17395C9.30619 22.3772 9.51022 22.7187 9.77442 23.0109C10.0386 23.3032 10.3578 23.5406 10.7137 23.7095C11.0696 23.8784 11.4554 23.9755 11.8488 23.9954C12.2423 24.0152 12.6358 23.9574 13.007 23.8251Z" fill="#898989"/>
</svg>
