<svg width="24" height="24" viewBox="0 0 24 24" fill="none" xmlns="http://www.w3.org/2000/svg">
<g clip-path="url(#clip0_1_5434)">
<path d="M23.633 10.2261L12.633 1.22609C12.4544 1.08004 12.2307 1.00024 12 1.00024C11.7692 1.00024 11.5456 1.08004 11.367 1.22609L0.366977 10.2261C0.166303 10.3954 0.04027 10.6369 0.0160923 10.8983C-0.00808539 11.1597 0.0715317 11.4202 0.237753 11.6235C0.403973 11.8267 0.643461 11.9564 0.904506 11.9846C1.16555 12.0128 1.42721 11.9372 1.63298 11.7741L2.99998 10.6561V22.0001C2.99998 22.2653 3.10533 22.5197 3.29287 22.7072C3.48041 22.8947 3.73476 23.0001 3.99998 23.0001H9.99998V17.0001H14V23.0001H20C20.2652 23.0001 20.5195 22.8947 20.7071 22.7072C20.8946 22.5197 21 22.2653 21 22.0001V10.6561L22.367 11.7741C22.4683 11.8596 22.5857 11.9241 22.7122 11.9638C22.8387 12.0036 22.9719 12.0178 23.1039 12.0055C23.236 11.9933 23.3643 11.955 23.4814 11.8927C23.5984 11.8305 23.702 11.7455 23.7859 11.6429C23.8699 11.5402 23.9326 11.4219 23.9704 11.2948C24.0082 11.1677 24.0203 11.0343 24.0061 10.9025C23.9918 10.7706 23.9515 10.6429 23.8875 10.5268C23.8234 10.4107 23.7369 10.3085 23.633 10.2261Z" fill="#898989"/>
</g>
<defs>
<clipPath id="clip0_1_5434">
<rect width="24" height="24" fill="white"/>
</clipPath>
</defs>
</svg>
