<svg width="110" height="78" viewBox="0 0 110 78" fill="none" xmlns="http://www.w3.org/2000/svg">
<path opacity="0.3" d="M93.1529 21.7311C86.8956 25.0032 77.1208 28.5056 65.3475 27.2288C47.4788 25.2915 24.9857 21.5424 14.2031 28.5489C14.5598 22.2224 16.1522 16.7277 19.2329 12.6309C23.0073 11.7534 27.8069 11.7175 33.8682 13.2853C47.0029 16.6823 64.0573 20.3932 76.8673 19.7449C81.0004 20.7566 86.1164 21.4728 92.7137 21.7082C92.8623 21.7137 93.0084 21.7208 93.1529 21.7311Z" fill="white"/>
<path opacity="0.3" d="M101.579 40.657C100.798 44.7654 99.2654 48.5691 97.1413 51.9391C92.6177 53.3029 86.5996 53.8045 78.8048 52.0992C59.7604 47.9321 38.8719 48.0075 23.4377 57.0653C23.1706 56.7855 22.909 56.4996 22.6514 56.2096C19.2058 52.3233 16.7198 47.7028 15.3936 42.7278C20.7869 40.1688 34.2949 35.1985 51.7067 39.179C70.0691 43.3761 91.1194 46.7123 101.579 40.657Z" fill="white"/>
<path opacity="0.6" d="M52.5735 78C81.6091 78 105.147 76.2802 105.147 74.1587C105.147 72.0373 81.6091 70.3175 52.5735 70.3175C23.538 70.3175 0 72.0373 0 74.1587C0 76.2802 23.538 78 52.5735 78Z" fill="#D1E3F1"/>
<path d="M97.6655 62.2366C100.476 58.8901 103.214 55.2283 104.742 52.5895C106.739 49.142 107.594 46.3496 107.283 44.2898C107.262 44.1533 107.135 44.0592 106.999 44.08C106.863 44.1008 106.769 44.228 106.79 44.3645C107.333 47.9652 103.983 54.1054 97.0996 62.1366L97.6655 62.2366Z" fill="url(#paint0_linear_1_3505)"/>
<path d="M106.267 49.3675C106.267 49.3675 107.952 50.6003 110 47.5476C110 47.5476 106.886 46.3936 106.267 49.3675Z" fill="url(#paint1_linear_1_3505)"/>
<path d="M105.292 50.9961C105.292 50.9961 106.614 49.3792 103.685 47.1614C103.685 47.1614 102.361 50.2114 105.292 50.9961Z" fill="url(#paint2_linear_1_3505)"/>
<path d="M107.046 45.8934C107.046 45.8934 108.831 44.8108 106.808 41.7417C106.808 41.742 104.545 44.1755 107.046 45.8934Z" fill="url(#paint3_linear_1_3505)"/>
<path d="M103.432 54.3327C103.432 54.3327 104.602 56.0636 107.56 53.8847C107.56 53.885 105.019 51.744 103.432 54.3327Z" fill="url(#paint4_linear_1_3505)"/>
<path d="M102.189 55.8411C102.189 55.8411 103.771 54.4777 101.269 51.7859C101.269 51.7859 99.4382 54.5606 102.189 55.8411Z" fill="url(#paint5_linear_1_3505)"/>
<path d="M100.69 58.076C100.69 58.076 101.827 59.8288 104.826 57.7065C104.826 57.7065 102.326 55.5177 100.69 58.076Z" fill="url(#paint6_linear_1_3505)"/>
<path d="M56.5316 5.44898C53.3851 5.96078 53.0894 9.00394 50.6375 8.62214C48.186 8.24034 46.1194 9.54713 46.2962 11.7332C46.4737 13.92 46.7262 15.5192 44.154 16.1743C41.5819 16.829 39.9606 19.7668 41.7348 21.2414C42.1764 21.6089 42.655 22.0057 43.1248 22.394C43.2533 22.5001 43.381 22.6059 43.5067 22.7099C43.5357 22.7342 43.565 22.7587 43.5939 22.7823C45.4837 24.345 48.264 24.2682 50.0134 22.5496C50.7213 21.8539 51.1826 20.9715 51.0092 19.8814C50.4665 16.4677 53.6175 18.0792 55.2667 16.2998C57.1673 14.2509 55.5941 12.0795 57.1646 10.7099C59.3487 8.80537 59.6782 4.93752 56.5316 5.44898Z" fill="url(#paint7_linear_1_3505)"/>
<path d="M54.7164 9.20418L43.124 22.3943C43.2525 22.5004 43.3802 22.6062 43.5059 22.7102L55.0877 9.53208C55.178 9.42938 55.1681 9.27243 55.0656 9.18201C54.9634 9.09159 54.8067 9.10148 54.7164 9.20418Z" fill="#5655B9"/>
<path d="M45.0678 1.33824C42.6034 3.36292 43.8734 6.1437 41.5612 7.04617C39.2497 7.94865 38.1176 10.1183 39.3665 11.9199C40.6162 13.7217 41.6362 14.9777 39.7403 16.8379C37.844 18.6975 37.9146 22.0535 40.1886 22.4363C40.7545 22.5322 41.3674 22.6346 41.9683 22.7342C42.1325 22.7612 42.2961 22.7888 42.4572 22.8154C42.4943 22.8219 42.5318 22.8284 42.5689 22.8342C44.9864 23.2354 47.3528 21.7707 48.0038 19.4048C48.2672 18.447 48.2239 17.4521 47.5272 16.5967C45.3465 13.9173 48.8794 13.7265 49.4139 11.3583C50.0302 8.63036 47.581 7.54398 48.2529 5.5698C49.1867 2.82416 47.5327 -0.686443 45.0678 1.33824Z" fill="#0890FE"/>
<path d="M45.381 5.49779L41.9688 22.7338C42.133 22.7608 42.2965 22.7884 42.4576 22.8151L45.8668 5.59435C45.8934 5.45992 45.8065 5.32924 45.6723 5.30263C45.5381 5.27601 45.4076 5.36336 45.381 5.49779Z" fill="#3629B7"/>
<path d="M16.0105 48.9048C18.8112 50.4297 18.0853 53.3998 20.5256 53.8512C22.9652 54.3026 24.4843 56.2205 23.5954 58.2251C22.7063 60.23 21.9401 61.6555 24.1511 63.1257C26.3624 64.5953 26.9229 67.9049 24.7612 68.7088C24.2233 68.9094 23.6407 69.1254 23.0691 69.3362C22.913 69.3939 22.7574 69.4516 22.604 69.5079C22.5686 69.5212 22.5332 69.5345 22.4978 69.5471C20.1985 70.3963 17.5998 69.4031 16.5161 67.2017C16.0776 66.3105 15.9335 65.3254 16.4571 64.354C18.0962 61.3119 14.5906 61.7896 13.6213 59.5639C12.5042 57.0008 14.7057 55.4726 13.6755 53.6602C12.2439 51.1397 13.2098 47.38 16.0105 48.9048Z" fill="url(#paint8_linear_1_3505)"/>
<path d="M16.484 53.0498L23.0697 69.3366C22.9137 69.3943 22.758 69.4519 22.6047 69.5082L16.0251 53.236C15.9737 53.1091 16.0346 52.9645 16.1614 52.9129C16.2881 52.8617 16.4325 52.9228 16.484 53.0498Z" fill="#5655B9"/>
<path d="M8.11372 55.328C11.2735 55.7491 11.6565 58.7827 14.0964 58.3302C16.5357 57.8781 18.6394 59.1252 18.5253 61.3154C18.4105 63.5062 18.204 65.1119 20.7939 65.693C23.3837 66.2734 25.0888 69.1633 23.3572 70.6885C22.9265 71.0686 22.4595 71.4791 22.0009 71.8806C21.8755 71.9902 21.7508 72.0997 21.6282 72.2075C21.5999 72.2328 21.5716 72.2577 21.543 72.2822C19.6989 73.8985 16.9176 73.9019 15.1195 72.2341C14.3918 71.5589 13.9053 70.6905 14.0477 69.596C14.4923 66.1679 11.389 67.8695 9.68903 66.1383C7.73046 64.1446 9.24104 61.9289 7.63166 60.6054C5.39407 58.7639 4.95391 54.907 8.11372 55.328Z" fill="#0890FE"/>
<path d="M10.0358 59.0293L22.0012 71.8806C21.8759 71.9902 21.7512 72.0997 21.6285 72.2075L9.67404 59.3678C9.5807 59.2678 9.58615 59.1106 9.68597 59.0174C9.78579 58.9239 9.9425 58.9294 10.0358 59.0293Z" fill="#1C47C1"/>
<path d="M20.9016 22.0637C18.9471 18.1539 17.136 13.9537 16.2632 11.031C15.1233 7.21262 14.9414 4.29741 15.7229 2.3669C15.7747 2.23895 15.9202 2.17719 16.0482 2.22906C16.176 2.28092 16.2377 2.42661 16.1859 2.5549C14.8201 5.92971 16.6489 12.6827 21.4753 22.0988L20.9016 22.0637Z" fill="url(#paint9_linear_1_3505)"/>
<path d="M15.5298 7.54221C15.5298 7.54221 13.6039 8.34778 12.3223 4.90132C12.3223 4.90132 15.6194 4.50553 15.5298 7.54221Z" fill="url(#paint10_linear_1_3505)"/>
<path d="M16.0994 9.35299C16.0994 9.35299 15.1895 7.47196 18.5537 5.99866C18.5537 5.999 19.1318 9.27384 16.0994 9.35299Z" fill="url(#paint11_linear_1_3505)"/>
<path d="M15.5806 3.9818C15.5806 3.9818 14.0963 2.51226 16.7781 0C16.7781 0 18.413 2.8944 15.5806 3.9818Z" fill="url(#paint12_linear_1_3505)"/>
<path d="M17.131 13.0318C17.131 13.0318 15.5908 14.4423 13.2207 11.6332C13.2207 11.6332 16.1897 10.1439 17.131 13.0318Z" fill="url(#paint13_linear_1_3505)"/>
<path d="M17.9907 14.789C17.9907 14.789 16.7694 13.0939 19.829 11.06C19.8287 11.06 20.9635 14.1854 17.9907 14.789Z" fill="url(#paint14_linear_1_3505)"/>
<path d="M18.9274 17.3119C18.9274 17.3119 17.4141 18.751 14.9912 15.9877C14.9912 15.9873 17.9316 14.4424 18.9274 17.3119Z" fill="url(#paint15_linear_1_3505)"/>
<path d="M50.3964 16.5011V70.7727C50.3964 72.4739 49.0197 73.8527 47.3211 73.8527H20.3361C19.4827 73.8527 18.711 73.505 18.1537 72.9431C17.6018 72.3859 17.2607 71.6192 17.2607 70.7727V16.5011C17.2607 14.7999 18.6374 13.4211 20.3361 13.4211H47.3211C47.8232 13.4211 48.2971 13.5415 48.7161 13.7555C49.7137 14.2645 50.3964 15.3028 50.3964 16.5011Z" fill="url(#paint16_linear_1_3505)"/>
<path d="M50.397 16.5011V70.7727C50.397 72.4739 49.0203 73.8527 47.3217 73.8527H20.3367C19.4833 73.8527 18.7117 73.5051 18.1543 72.9431L48.7168 13.7555C49.7143 14.2646 50.397 15.3028 50.397 16.5011Z" fill="url(#paint17_linear_1_3505)"/>
<path d="M17.2616 30.3538H16.7162C16.396 30.3538 16.1367 30.0938 16.1367 29.7735V23.7646C16.1367 23.4439 16.3963 23.1842 16.7162 23.1842H17.2616V30.3538Z" fill="url(#paint18_linear_1_3505)"/>
<path d="M50.3965 28.4779H50.8428C51.1048 28.4779 51.317 28.2654 51.317 28.003V23.1146C51.317 22.8522 51.1048 22.6396 50.8428 22.6396H50.3965V28.4779Z" fill="#343434"/>
<path d="M17.2616 38.4966H16.7162C16.396 38.4966 16.1367 38.2366 16.1367 37.9163V31.9074C16.1367 31.5867 16.3963 31.3267 16.7162 31.3267H17.2616V38.4966Z" fill="url(#paint19_linear_1_3505)"/>
<path d="M18.7949 69.1636V18.1102C18.7949 16.3691 20.2043 14.9575 21.9428 14.9575H45.7148C47.4533 14.9575 48.8627 16.3691 48.8627 18.1102V69.164C48.8627 70.9051 47.4533 72.3163 45.7152 72.3163H21.9425C20.204 72.3163 18.7949 70.9048 18.7949 69.1636Z" fill="white"/>
<path opacity="0.6" d="M43.7772 22.4203H23.8794C23.5783 22.4203 23.334 22.1756 23.334 21.874V20.8463C23.334 20.5447 23.5783 20.3 23.8794 20.3H43.7772C44.0784 20.3 44.3227 20.5447 44.3227 20.8463V21.874C44.3227 22.176 44.0784 22.4203 43.7772 22.4203Z" fill="#D1E3F1"/>
<path opacity="0.6" d="M30.3046 27.4154H21.1342C20.9154 27.4154 20.7383 27.238 20.7383 27.0189V26.2727C20.7383 26.0536 20.9154 25.8762 21.1342 25.8762H30.3046C30.5233 25.8762 30.7005 26.0536 30.7005 26.2727V27.0189C30.7005 27.238 30.5233 27.4154 30.3046 27.4154Z" fill="#D1E3F1"/>
<path opacity="0.6" d="M30.3046 30.3692H21.1342C20.9154 30.3692 20.7383 30.1917 20.7383 29.9727V29.2265C20.7383 29.0074 20.9154 28.83 21.1342 28.83H30.3046C30.5233 28.83 30.7005 29.0074 30.7005 29.2265V29.9727C30.7005 30.1914 30.5233 30.3692 30.3046 30.3692Z" fill="#D1E3F1"/>
<path opacity="0.6" d="M30.3046 33.0735H21.1342C20.9154 33.0735 20.7383 32.8961 20.7383 32.677V31.9308C20.7383 31.7118 20.9154 31.5344 21.1342 31.5344H30.3046C30.5233 31.5344 30.7005 31.7118 30.7005 31.9308V32.677C30.7005 32.8958 30.5233 33.0735 30.3046 33.0735Z" fill="#D1E3F1"/>
<path d="M36.6069 43.9731H30.7012V69.3165H36.6069V43.9731Z" fill="#FFAF2A"/>
<path d="M30.7012 62.632C32.7936 61.9848 34.7553 60.8243 36.6069 59.5769V69.3165H30.7012V62.632Z" fill="#FB6B18"/>
<path d="M26.9536 51.0155H21.0479V69.3168H26.9536V51.0155Z" fill="#FFAF2A"/>
<path d="M25.8607 63.0613C26.2289 63.1149 26.5931 63.1476 26.9539 63.1616V69.3165H21.0479V63.2193C22.0931 62.8747 23.622 62.7337 25.8607 63.0613Z" fill="#FB6B18"/>
<path d="M46.2592 36.4012H40.3535V69.3165H46.2592V36.4012Z" fill="#FFAF2A"/>
<path d="M46.2592 54.4405V69.3164H40.3535V56.966C42.4525 55.5384 44.4086 54.433 46.2592 54.4405Z" fill="#FB6B18"/>
<path d="M46.0385 26.646L40.6639 27.8003L42.1074 29.218L33.8786 37.6197L30.991 34.7829L20.0742 45.9292L21.5126 47.3425L31.0186 37.6367L33.9062 40.4735L43.5458 30.6312L44.9889 32.0489L46.0385 26.646Z" fill="url(#paint20_linear_1_3505)"/>
<path d="M102.33 43.9837C102.11 43.9691 101.888 43.9674 101.665 43.9858C101.219 44.0243 100.769 44.1359 100.349 44.3311C99.9288 44.5256 99.5431 44.8054 99.2174 45.1421C99.1282 45.2346 99.044 45.3322 98.9646 45.4328C98.8754 45.397 98.7858 45.3632 98.6955 45.3298C98.471 45.254 98.2441 45.1824 98.006 45.1332C97.8891 45.1042 97.7671 45.0882 97.6469 45.0674C97.5246 45.0537 97.4026 45.037 97.2783 45.0319C97.2128 45.0275 97.1471 45.0254 97.081 45.0254C96.6466 45.0206 96.1983 45.0913 95.7752 45.2516C95.5319 45.3438 95.2992 45.4663 95.0829 45.6167C94.9746 45.6918 94.8713 45.7747 94.7719 45.8651C94.7225 45.9098 94.6741 45.9583 94.6261 46.0084C94.6022 46.0347 94.5787 46.0596 94.5542 46.0886C94.5422 46.1029 94.5303 46.1169 94.517 46.1326L94.4973 46.1575L94.4707 46.1923L95.3984 46.8601L95.4014 46.8566L95.4168 46.8392C95.4277 46.8273 95.4413 46.813 95.4539 46.8C95.4805 46.7734 95.5088 46.7454 95.5394 46.7195C95.6004 46.6666 95.6655 46.6154 95.7353 46.569C95.874 46.4769 96.0259 46.4011 96.184 46.3408C96.5022 46.222 96.8534 46.178 97.2146 46.1985C97.2858 46.2002 97.3576 46.2087 97.4292 46.2169C97.4489 46.2189 97.4677 46.2213 97.4874 46.223C97.5787 46.2394 97.67 46.2497 97.762 46.2725C97.9457 46.3083 98.1293 46.366 98.3119 46.4261C98.3282 46.4322 98.3449 46.438 98.3613 46.4445C98.1954 46.8229 98.0775 47.2221 98.0077 47.6318C97.9293 48.0942 97.9129 48.5708 97.9811 49.053C98.0175 49.2942 98.0731 49.5371 98.1698 49.7773C98.2172 49.8978 98.2737 50.0168 98.3442 50.1342C98.4144 50.2512 98.4955 50.3662 98.5967 50.4734C98.6968 50.5802 98.8144 50.6798 98.9496 50.761C98.9844 50.7801 99.0174 50.8013 99.0542 50.8183C99.09 50.8347 99.1275 50.8528 99.1629 50.8668C99.2276 50.8903 99.293 50.9125 99.3588 50.9343C99.6259 51.0135 99.9288 51.0428 100.229 50.9855C100.529 50.9299 100.814 50.7873 101.039 50.5918C101.266 50.3969 101.435 50.155 101.552 49.9005C101.784 49.388 101.816 48.8298 101.722 48.3129C101.674 48.0532 101.587 47.8052 101.479 47.5701L101.392 47.3968C101.362 47.3401 101.327 47.2862 101.294 47.2313L101.244 47.1491L101.189 47.0713L101.078 46.916C100.783 46.5462 100.429 46.2394 100.05 45.991C100.023 45.9729 99.9955 45.9555 99.9686 45.9388C99.9431 45.9231 99.9182 45.9057 99.892 45.8904L99.8136 45.8457L99.6559 45.758C99.6487 45.7535 99.6419 45.7498 99.6351 45.746C99.9049 45.3881 100.236 45.0759 100.62 44.8289C100.956 44.6126 101.331 44.4471 101.728 44.3249C101.928 44.2666 102.132 44.2171 102.341 44.1772C102.446 44.1581 102.552 44.138 102.658 44.125C102.765 44.1069 102.872 44.0984 102.98 44.082C102.767 44.0346 102.55 44.0011 102.33 43.9837ZM99.121 46.7758L99.246 46.8427L99.3087 46.8764C99.3295 46.888 99.3482 46.9013 99.3683 46.9136C99.4375 46.9556 99.5053 46.9996 99.571 47.046C99.8099 47.2115 100.022 47.4032 100.199 47.6168L100.279 47.7219L100.318 47.7741L100.353 47.8291C100.377 47.8656 100.402 47.9014 100.423 47.9386L100.484 48.0525C100.559 48.2061 100.621 48.3651 100.655 48.5285C100.725 48.8527 100.708 49.1928 100.59 49.4713C100.531 49.6084 100.451 49.7306 100.355 49.82C100.259 49.9104 100.149 49.9698 100.028 49.9988C99.9056 50.0278 99.7686 50.0243 99.6225 49.9889C99.586 49.9773 99.5492 49.9663 99.5121 49.9561C99.4848 49.9452 99.461 49.936 99.4354 49.922C99.385 49.8954 99.335 49.8578 99.2852 49.8104C99.2362 49.7637 99.1902 49.7036 99.1466 49.6378C99.1029 49.5723 99.0638 49.4989 99.0297 49.4197C98.9595 49.2628 98.9084 49.0864 98.8709 48.9038C98.7997 48.5364 98.7909 48.1419 98.8379 47.7537C98.8781 47.4138 98.9592 47.076 99.0798 46.7543C99.0944 46.7611 99.108 46.7683 99.121 46.7758Z" fill="url(#paint21_linear_1_3505)"/>
<path d="M97.4285 46.2175C97.3567 46.2094 97.2851 46.2008 97.2139 46.1991C96.8528 46.1783 96.5015 46.2227 96.1834 46.3414C96.0249 46.4018 95.8733 46.4775 95.7347 46.5697C95.6652 46.6161 95.5998 46.6673 95.5388 46.7201C95.5085 46.7464 95.4802 46.774 95.4533 46.8007C95.4407 46.8136 95.427 46.828 95.4161 46.8399L95.4008 46.8573L95.3954 46.8638C95.3954 46.8634 95.3964 46.8621 95.3974 46.8604L94.4697 46.1926L94.4963 46.1578L94.5161 46.1329C94.529 46.1172 94.5409 46.1029 94.5532 46.0889C94.5777 46.0603 94.6012 46.035 94.6251 46.0087C94.6731 45.9586 94.7215 45.9101 94.7709 45.8654C94.8704 45.775 94.9736 45.6921 95.0819 45.617C95.2983 45.4666 95.5313 45.3441 95.7742 45.252C96.1973 45.0919 96.6453 45.021 97.08 45.0257C97.2023 45.3601 97.34 45.7876 97.4285 46.2175Z" fill="#5655B9"/>
<path d="M100.049 45.9914C99.7417 46.3158 99.6201 46.7457 99.571 47.0457C99.5053 46.9993 99.4371 46.9552 99.3683 46.9133C99.3482 46.9013 99.3291 46.8877 99.3087 46.8761L99.246 46.8423L99.121 46.7754C99.108 46.7679 99.0944 46.7608 99.0801 46.7536C99.2698 46.1828 99.6344 45.746 99.6344 45.746C99.6408 45.7498 99.648 45.7535 99.6551 45.758L99.8129 45.8457L99.8912 45.8904C99.9175 45.9057 99.9423 45.9231 99.9679 45.9388C99.9948 45.9562 100.022 45.9736 100.049 45.9914Z" fill="#5655B9"/>
<path d="M60.2848 66.0556L59.3653 71.0965L58.7616 74.403C55.7282 75.6122 52.8818 73.6203 52.8818 73.6203V63.5348L60.2848 66.0556Z" fill="url(#paint22_linear_1_3505)"/>
<path d="M52.8818 63.5338L60.2852 66.0549L59.3657 71.0958C56.8409 70.2691 54.5784 68.9384 52.8822 67.7524V63.5338H52.8818Z" fill="url(#paint23_linear_1_3505)"/>
<path d="M85.6748 63.5338V73.6193C85.6748 73.6193 82.8284 75.6113 79.7943 74.4021L79.1998 71.1426L78.2715 66.0549L85.6748 63.5338Z" fill="url(#paint24_linear_1_3505)"/>
<path d="M85.6748 63.5338V68.2164C83.8672 69.5959 81.6251 70.5298 79.1998 71.1426L78.2715 66.0549L85.6748 63.5338Z" fill="url(#paint25_linear_1_3505)"/>
<path d="M96.2946 47.4742C96.2946 49.2071 96.0698 50.894 95.6436 52.5144C95.6436 52.5144 95.6436 52.5154 95.6426 52.5171C93.0118 62.5235 82.7223 69.9879 70.4274 69.9879C58.5189 69.9879 48.4893 62.9831 45.4824 53.4489C45.1816 52.4977 44.9513 51.5208 44.7956 50.5235C44.6403 49.5261 44.5605 48.508 44.5605 47.4742C44.5605 35.0398 56.1423 24.9594 70.4274 24.9594C74.4471 24.9594 78.2535 25.7578 81.6474 27.182C81.6474 27.182 81.6484 27.183 81.6491 27.183C90.315 30.8209 96.2946 38.5395 96.2946 47.4742Z" fill="url(#paint26_linear_1_3505)"/>
<path d="M95.6429 52.5175C93.0122 62.5239 82.7226 69.9883 70.4278 69.9883C58.5193 69.9883 48.4896 62.9835 45.4828 53.4493L45.4824 51.0159C45.4824 51.0159 53.5702 66.3381 70.8843 67.0888C88.0655 67.8336 95.5298 52.7632 95.6429 52.5175Z" fill="#5655B9"/>
<path d="M45.4824 41.6575V53.449H40.3654C39.2128 49.4843 39.1921 45.5526 40.3654 41.6575H45.4824Z" fill="url(#paint27_linear_1_3505)"/>
<path d="M40.3654 53.449C39.2128 49.4843 39.1921 45.5526 40.3654 41.6575C40.3654 41.6575 42.2071 47.4742 40.3654 53.449Z" fill="#5655B9"/>
<path d="M40.5367 47.5783C40.5367 48.662 40.4479 49.5406 40.3386 49.5406C40.2291 49.5406 40.1406 48.662 40.1406 47.5783C40.1406 46.4947 40.2294 45.6161 40.3386 45.6161C40.4479 45.6164 40.5367 46.4947 40.5367 47.5783Z" fill="#0036AC"/>
<path d="M71.7545 54.7223L71.7565 57.1752L68.6451 57.178L68.643 54.8356C66.4364 54.7049 64.2953 54.1102 62.9707 53.2937L64.6441 49.4911C66.1012 50.3516 68.0434 50.9023 69.7428 50.9009C71.2213 50.8995 71.7504 50.5897 71.75 50.0592C71.7483 48.1143 63.2102 49.6914 63.2051 43.923C63.2027 41.4258 65.0104 39.3247 68.6287 38.8132L68.6267 36.4043L71.7381 36.4016L71.7402 38.7661C73.3734 38.9193 74.9623 39.338 76.2208 40.0439L74.6574 43.8244C73.1342 43.0523 71.6996 42.678 70.3536 42.679C68.8311 42.6804 68.346 43.1229 68.3463 43.6531C68.348 45.5096 76.8862 43.9548 76.8913 49.6565C76.8936 52.0436 75.1742 54.1229 71.7545 54.7223Z" fill="#5655B9"/>
<path d="M58.9651 27.467C58.9651 27.467 57.6259 29.5875 54.9464 30.6452C54.2698 30.9127 53.5074 31.112 52.6594 31.1925L50.335 22.8065C50.415 22.8345 56.4727 24.9332 58.9651 27.467Z" fill="url(#paint28_linear_1_3505)"/>
<path d="M54.9464 30.6452C54.2698 30.9127 53.5074 31.112 52.6594 31.1925L50.335 22.8065C50.335 22.8065 50.335 22.8065 50.3356 22.8069C50.3956 22.8628 54.2732 26.9036 54.9464 30.6452Z" fill="#5655B9"/>
<path d="M79.2375 27.2223L79.125 27.8092L78.9305 28.8293C70.5184 26.3918 61.9755 28.5035 61.89 28.525L61.719 27.5028L61.6191 26.9084C61.9789 26.8169 70.5286 24.7001 79.2375 27.2223Z" fill="#0036AC"/>
<path d="M79.1256 27.8092L78.9307 28.83C78.5383 28.7164 78.1448 28.6124 77.7523 28.5175C77.0842 28.3571 76.4182 28.222 75.7587 28.1122C74.8061 27.9518 73.8665 27.8399 72.9511 27.7679C72.9014 27.7641 72.8527 27.7604 72.8033 27.7566C72.3931 27.7256 71.9883 27.7031 71.5901 27.6863C71.5751 27.6863 71.5611 27.6853 71.5461 27.6853C71.0862 27.6666 70.6345 27.658 70.1943 27.6563H70.0257C69.9984 27.6563 69.9712 27.6563 69.9443 27.6573C68.8718 27.6601 67.8647 27.7089 66.9504 27.7812C66.9166 27.7829 66.8839 27.786 66.8512 27.7897C66.5541 27.8133 66.2687 27.8395 65.993 27.8675C65.9723 27.8703 65.9528 27.8723 65.9321 27.874C65.6013 27.9088 65.2875 27.9453 64.9908 27.9839C64.1646 28.09 63.4761 28.2043 62.9589 28.3019C62.2902 28.4268 61.9086 28.5206 61.8909 28.5254L61.7383 27.6161C61.8694 27.5843 62.112 27.526 62.4541 27.4537H62.4551C62.4953 27.4451 62.5375 27.4359 62.5804 27.4264C63.0291 27.3335 63.625 27.2199 64.3424 27.1084C65.0855 26.9941 65.9593 26.8804 66.9337 26.7958C66.9534 26.7938 66.9722 26.7921 66.9916 26.79H66.9926C67.0846 26.7825 67.1779 26.774 67.2726 26.7675C67.4573 26.7525 67.6464 26.7385 67.8385 26.7262C67.8695 26.7245 67.9002 26.7225 67.9312 26.7207C67.9557 26.7187 67.9799 26.718 68.0051 26.716C68.9025 26.6614 69.8683 26.6344 70.8828 26.6501C70.9632 26.6511 71.045 26.6522 71.1264 26.6539C71.5022 26.6624 71.8844 26.6764 72.2721 26.6969C72.5065 26.7092 72.7423 26.7242 72.9804 26.7419C73.2128 26.7586 73.4461 26.7784 73.6822 26.802C73.7326 26.8057 73.7844 26.8112 73.8359 26.817C74.6957 26.9012 75.5774 27.0234 76.4693 27.1885C77.0856 27.3022 77.7077 27.4373 78.3325 27.5956C78.5962 27.6628 78.8606 27.7331 79.1256 27.8092Z" fill="#1C47C1"/>
<path d="M78.3316 27.5962C78.3252 27.6085 78.3177 27.6215 78.3102 27.6338C78.1426 27.9395 77.9552 28.2343 77.7518 28.5175C77.0837 28.3571 76.4177 28.222 75.7581 28.1121C74.8056 27.9517 73.866 27.8398 72.9506 27.7678C72.9009 27.7641 72.8521 27.7603 72.8027 27.7566C72.3926 27.7255 71.9878 27.703 71.5896 27.6863C71.5746 27.6863 71.5606 27.6853 71.5456 27.6853C71.0857 27.6665 70.634 27.658 70.1938 27.6563H70.0252C69.9979 27.6563 69.9707 27.6563 69.9437 27.6573C68.8713 27.66 67.8642 27.7088 66.9498 27.7811C66.9161 27.7829 66.8834 27.7859 66.8507 27.7897C66.5536 27.8132 66.2681 27.8395 65.9925 27.8675C65.9717 27.8702 65.9523 27.8722 65.9315 27.874C65.6007 27.9088 65.287 27.9453 64.9902 27.9838C64.1641 28.0899 63.4756 28.2042 62.9584 28.3018C62.7898 28.0504 62.6341 27.7914 62.49 27.5232V27.5222C62.4787 27.5014 62.4675 27.4809 62.4573 27.4594C62.4563 27.4577 62.4556 27.4556 62.4546 27.4539H62.4535C62.4525 27.4529 62.4525 27.4519 62.4518 27.4512C62.4208 27.3922 62.3908 27.3328 62.3609 27.2728C62.3517 27.254 62.3421 27.2352 62.3329 27.2165C62.3009 27.1506 62.2703 27.0841 62.2403 27.0175C61.7633 25.9724 61.4795 24.8165 61.4356 23.5967C61.4318 23.4851 61.4301 23.3735 61.4308 23.2616C61.4329 18.4343 65.2529 14.4385 70.1093 14.2642C71.3048 14.2219 72.4532 14.4143 73.5117 14.8009C73.5744 14.8244 73.6371 14.848 73.6991 14.8722C73.7103 14.8759 73.7216 14.8807 73.7318 14.8852C73.7917 14.9087 73.8517 14.9329 73.9106 14.9585C73.9464 14.9725 73.9801 14.9875 74.0145 15.0025C74.0173 15.0036 74.0203 15.0053 74.0231 15.0063C74.053 15.0186 74.084 15.0315 74.114 15.0459C74.977 15.4341 75.7684 15.9541 76.4616 16.5816C76.6153 16.7194 76.7632 16.8631 76.9066 17.0112C77.4162 17.5394 77.8622 18.1296 78.2311 18.7704C78.6124 19.432 78.9122 20.1468 79.1173 20.9022C79.2672 21.4539 79.3656 22.0272 79.4075 22.6174C79.4167 22.729 79.4225 22.8409 79.4273 22.9525C79.4866 24.6322 79.0839 26.2215 78.3316 27.5962Z" fill="#FFAF2A"/>
<path opacity="0.5" d="M79.1172 20.9019L77.5902 22.5598L77.5303 22.6256L73.6819 26.8026L72.8033 27.7566C72.3931 27.7255 71.9884 27.703 71.5902 27.6863C71.5752 27.6863 71.5612 27.6853 71.5462 27.6853C71.0863 27.6665 70.6346 27.658 70.1944 27.6563H70.0258C69.9985 27.6563 69.9712 27.6563 69.9443 27.6573L70.023 27.573L70.0653 27.528L70.8833 26.6508L73.6591 23.6738L73.762 23.5629L76.7195 20.3918L76.9245 20.1714L78.2314 18.7708C78.6123 19.4317 78.9121 20.1465 79.1172 20.9019Z" fill="white"/>
<path opacity="0.5" d="M74.1133 15.0459L62.489 27.5225C62.4004 27.3574 62.3169 27.1892 62.2393 27.0179L73.5107 14.8005C73.7151 14.8753 73.9161 14.9568 74.1133 15.0459Z" fill="white"/>
<path opacity="0.5" d="M76.9056 17.0109L75.6726 18.3443L75.3664 18.6756L73.1295 21.0964L72.7837 21.4707L72.7135 21.5468L72.4661 21.8133L71.9923 22.3264L71.7 22.6427L70.3359 24.1184L70.0269 24.4524L69.4985 25.0239L69.2024 25.3447L67.9501 26.6996L67.9303 26.7211L67.6905 26.979L66.9495 27.7812C66.9158 27.7829 66.8831 27.786 66.8504 27.7897C66.5533 27.8133 66.2678 27.8395 65.9922 27.8675L66.9907 26.7903H66.9917L67.3178 26.4386L67.4677 26.2772L68.5309 25.1307L68.7922 24.8493L69.2971 24.305L69.5932 23.985L70.961 22.511L71.2721 22.176L71.8059 21.599L72.0842 21.2998L73.2991 19.9899L73.3608 19.9234L74.8952 18.2692L75.2287 17.9099L76.4606 16.5813C76.6143 16.7191 76.7621 16.8628 76.9056 17.0109Z" fill="white"/>
<path d="M77.6262 23.347C77.6122 24.7561 77.1905 26.0762 76.4692 27.1889C76.2577 27.5154 76.0195 27.8242 75.7593 28.1122C74.8067 27.9518 73.8671 27.8399 72.9517 27.7679C72.902 27.7641 72.8532 27.7604 72.8038 27.7566C72.3937 27.7256 71.9889 27.7031 71.5907 27.6864C71.5757 27.6864 71.5617 27.6853 71.5467 27.6853C71.0868 27.6666 70.6351 27.658 70.1949 27.6563H70.0263C69.999 27.6563 69.9718 27.6563 69.9449 27.6574C68.8724 27.6601 67.8653 27.7089 66.951 27.7812C66.9172 27.7829 66.8845 27.786 66.8518 27.7897C66.5547 27.8133 66.2693 27.8396 65.9936 27.8675C65.9729 27.8703 65.9534 27.8723 65.9327 27.874C65.6019 27.9088 65.2881 27.9453 64.9914 27.9839C64.9474 27.9341 64.9052 27.8836 64.8639 27.8327C64.835 27.7979 64.8067 27.7624 64.7788 27.7266C64.7771 27.7246 64.775 27.7229 64.774 27.7201C64.743 27.6806 64.712 27.6413 64.6824 27.6011C64.6766 27.5946 64.6721 27.5881 64.6674 27.5813C64.6384 27.5427 64.6101 27.5035 64.5822 27.4639C64.5233 27.3823 64.466 27.2998 64.4119 27.2152C64.3884 27.1793 64.3659 27.1438 64.3434 27.108C64.3342 27.0951 64.3257 27.0807 64.3171 27.0667C64.2974 27.035 64.278 27.0019 64.2589 26.9702C64.1213 26.7423 63.9976 26.5058 63.8862 26.2629C63.8654 26.2168 63.845 26.1707 63.8252 26.125C63.8215 26.1175 63.8187 26.109 63.815 26.1015C63.799 26.0639 63.7833 26.0254 63.7683 25.9879C63.7581 25.9636 63.7475 25.9391 63.7383 25.9138C63.7206 25.8698 63.7036 25.8248 63.6869 25.7797C63.6671 25.7292 63.6494 25.6774 63.6317 25.6269C63.6225 25.5986 63.613 25.5706 63.6027 25.5423C63.599 25.532 63.5963 25.5214 63.5932 25.5112C63.5905 25.501 63.5867 25.4914 63.584 25.4812C63.5642 25.4194 63.5445 25.3573 63.5268 25.2945C63.5251 25.2898 63.524 25.2853 63.522 25.2806C63.5033 25.2178 63.4866 25.154 63.4695 25.0891C63.4593 25.0499 63.4488 25.0093 63.4396 24.969C63.4188 24.8865 63.4 24.8029 63.3833 24.7186C63.3769 24.6886 63.3711 24.6575 63.3656 24.6265C63.3571 24.5869 63.3506 24.5477 63.3431 24.5074C63.3394 24.4849 63.3356 24.4624 63.3329 24.4398C63.3264 24.4044 63.3207 24.3696 63.3162 24.3337C63.3115 24.3057 63.3077 24.2764 63.304 24.2474C63.2954 24.1894 63.288 24.13 63.2825 24.071C63.274 24.0017 63.2675 23.9321 63.2617 23.8618C63.2532 23.753 63.2467 23.6421 63.243 23.5316C63.1006 19.561 66.2107 16.2152 70.1752 16.0726C70.8562 16.0484 71.5195 16.1204 72.1508 16.2763C72.3681 16.3299 72.5817 16.3937 72.7906 16.4667H72.7916C73.7002 16.783 74.5267 17.2774 75.2309 17.9096C75.3855 18.0485 75.5334 18.1928 75.6748 18.344C76.1797 18.8817 76.6031 19.4972 76.9254 20.1707C77.2767 20.9053 77.508 21.7096 77.5914 22.5595C77.6064 22.7106 77.6166 22.8625 77.6224 23.0164C77.6252 23.1272 77.6262 23.2371 77.6262 23.347Z" fill="#FA8A00"/>
<path d="M77.6258 23.347C77.6119 24.7561 77.1901 26.0762 76.4689 27.1889C76.2573 27.5154 76.0192 27.8242 75.7589 28.1122C74.8064 27.9518 73.8668 27.8399 72.9514 27.7679C72.9016 27.7641 72.8529 27.7604 72.8035 27.7566C72.3933 27.7256 71.9886 27.7031 71.5903 27.6863C71.5754 27.6863 71.5614 27.6853 71.5464 27.6853C71.0865 27.6665 70.6347 27.658 70.1946 27.6563H70.0259C69.9987 27.6563 69.9714 27.6563 69.9445 27.6573C68.8721 27.6601 67.865 27.7089 66.9506 27.7812C66.9169 27.7829 66.8842 27.786 66.8515 27.7897C66.5544 27.8133 66.2689 27.8395 65.9933 27.8675C65.9725 27.8702 65.9531 27.8723 65.9323 27.874C65.6015 27.9088 65.2877 27.9453 64.991 27.9839C64.9471 27.934 64.9048 27.8835 64.8636 27.8327C64.8346 27.7979 64.8064 27.7624 64.7784 27.7266C64.7767 27.7245 64.7747 27.7228 64.7737 27.7201C64.7427 27.6805 64.7117 27.6413 64.682 27.601C64.6762 27.5946 64.6718 27.5881 64.667 27.5812C64.6381 27.5427 64.6098 27.5035 64.5819 27.4639C64.5229 27.3823 64.4657 27.2998 64.4115 27.2151C64.388 27.1793 64.3655 27.1438 64.343 27.108C64.3338 27.095 64.3253 27.0807 64.3168 27.0667C64.297 27.035 64.2776 27.0019 64.2585 26.9702C64.1209 26.7422 63.9972 26.5058 63.8858 26.2628C63.8651 26.2168 63.8446 26.1707 63.8249 26.125C63.8211 26.1175 63.8184 26.109 63.8146 26.1015C63.7986 26.0639 63.783 26.0254 63.768 25.9878C63.7577 25.9636 63.7472 25.939 63.738 25.9138C63.7203 25.8698 63.7032 25.8247 63.6865 25.7797C63.6668 25.7292 63.6491 25.6773 63.6314 25.6269C63.6222 25.5978 63.6116 25.5695 63.6034 25.5405C63.5997 25.5313 63.5969 25.5207 63.5932 25.5115C63.5905 25.5013 63.5867 25.4917 63.584 25.4815C63.5642 25.4197 63.5445 25.3576 63.5268 25.2949C63.5251 25.2901 63.524 25.2857 63.522 25.2809C63.5033 25.2181 63.4866 25.1543 63.4695 25.0895C63.4593 25.0502 63.4488 25.0096 63.4396 24.9694C63.4188 24.8868 63.4 24.8032 63.3833 24.7189C63.3769 24.6889 63.3711 24.6578 63.3656 24.6268C63.3571 24.5872 63.3506 24.548 63.3431 24.5077C63.3394 24.4852 63.3356 24.4627 63.3329 24.4402C63.3264 24.4047 63.3207 24.3699 63.3162 24.334C63.3115 24.3061 63.3077 24.2767 63.304 24.2477C63.2954 24.1897 63.288 24.1303 63.2825 24.0713C63.274 24.0021 63.2675 23.9325 63.2617 23.8622C63.2992 20.038 66.3449 16.8713 70.1987 16.7335C70.6869 16.7157 71.1645 16.7485 71.6302 16.8246C71.635 16.8256 71.6387 16.8266 71.6432 16.8273C71.6977 16.8365 71.7518 16.8461 71.8063 16.8563C71.8653 16.8676 71.9242 16.8799 71.9825 16.8928C72.0959 16.9164 72.2073 16.9433 72.3187 16.9733H72.3197C72.3235 16.9744 72.3255 16.9754 72.3289 16.9761C73.2658 17.2292 74.1284 17.6684 74.8762 18.2522C74.8837 18.258 74.8902 18.2634 74.8977 18.2689C75.0513 18.3907 75.2002 18.5183 75.3446 18.6517C75.3532 18.6592 75.3607 18.6667 75.3692 18.6752C75.9013 19.1734 76.3585 19.7514 76.721 20.3911C76.75 20.4416 76.7782 20.4935 76.8051 20.545C77.1479 21.1868 77.3962 21.8849 77.5322 22.625C77.5434 22.686 77.5536 22.7468 77.5632 22.8079C77.5901 22.9856 77.6115 23.1658 77.6258 23.347Z" fill="#FB6B18"/>
<path opacity="0.5" d="M77.5602 22.8082L73.8346 26.8173L72.9501 27.7679C72.9004 27.7641 72.8517 27.7604 72.8023 27.7566C72.3921 27.7256 71.9874 27.703 71.5891 27.6863C71.5741 27.6863 71.5602 27.6853 71.5452 27.6853C71.0853 27.6665 70.6335 27.658 70.1934 27.6563L71.1255 26.6542L73.7531 23.8263L73.8298 23.7438L76.8022 20.5453C77.145 21.1871 77.3933 21.8852 77.5292 22.6253C77.5405 22.6864 77.5507 22.7475 77.5602 22.8082Z" fill="#FFCE4F"/>
<path opacity="0.5" d="M72.3277 16.977L63.8239 26.1249C63.733 25.9158 63.6519 25.7005 63.582 25.4818L71.6282 16.8252C71.8647 16.8638 72.0987 16.9149 72.3277 16.977Z" fill="#FFCE4F"/>
<path opacity="0.5" d="M75.3423 18.652L73.1687 20.9909L72.824 21.3605L72.6703 21.5266L72.4213 21.7948L71.9399 22.3127L71.6438 22.6307L70.2723 24.1064L69.9622 24.4405L69.4321 25.011L69.1381 25.3272L67.8848 26.6764L67.8381 26.7262L67.6272 26.9524L66.8508 27.7893C66.5537 27.8129 66.2682 27.8392 65.9926 27.8671C65.9718 27.8699 65.9524 27.8719 65.9316 27.8736L66.9332 26.7954L67.2828 26.4191L67.5076 26.1779L68.4949 25.1147L68.7552 24.8352L69.2584 24.2937L69.5534 23.9764L70.9223 22.5035L71.2343 22.1684L71.7719 21.5894L72.052 21.2881L73.2716 19.9755L73.3888 19.85L74.8745 18.2511C74.882 18.2569 74.8885 18.2624 74.896 18.2678C75.0493 18.391 75.1982 18.5186 75.3423 18.652Z" fill="#FFCE4F"/>
<path d="M73.9957 24.7661C73.9892 24.5924 73.9678 24.4331 73.932 24.2867V24.2857C73.8898 24.1158 73.8298 23.964 73.7532 23.8268C73.7249 23.7732 73.6932 23.7227 73.6574 23.6739C73.2285 23.0567 72.4507 22.7967 71.6995 22.6428C71.6808 22.6391 71.6621 22.6353 71.6433 22.6316C71.4082 22.5848 71.1769 22.5473 70.9603 22.5115C70.9473 22.5094 70.934 22.5077 70.9211 22.505C70.2523 22.3961 69.7369 22.3006 69.7256 21.9833C69.7229 21.9168 69.7369 21.8519 69.7716 21.7929C69.8701 21.622 70.1378 21.4937 70.6877 21.4749C71.0342 21.4626 71.396 21.5001 71.7707 21.5913C71.782 21.594 71.7932 21.5971 71.8055 21.5998C72.0068 21.6503 72.2119 21.7151 72.4211 21.796C72.4361 21.8018 72.4511 21.8083 72.4661 21.8137C72.5785 21.8577 72.6919 21.9065 72.8071 21.9601L73.1294 21.0969L73.1685 20.9918L73.5048 20.0893C73.4476 20.0603 73.3903 20.032 73.3304 20.005C73.3202 20.0002 73.3099 19.9955 73.2987 19.991C73.2895 19.9873 73.2799 19.9825 73.2704 19.9781C72.6885 19.7256 72 19.584 71.2975 19.5427L71.2836 19.1496L71.2563 18.3898L71.2124 18.3918L71.0062 18.3993H70.9896L70.1641 18.4294L70.1361 18.4304L69.7389 18.4444L69.7529 18.8422V18.8432L69.7539 18.8733V18.8743L69.7812 19.6191C69.4159 19.6839 69.0889 19.7815 68.802 19.9061L68.801 19.9071H68.8C68.7785 19.9146 68.7588 19.9238 68.7383 19.9344C67.9711 20.2834 67.4972 20.8314 67.3105 21.4701C67.3041 21.4937 67.2973 21.5169 67.2918 21.5414V21.5425C67.2373 21.7543 67.2141 21.9758 67.2223 22.204C67.2233 22.2313 67.2243 22.2576 67.2271 22.2839C67.2298 22.3327 67.2335 22.3787 67.2393 22.4245V22.4255C67.2404 22.433 67.241 22.4405 67.2421 22.448C67.3937 23.6142 68.3111 24.0619 69.2572 24.2963C69.2701 24.3 69.2834 24.3038 69.2964 24.3065C69.5202 24.3611 69.745 24.4041 69.9614 24.4427C69.9828 24.4464 70.0043 24.4502 70.0261 24.4539C70.638 24.56 71.1681 24.6341 71.3871 24.833C71.4529 24.893 71.491 24.9644 71.4941 25.0517C71.5033 25.3096 71.2505 25.47 70.53 25.4963C70.1048 25.5113 69.6456 25.457 69.2017 25.3462C69.1802 25.3414 69.1587 25.3359 69.1369 25.3294C68.9288 25.2759 68.7247 25.2093 68.5298 25.1326C68.5176 25.1278 68.5053 25.1234 68.4934 25.1176C68.3275 25.051 68.1684 24.977 68.0195 24.8951L67.5061 26.1804L67.4666 26.279L67.3879 26.4759L67.2707 26.7696L67.2669 26.7789C67.3766 26.841 67.4965 26.9 67.6257 26.9542C67.6464 26.9634 67.6679 26.972 67.6894 26.9805C68.3227 27.2385 69.1601 27.4063 70.0155 27.4319C70.0305 27.4329 70.0445 27.4336 70.0595 27.4336L70.0632 27.5292L70.068 27.6578H70.1927C70.6329 27.6598 71.0846 27.668 71.5445 27.6868C71.5595 27.6868 71.5735 27.6878 71.5885 27.6878L71.5755 27.3258C72.1431 27.2057 72.6105 27.004 72.9788 26.744C73.6847 26.2445 74.023 25.5314 73.9957 24.7661Z" fill="#FA8A00"/>
<path d="M73.9318 24.286V24.2849C73.9188 24.085 73.8841 23.9059 73.8296 23.7435C73.8098 23.6807 73.7866 23.6206 73.7601 23.5623C73.4405 22.8481 72.7316 22.5172 71.9913 22.3258C71.9735 22.321 71.9565 22.3166 71.9388 22.3128C71.715 22.2575 71.4881 22.2135 71.2707 22.176C71.2578 22.1739 71.2445 22.1712 71.2322 22.1695C70.5764 22.0579 69.9986 21.9931 69.7707 21.7925C69.706 21.7362 69.6695 21.6686 69.6668 21.5871C69.6576 21.3281 69.8858 21.1039 70.6289 21.0777C71.0796 21.0616 71.5525 21.1312 72.0498 21.2895C72.0611 21.2923 72.0713 21.296 72.0826 21.2998C72.2747 21.3626 72.4696 21.4376 72.6689 21.527C72.6828 21.5335 72.6971 21.54 72.7121 21.5468C72.7244 21.5516 72.7356 21.557 72.7476 21.5628L72.7823 21.4707L72.8225 21.3609L73.3294 20.0042L73.3594 19.9234L73.3867 19.851L73.4456 19.6924C72.831 19.3744 72.0665 19.199 71.2826 19.1482C71.2676 19.1471 71.2537 19.1461 71.2387 19.1454L71.2114 18.39L71.2039 18.1836V18.1669L71.1975 17.9922L70.5427 18.0157L70.5185 18.0168L69.6801 18.0468L69.7101 18.8865L69.7111 18.9175L69.7223 19.2215C69.5969 19.244 69.475 19.2703 69.3588 19.3003H69.3578C69.3438 19.3031 69.3295 19.3068 69.3155 19.3116H69.3145C67.915 19.6821 67.203 20.5809 67.1638 21.6253V21.6263C67.1628 21.644 67.1628 21.6611 67.1628 21.6799C67.1618 21.7222 67.1618 21.7645 67.1638 21.8065C67.1703 21.9791 67.1911 22.1367 67.2265 22.2821C67.2357 22.3234 67.2462 22.3626 67.2585 22.4022V22.4032C67.2602 22.4097 67.2623 22.4145 67.265 22.421V22.422C67.5845 23.4418 68.6018 23.7851 69.5516 23.9775C69.5656 23.9802 69.5789 23.9833 69.5918 23.985C69.8269 24.0318 70.0575 24.0703 70.2712 24.1068C70.2926 24.1106 70.3141 24.1143 70.3349 24.1181C70.9569 24.228 71.4244 24.3368 71.4356 24.6528C71.4383 24.7183 71.4233 24.7783 71.3869 24.8309C71.2857 24.9847 71.0084 25.0786 70.4708 25.0973C70.1577 25.1086 69.8272 25.0823 69.4975 25.0233C69.475 25.0195 69.4525 25.0158 69.431 25.011C69.2147 24.9697 69.0001 24.9151 68.7912 24.8486C68.779 24.8438 68.766 24.8401 68.7538 24.8356C68.4717 24.7435 68.2029 24.6292 67.9603 24.4968L67.2091 26.3799C67.2326 26.3929 67.2568 26.4062 67.2813 26.4191C67.2926 26.4256 67.3048 26.4321 67.3171 26.4379C67.3406 26.4502 67.3638 26.4621 67.3883 26.4734C67.5392 26.5474 67.7048 26.615 67.884 26.6761C67.9055 26.6836 67.9273 26.6911 67.9498 26.6986C67.9675 26.704 67.9852 26.7098 68.0043 26.7153C68.5878 26.9009 69.2897 27.0183 70.0024 27.0353L70.0163 27.4294L70.0218 27.5721L70.0245 27.6557H70.1931C70.6333 27.6577 71.085 27.6659 71.545 27.6847L71.5177 26.9265C71.7923 26.8682 72.0434 26.7914 72.271 26.6965C73.4177 26.2264 73.9723 25.3399 73.9365 24.3689C73.9355 24.3416 73.9335 24.3133 73.9318 24.286Z" fill="#FFAF2A"/>
<path d="M103.149 72.6442C103.15 72.6527 103.15 72.6606 103.15 72.6691C103.15 72.9759 102.986 73.2707 102.685 73.5457C102.612 73.6132 102.53 73.6791 102.44 73.7435C102.189 73.9247 101.878 74.0953 101.513 74.254C101.434 74.2884 101.352 74.3219 101.268 74.355C100.985 74.4666 100.675 74.571 100.341 74.6675C100.261 74.6907 100.179 74.7136 100.096 74.7358C99.8027 74.8142 99.493 74.8869 99.168 74.9531C99.0873 74.9698 99.0058 74.9859 98.923 75.0012C98.6253 75.0579 98.3156 75.1087 97.9957 75.1541C97.9146 75.1657 97.8332 75.1766 97.7508 75.1875C97.4496 75.2267 97.1403 75.2609 96.8234 75.2902C96.7424 75.2974 96.6606 75.3045 96.5785 75.3114C96.2756 75.3363 95.9659 75.3561 95.6512 75.3711C95.5701 75.3748 95.4883 75.3786 95.4062 75.3816C95.1016 75.3932 94.7923 75.4001 94.4789 75.4018C94.4247 75.4021 94.3695 75.4021 94.315 75.4021C94.2881 75.4021 94.2608 75.4021 94.2339 75.4018C93.9205 75.4011 93.6112 75.3953 93.3062 75.3844C93.2241 75.3817 93.1427 75.3782 93.0613 75.3748C92.8293 75.3646 92.6004 75.3513 92.3745 75.3359C92.2937 75.3305 92.2137 75.3243 92.134 75.3182C92.0519 75.3117 91.9704 75.3049 91.889 75.2977C91.5722 75.2701 91.2628 75.2366 90.9617 75.1984C90.8792 75.1879 90.7978 75.1773 90.7167 75.166C90.5249 75.1397 90.3369 75.1111 90.1526 75.0807C90.0299 75.0602 89.909 75.0391 89.7894 75.0172C89.7069 75.0019 89.6252 74.9862 89.5444 74.9702C89.2201 74.9057 88.9101 74.8347 88.6168 74.7583C88.5589 74.7433 88.5016 74.7276 88.4447 74.7122C88.4202 74.7054 88.396 74.6986 88.3718 74.6918C88.2393 74.6546 88.1102 74.616 87.9852 74.5761C87.7957 74.5157 87.6155 74.4529 87.4445 74.3877C87.3607 74.3553 87.2789 74.3229 87.1995 74.2898C86.8868 74.1585 86.6108 74.0182 86.3771 73.8705C86.3414 73.848 86.3059 73.8248 86.2722 73.8019C86.2296 73.7732 86.1887 73.7442 86.1499 73.7149C86.107 73.6832 86.0664 73.6507 86.0276 73.6183C85.674 73.3232 85.4805 73.0035 85.4805 72.6701C85.4805 72.6466 85.4815 72.6234 85.4839 72.5998L85.4849 70.7113L86.0276 70.7106L86.2725 70.7103L87.1999 70.7089L87.4448 70.7086L88.1688 70.7076L88.3725 70.7072L88.6175 70.7069L89.5451 70.7055L89.7901 70.7052L90.7174 70.7038L90.9624 70.7035L91.8897 70.7018L92.1346 70.7014L93.062 70.7001L93.3069 70.6997L94.2346 70.6983L94.4795 70.698L95.4069 70.6966L95.6518 70.6963L96.5792 70.6946L96.8241 70.6943L97.7514 70.6929L97.9964 70.6925L98.9237 70.6912L99.1687 70.6908L100.096 70.6895L100.341 70.6891H100.402L101.269 70.6878L101.514 70.6874L102.441 70.6857L102.686 70.6854L103.147 70.6847L103.149 72.6442Z" fill="#FFAC00"/>
<path d="M86.2726 70.7086V73.8005C86.2301 73.7718 86.1893 73.7429 86.1505 73.7135C86.1076 73.6818 86.0671 73.6494 86.0283 73.6169V70.7092L86.2726 70.7086Z" fill="#FA8A00"/>
<path d="M87.4458 70.7072V74.387C87.3621 74.3546 87.2804 74.3222 87.2012 74.2891V70.7078L87.4458 70.7072Z" fill="#FA8A00"/>
<path d="M88.6187 70.7054V74.7572C88.5608 74.7422 88.5037 74.7265 88.4468 74.7111C88.4223 74.7043 88.3982 74.6975 88.374 74.6907V70.7058L88.6187 70.7054Z" fill="#FA8A00"/>
<path d="M89.7905 70.7037V75.0162C89.7082 75.0008 89.6265 74.9851 89.5459 74.9691V70.7041L89.7905 70.7037Z" fill="#FA8A00"/>
<path d="M90.9624 70.702V75.198C90.8801 75.1874 90.7988 75.1769 90.7178 75.1656V70.7027L90.9624 70.702Z" fill="#FA8A00"/>
<path d="M92.1353 70.7003V75.3178C92.0533 75.3113 91.9719 75.3045 91.8906 75.2973V70.7007L92.1353 70.7003Z" fill="#FA8A00"/>
<path d="M93.3071 70.6986V75.3843C93.2251 75.3816 93.1438 75.3782 93.0625 75.3747V70.6993L93.3071 70.6986Z" fill="#FA8A00"/>
<path d="M94.479 70.6966V75.4011C94.4249 75.4014 94.3698 75.4014 94.3154 75.4014C94.2885 75.4014 94.2613 75.4014 94.2344 75.4011V70.6966H94.479Z" fill="#FA8A00"/>
<path d="M95.6519 70.6952V75.3707C95.5709 75.3744 95.4892 75.3782 95.4072 75.3812V70.6955L95.6519 70.6952Z" fill="#FA8A00"/>
<path d="M96.8237 70.6935V75.2902C96.7428 75.2974 96.6611 75.3045 96.5791 75.3113V70.6939L96.8237 70.6935Z" fill="#FA8A00"/>
<path d="M97.9956 70.6918V75.154C97.9146 75.1656 97.8333 75.1766 97.751 75.1875V70.6918H97.9956Z" fill="#FA8A00"/>
<path d="M99.1685 70.6898V74.9528C99.0878 74.9695 99.0065 74.9855 98.9238 75.0009V70.6902L99.1685 70.6898Z" fill="#FA8A00"/>
<path d="M100.34 70.6881V74.6675C100.26 74.6907 100.179 74.7136 100.096 74.7358V70.6888L100.34 70.6881Z" fill="#FA8A00"/>
<path d="M101.513 70.6867V74.2539C101.434 74.2884 101.353 74.3219 101.269 74.3549V70.6867H101.513Z" fill="#FA8A00"/>
<path d="M102.685 70.6847V73.5453C102.612 73.6129 102.53 73.6787 102.44 73.7432V70.6847H102.685Z" fill="#FA8A00"/>
<path d="M103.147 70.7079C103.147 72.0949 99.1934 73.2198 94.3155 73.2198C93.6491 73.2198 92.9998 73.199 92.3757 73.1591C91.5907 73.1093 90.8453 73.0294 90.1548 72.9243C89.5381 72.8305 88.9655 72.7165 88.4476 72.5855C88.2892 72.5456 88.1359 72.5036 87.9884 72.4606C87.339 72.2709 86.7943 72.0522 86.3807 71.812C86.2996 71.7649 86.2237 71.7175 86.1535 71.669C85.7222 71.3732 85.4844 71.0487 85.4844 70.7086C85.4844 70.6775 85.4868 70.6465 85.4915 70.6154C85.6629 69.2714 89.548 68.1967 94.3155 68.1967C95.4888 68.1967 96.6083 68.2618 97.6324 68.3799C97.8303 68.4027 98.0245 68.4273 98.2149 68.4543C99.0469 68.571 99.8042 68.7235 100.463 68.9053C100.608 68.9452 100.748 68.9869 100.883 69.0295C101.365 69.1817 101.781 69.3503 102.121 69.5328C102.471 69.7208 102.741 69.9228 102.915 70.135C103.042 70.2903 103.119 70.4506 103.14 70.6154C103.145 70.6458 103.147 70.6768 103.147 70.7079Z" fill="#FFCE4F"/>
<path opacity="0.3" d="M102.915 70.1343L92.3752 73.1591C91.5903 73.1092 90.8449 73.0294 90.1543 72.9243L102.12 69.5321C102.471 69.7198 102.74 69.9217 102.915 70.1343Z" fill="white"/>
<path opacity="0.3" d="M98.2148 68.4531L86.3806 71.8112C86.2995 71.7641 86.2235 71.7166 86.1533 71.6682L97.6322 68.379C97.8298 68.4015 98.0243 68.4265 98.2148 68.4531Z" fill="white"/>
<path opacity="0.3" d="M100.883 69.0296L88.4475 72.5859C88.2891 72.546 88.1358 72.504 87.9883 72.461L100.463 68.9054C100.608 68.9453 100.748 68.9866 100.883 69.0296Z" fill="white"/>
<path d="M101.374 70.7084C101.374 70.7391 101.371 70.7702 101.367 70.8006C101.197 71.8651 98.0994 72.716 94.3154 72.716C90.5315 72.716 87.4343 71.8651 87.2637 70.8006C87.2596 70.7698 87.2568 70.7391 87.2568 70.7084C87.2568 69.6016 90.4231 68.7008 94.3154 68.7008C98.2077 68.7008 101.374 69.6016 101.374 70.7084Z" fill="#FA8A00"/>
<path d="M101.367 70.8007C101.197 71.8652 98.0997 72.7162 94.3157 72.7162C94.2309 72.7162 94.1474 72.7155 94.0636 72.7148C93.2198 72.7063 92.413 72.6558 91.6686 72.5698C90.9239 72.4838 90.2425 72.3627 89.6498 72.2139C89.4992 72.1761 89.3544 72.1365 89.2144 72.0952C88.5821 71.9069 88.0758 71.6837 87.7382 71.4367C87.6564 71.3777 87.5846 71.3169 87.5236 71.2552C87.3778 71.1098 87.2902 70.9576 87.2646 70.801C87.435 69.7365 90.5325 68.8852 94.3164 68.8852C94.7951 68.8852 95.2628 68.8988 95.7159 68.9251C95.9466 68.9381 96.1738 68.9548 96.3966 68.9746C97.3055 69.0544 98.1368 69.1851 98.8488 69.3554C99.0025 69.3922 99.1513 69.4308 99.2941 69.4714C99.8487 69.6283 100.312 69.8112 100.66 70.0132C100.999 70.2101 101.227 70.4247 101.324 70.6509C101.345 70.6997 101.359 70.7502 101.367 70.8007Z" fill="#FFAC00"/>
<path opacity="0.2" d="M101.324 70.6495L94.0639 72.7141C93.2201 72.7056 92.4133 72.6551 91.6689 72.5691L100.66 70.0118C100.998 70.2087 101.227 70.4233 101.324 70.6495Z" fill="white"/>
<path opacity="0.2" d="M96.3961 68.9743L87.7381 71.4364C87.6563 71.3774 87.5844 71.3166 87.5234 71.2549L95.7154 68.9248C95.9457 68.9381 96.1733 68.9545 96.3961 68.9743Z" fill="white"/>
<path opacity="0.2" d="M99.2929 69.47L89.6493 72.2129C89.4987 72.175 89.3539 72.1355 89.2139 72.0942L98.8476 69.354C99.0016 69.3909 99.1502 69.4294 99.2929 69.47Z" fill="white"/>
<path d="M95.2968 71.8469V72.1806H93.807V71.8619C92.7506 71.8438 91.7258 71.7626 91.0918 71.6517L91.8948 71.1348C92.5922 71.2522 93.5219 71.3272 94.3354 71.3272C95.0434 71.3272 95.2968 71.2853 95.2968 71.213C95.2968 70.9485 91.2083 71.1618 91.2083 70.3777C91.2083 70.0382 92.0747 69.7526 93.8074 69.6837V69.3561H95.2972V69.6776C96.079 69.6987 96.8398 69.7557 97.4417 69.8519L96.6916 70.3658C95.9625 70.2607 95.276 70.2095 94.6315 70.2095C93.9024 70.2095 93.6701 70.2695 93.6701 70.3415C93.6701 70.594 97.7586 70.3835 97.7586 71.159C97.7586 71.4832 96.9345 71.7657 95.2968 71.8469Z" fill="#FA8A00"/>
<path d="M95.2539 71.7359V72.0696H93.7641V71.751C92.7076 71.7329 91.6828 71.6517 91.0488 71.5404L91.8518 71.0235C92.5492 71.1409 93.4789 71.216 94.2924 71.216C95.0004 71.216 95.2539 71.174 95.2539 71.1017C95.2539 70.8372 91.1653 71.0505 91.1653 70.2664C91.1653 69.9269 92.0317 69.6413 93.7644 69.5721V69.2445H95.2542V69.5659C96.0361 69.5871 96.7968 69.6441 97.3988 69.7403L96.6486 70.2541C95.9195 70.149 95.2327 70.0978 94.5885 70.0978C93.8595 70.0978 93.6271 70.1579 93.6271 70.2299C93.6271 70.4824 97.716 70.2719 97.716 71.0474C97.7156 71.3726 96.8915 71.6551 95.2539 71.7359Z" fill="#FFCE4F"/>
<path d="M103.704 69.5455C103.704 69.554 103.704 69.5618 103.704 69.5704C103.704 69.8771 103.541 70.1719 103.24 70.4469C103.166 70.5145 103.084 70.5803 102.995 70.6448C102.744 70.826 102.432 70.9966 102.068 71.1552C101.989 71.1897 101.907 71.2231 101.823 71.2562C101.54 71.3678 101.23 71.4722 100.896 71.5688C100.816 71.592 100.734 71.6148 100.651 71.637C100.358 71.7158 100.048 71.7882 99.723 71.8544C99.6422 71.8707 99.5608 71.8868 99.478 71.9025C99.1803 71.9591 98.8706 72.0099 98.5507 72.0553C98.4696 72.0669 98.3882 72.0779 98.3058 72.0888C98.0046 72.128 97.6953 72.1625 97.3784 72.1915C97.2973 72.1986 97.2156 72.2058 97.1335 72.2126C96.8306 72.2375 96.5209 72.2573 96.2061 72.2723C96.1251 72.2761 96.0433 72.2798 95.9612 72.2826C95.6566 72.2942 95.3473 72.301 95.0339 72.3027C94.9793 72.303 94.9245 72.303 94.87 72.303C94.8431 72.303 94.8158 72.303 94.7889 72.3027C94.4755 72.302 94.1661 72.2962 93.8612 72.2853C93.7791 72.2826 93.6977 72.2792 93.6163 72.2757C93.3843 72.2655 93.1553 72.2522 92.9295 72.2368C92.8487 72.2314 92.7687 72.2252 92.689 72.2191C92.6068 72.2126 92.5254 72.2058 92.444 72.1986C92.1272 72.171 91.8178 72.1376 91.5167 72.0993C91.4342 72.0888 91.3528 72.0782 91.2717 72.0669C91.0799 72.0403 90.8919 72.012 90.7076 71.9813C90.5849 71.9608 90.464 71.9397 90.3444 71.9178C90.2619 71.9025 90.1802 71.8868 90.0994 71.8707C89.7751 71.8063 89.4651 71.7353 89.1718 71.6589C89.1138 71.6438 89.0566 71.6281 88.9997 71.6128C88.9752 71.606 88.951 71.5991 88.9271 71.5923C88.7946 71.5551 88.6652 71.5166 88.5405 71.4767C88.3511 71.4163 88.1708 71.3535 87.9998 71.2883C87.916 71.2559 87.8342 71.2235 87.7552 71.1904C87.4421 71.059 87.1665 70.9188 86.9328 70.7711C86.897 70.7485 86.8616 70.7253 86.8279 70.7025C86.7853 70.6738 86.7444 70.6448 86.7056 70.6155C86.6626 70.5837 86.6221 70.5513 86.5833 70.5189C86.2296 70.2238 86.0361 69.9037 86.0361 69.5707C86.0361 69.5472 86.0372 69.524 86.0395 69.5004L86.0406 67.6119L86.5833 67.6112L86.8282 67.6109L87.7555 67.6095L88.0002 67.6092L88.7241 67.6081L88.9278 67.6078L89.1728 67.6074L90.1005 67.6061L90.3454 67.6057L91.2727 67.6044L91.5177 67.604L92.445 67.6023L92.69 67.602L93.6173 67.6006L93.8623 67.6003L94.7899 67.5989L95.0349 67.5986L95.9622 67.5972L96.2072 67.5969L97.1345 67.5952L97.3794 67.5948L98.3068 67.5935L98.5517 67.5931L99.4791 67.5918L99.724 67.5914L100.652 67.59L100.897 67.5897H100.957L101.824 67.5883L102.069 67.588L102.996 67.5863L103.241 67.5859L103.702 67.5853L103.704 69.5455Z" fill="#FFAC00"/>
<path d="M86.8283 67.6102V70.7021C86.7858 70.6735 86.7449 70.6445 86.7061 70.6151C86.6633 70.5834 86.6228 70.551 86.584 70.5186V67.6109L86.8283 67.6102Z" fill="#FA8A00"/>
<path d="M88.0002 67.6088V71.2886C87.9165 71.2562 87.8348 71.2238 87.7559 71.1907V67.6094L88.0002 67.6088Z" fill="#FA8A00"/>
<path d="M89.173 67.6067V71.6584C89.1152 71.6434 89.058 71.6277 89.0012 71.6124C88.9767 71.6055 88.9525 71.5987 88.9287 71.5919V67.607L89.173 67.6067Z" fill="#FA8A00"/>
<path d="M90.3452 67.6053V71.9178C90.2629 71.9024 90.1812 71.8867 90.1006 71.8707V67.6057L90.3452 67.6053Z" fill="#FA8A00"/>
<path d="M91.5171 67.6036V72.0996C91.4348 72.0891 91.3534 72.0785 91.2725 72.0672V67.6043L91.5171 67.6036Z" fill="#FA8A00"/>
<path d="M92.689 67.602V72.2195C92.607 72.213 92.5257 72.2061 92.4443 72.199V67.602H92.689Z" fill="#FA8A00"/>
<path d="M93.8618 67.6V72.2857C93.7798 72.283 93.6985 72.2795 93.6172 72.2761V67.6007L93.8618 67.6Z" fill="#FA8A00"/>
<path d="M95.0337 67.5982V72.3027C94.9793 72.303 94.9245 72.303 94.87 72.303C94.8432 72.303 94.8159 72.303 94.7891 72.3027V67.5985L95.0337 67.5982Z" fill="#FA8A00"/>
<path d="M96.2065 67.5969V72.2723C96.1256 72.2761 96.0439 72.2798 95.9619 72.2826V67.5969H96.2065Z" fill="#FA8A00"/>
<path d="M97.3784 67.5948V72.1915C97.2974 72.1987 97.2158 72.2058 97.1338 72.2126V67.5952L97.3784 67.5948Z" fill="#FA8A00"/>
<path d="M98.5503 67.5931V72.0553C98.4693 72.0669 98.388 72.0779 98.3057 72.0888V67.5931H98.5503Z" fill="#FA8A00"/>
<path d="M99.7231 67.5914V71.8544C99.6425 71.8708 99.5612 71.8868 99.4785 71.9025V67.5918L99.7231 67.5914Z" fill="#FA8A00"/>
<path d="M100.895 67.5897V71.5691C100.815 71.5923 100.733 71.6152 100.65 71.6374V67.5904L100.895 67.5897Z" fill="#FA8A00"/>
<path d="M102.068 67.588V71.1553C101.989 71.1897 101.907 71.2232 101.823 71.2563V67.5884L102.068 67.588Z" fill="#FA8A00"/>
<path d="M103.24 67.5863V70.4469C103.166 70.5145 103.085 70.5803 102.995 70.6448V67.5863H103.24Z" fill="#FA8A00"/>
<path d="M103.702 67.6095C103.702 68.9968 99.749 70.1214 94.8712 70.1214C94.2048 70.1214 93.5555 70.1006 92.9313 70.0607C92.1464 70.0109 91.401 69.931 90.7104 69.8259C90.0938 69.7321 89.5211 69.6181 89.0033 69.4871C88.8449 69.4472 88.6915 69.4052 88.544 69.3622C87.8947 69.1725 87.35 68.9538 86.9364 68.7136C86.8553 68.6669 86.7793 68.6191 86.7091 68.5707C86.2778 68.2748 86.04 67.9504 86.04 67.6102C86.04 67.5791 86.0424 67.5481 86.0472 67.517C86.2186 66.173 90.1037 65.0983 94.8712 65.0983C96.0445 65.0983 97.1639 65.1634 98.188 65.2815C98.386 65.3044 98.5802 65.3289 98.7706 65.3559C99.6025 65.4726 100.36 65.6251 101.018 65.8069C101.164 65.8469 101.304 65.8885 101.439 65.9311C101.92 66.0833 102.337 66.2522 102.677 66.4344C103.027 66.6221 103.296 66.8244 103.471 67.0366C103.598 67.1919 103.675 67.3526 103.695 67.517C103.7 67.5471 103.702 67.5784 103.702 67.6095Z" fill="#FFCE4F"/>
<path opacity="0.3" d="M103.47 67.0356L92.9309 70.0603C92.1459 70.0105 91.4005 69.9306 90.71 69.8256L102.676 66.4333C103.026 66.621 103.295 66.8233 103.47 67.0356Z" fill="white"/>
<path opacity="0.3" d="M98.7704 65.3547L86.9362 68.7128C86.8551 68.666 86.7792 68.6183 86.709 68.5698L98.1879 65.2806C98.3855 65.3032 98.58 65.3277 98.7704 65.3547Z" fill="white"/>
<path opacity="0.3" d="M101.439 65.9308L89.0032 69.4871C88.8448 69.4472 88.6915 69.4052 88.5439 69.3622L101.019 65.8066C101.163 65.8468 101.304 65.8881 101.439 65.9308Z" fill="white"/>
<path d="M101.93 67.61C101.93 67.6407 101.927 67.6717 101.923 67.7021C101.753 68.7666 98.6556 69.6176 94.872 69.6176C91.0881 69.6176 87.9906 68.7666 87.8203 67.7021C87.8162 67.6714 87.8135 67.6407 87.8135 67.61C87.8135 66.5028 90.9798 65.6024 94.872 65.6024C98.764 65.6024 101.93 66.5028 101.93 67.61Z" fill="#FA8A00"/>
<path d="M101.923 67.7023C101.752 68.7669 98.655 69.6178 94.8714 69.6178C94.7866 69.6178 94.7031 69.6171 94.6193 69.6165C93.7754 69.6079 92.9687 69.5574 92.2243 69.4715C91.4796 69.3855 90.7982 69.2643 90.2054 69.1152C90.0548 69.0774 89.91 69.0378 89.77 68.9965C89.1377 68.8078 88.6315 68.585 88.2939 68.338C88.2121 68.279 88.1402 68.2182 88.0792 68.1565C87.9334 68.0111 87.8459 67.8589 87.8203 67.7023C87.9907 66.6378 91.0881 65.7865 94.8721 65.7865C95.3507 65.7865 95.8185 65.8001 96.2716 65.8264C96.5019 65.8394 96.7295 65.8561 96.9523 65.8759C97.8612 65.9557 98.6925 66.0864 99.4045 66.2567C99.5581 66.2932 99.707 66.3321 99.8498 66.3727C100.404 66.5296 100.868 66.7125 101.216 66.9145C101.555 67.1114 101.783 67.326 101.88 67.5522C101.9 67.6013 101.915 67.6515 101.923 67.7023Z" fill="#FFAC00"/>
<path opacity="0.2" d="M101.879 67.5508L94.6196 69.6158C93.7757 69.6072 92.969 69.5567 92.2246 69.4707L101.216 66.9135C101.554 67.1103 101.782 67.3249 101.879 67.5508Z" fill="white"/>
<path opacity="0.2" d="M96.9518 65.8755L88.2937 68.3376C88.212 68.2786 88.1401 68.2179 88.0791 68.1561L96.2711 65.826C96.5018 65.8394 96.729 65.8561 96.9518 65.8755Z" fill="white"/>
<path opacity="0.2" d="M99.8486 66.3716L90.2049 69.1145C90.0543 69.0767 89.9096 69.0371 89.7695 68.9958L99.4033 66.2556C99.5569 66.2925 99.7055 66.331 99.8486 66.3716Z" fill="white"/>
<path d="M95.8525 68.7481V69.0818H94.3627V68.7631C93.3062 68.745 92.2815 68.6638 91.6475 68.5526L92.4504 68.0357C93.1478 68.1531 94.0775 68.2281 94.8911 68.2281C95.599 68.2281 95.8525 68.1862 95.8525 68.1138C95.8525 67.8494 91.7636 68.0627 91.7636 67.2786C91.7636 66.9391 92.63 66.6535 94.3627 66.5846V66.257H95.8525V66.5784C96.6343 66.5996 97.3951 66.6566 97.9971 66.7528L97.2469 67.2666C96.5178 67.1615 95.831 67.1104 95.1868 67.1104C94.4577 67.1104 94.2254 67.1704 94.2254 67.2427C94.2254 67.4952 98.3139 67.2847 98.3139 68.0603C98.3142 68.3847 97.4901 68.6673 95.8525 68.7481Z" fill="#FA8A00"/>
<path d="M95.8092 68.6375V68.9712H94.3197V68.6529C93.2633 68.6348 92.2385 68.5536 91.6045 68.4424L92.4075 67.9255C93.1048 68.0428 94.0346 68.1179 94.8481 68.1179C95.556 68.1179 95.8095 68.0759 95.8095 68.0036C95.8095 67.7392 91.721 67.9524 91.721 67.1683C91.721 66.8288 92.5874 66.5433 94.3201 66.4743V66.1468H95.8095V66.4682C96.5914 66.4894 97.3521 66.5463 97.9544 66.6425L97.2043 67.1564C96.4752 67.0513 95.7884 67.0001 95.1442 67.0001C94.4151 67.0001 94.1828 67.0602 94.1828 67.1322C94.1828 67.3847 98.2713 67.1741 98.2713 67.9497C98.2709 68.2738 97.4468 68.5563 95.8092 68.6375Z" fill="#FFCE4F"/>
<path d="M103.623 66.447C103.624 66.4555 103.624 66.4637 103.624 66.4719C103.624 66.7786 103.46 67.0734 103.159 67.3484C103.086 67.416 103.004 67.4819 102.914 67.5463C102.663 67.7275 102.352 67.8981 101.987 68.0568C101.908 68.0912 101.826 68.1247 101.742 68.1578C101.459 68.2693 101.149 68.3738 100.815 68.4703C100.735 68.4935 100.653 68.5164 100.57 68.5386C100.277 68.6174 99.967 68.6897 99.642 68.7559C99.5612 68.7723 99.4798 68.7883 99.397 68.804C99.0993 68.8606 98.7896 68.9115 98.4697 68.9569C98.3886 68.9685 98.3072 68.9794 98.2247 68.9903C97.9236 69.0295 97.6142 69.0637 97.2974 69.093C97.2163 69.1005 97.1346 69.1077 97.0525 69.1142C96.7496 69.1391 96.4399 69.1589 96.1251 69.1735C96.0441 69.1773 95.9623 69.181 95.8802 69.1841C95.5756 69.1957 95.2663 69.2025 94.9528 69.2042C94.8983 69.2046 94.8435 69.2046 94.789 69.2046C94.7621 69.2046 94.7348 69.2046 94.7079 69.2042C94.3945 69.2036 94.0851 69.1977 93.7802 69.1868C93.6981 69.1841 93.6167 69.1807 93.5353 69.1773C93.3033 69.167 93.0743 69.1537 92.8481 69.1384C92.7674 69.1329 92.6873 69.1268 92.6076 69.1206C92.5255 69.1142 92.4441 69.1073 92.3627 69.1002C92.0458 69.0725 91.7365 69.0391 91.4353 69.0009C91.3529 68.9903 91.2714 68.9797 91.1904 68.9681C90.9986 68.9419 90.8105 68.9132 90.6262 68.8825C90.5036 68.862 90.3826 68.8409 90.263 68.819C90.1806 68.8037 90.0988 68.788 90.0181 68.7719C89.6938 68.7074 89.3837 68.6365 89.0904 68.5601C89.0325 68.545 88.9753 68.5297 88.9184 68.514C88.8938 68.5075 88.8696 68.5003 88.8455 68.4935C88.7129 68.4563 88.5838 68.4178 88.4588 68.3779C88.2694 68.3175 88.0892 68.2547 87.9181 68.1895C87.8343 68.1571 87.7526 68.1247 87.6732 68.0916C87.3604 67.9602 87.0845 67.82 86.8508 67.6722C86.815 67.6497 86.7796 67.6269 86.7458 67.6037C86.7033 67.575 86.6624 67.546 86.6235 67.5167C86.5806 67.4849 86.5401 67.4525 86.5012 67.4201C86.1476 67.125 85.9541 66.8053 85.9541 66.4719C85.9541 66.4484 85.9551 66.4252 85.9575 66.4016L85.9585 64.5131L86.5016 64.5124L86.7465 64.5117L87.6739 64.5103L87.9188 64.51L88.6424 64.509L88.8461 64.5086L89.0911 64.5083L90.0188 64.5069L90.2637 64.5066L91.1911 64.5049L91.436 64.5045L92.3633 64.5028L92.6083 64.5025L93.5356 64.5011L93.7806 64.5008L94.7082 64.4994L94.9532 64.4991L95.8805 64.4977L96.1255 64.4974L97.0528 64.496L97.2978 64.4957L98.2251 64.4943L98.47 64.494L99.3974 64.4926L99.6423 64.4923L100.57 64.4909L100.815 64.4902H100.875L101.742 64.4889L101.987 64.4885L102.915 64.4868L103.16 64.4865L103.62 64.4858L103.623 66.447Z" fill="#FFAC00"/>
<path d="M86.7482 64.5113V67.6032C86.7057 67.5746 86.6648 67.5456 86.6261 67.5162C86.5832 67.4845 86.5427 67.4521 86.5039 67.4197V64.512L86.7482 64.5113Z" fill="#FA8A00"/>
<path d="M87.9204 64.5099V68.1897C87.8367 68.1573 87.7551 68.1249 87.6758 68.0918V64.5106L87.9204 64.5099Z" fill="#FA8A00"/>
<path d="M89.0923 64.5082V68.5599C89.0344 68.5449 88.9773 68.5296 88.9205 68.5139C88.896 68.5074 88.8718 68.5002 88.8477 68.4934V64.5085L89.0923 64.5082Z" fill="#FA8A00"/>
<path d="M90.2651 64.5068V68.8193C90.1828 68.8039 90.1011 68.7882 90.0205 68.7722V64.5072L90.2651 64.5068Z" fill="#FA8A00"/>
<path d="M91.437 64.5048V69.0008C91.3547 68.9902 91.2734 68.9797 91.1924 68.9681V64.5052L91.437 64.5048Z" fill="#FA8A00"/>
<path d="M92.6089 64.5031V69.1206C92.5269 69.1141 92.4456 69.1073 92.3643 69.1001V64.5035L92.6089 64.5031Z" fill="#FA8A00"/>
<path d="M93.7817 64.5014V69.1871C93.6997 69.1844 93.6184 69.181 93.5371 69.1775V64.5021L93.7817 64.5014Z" fill="#FA8A00"/>
<path d="M94.9536 64.4997V69.2042C94.8992 69.2045 94.8444 69.2045 94.79 69.2045C94.7631 69.2045 94.7359 69.2045 94.709 69.2042V64.5L94.9536 64.4997Z" fill="#FA8A00"/>
<path d="M96.1265 64.498V69.1734C96.0455 69.1772 95.9638 69.181 95.8818 69.184V64.4983L96.1265 64.498Z" fill="#FA8A00"/>
<path d="M97.2983 64.4963V69.093C97.2174 69.1005 97.1357 69.1077 97.0537 69.1141V64.4967L97.2983 64.4963Z" fill="#FA8A00"/>
<path d="M98.4712 64.4946V68.9568C98.3902 68.9684 98.3089 68.9794 98.2266 68.9903V64.4946H98.4712Z" fill="#FA8A00"/>
<path d="M99.6421 64.4929V68.7559C99.5615 68.7722 99.4801 68.7883 99.3975 68.804V64.4933L99.6421 64.4929Z" fill="#FA8A00"/>
<path d="M100.815 64.4908V68.4703C100.735 68.4935 100.654 68.5163 100.57 68.5385V64.4915L100.815 64.4908Z" fill="#FA8A00"/>
<path d="M101.988 64.4895V68.0567C101.909 68.0912 101.827 68.1246 101.743 68.1577V64.4895H101.988Z" fill="#FA8A00"/>
<path d="M103.16 64.4878V67.3484C103.086 67.416 103.005 67.4818 102.915 67.5463V64.4878H103.16Z" fill="#FA8A00"/>
<path d="M103.622 64.5107C103.622 65.898 99.6683 67.0226 94.7905 67.0226C94.1241 67.0226 93.4747 67.0018 92.8506 66.9619C92.0657 66.9121 91.3203 66.8322 90.6294 66.7272C90.0127 66.6333 89.4404 66.5194 88.9222 66.388C88.7638 66.3481 88.6105 66.3061 88.463 66.2631C87.8137 66.0734 87.2689 65.8547 86.8553 65.6145C86.7742 65.5678 86.6983 65.52 86.6281 65.4715C86.1968 65.1757 85.959 64.8512 85.959 64.5111C85.959 64.48 85.9614 64.449 85.9661 64.4179C86.1375 63.0739 90.0226 61.9991 94.7901 61.9991C95.9634 61.9991 97.0829 62.0643 98.107 62.1824C98.3049 62.2052 98.4991 62.2301 98.6896 62.2568C99.5215 62.3734 100.279 62.526 100.937 62.7078C101.082 62.7477 101.223 62.7894 101.358 62.832C101.839 62.9842 102.255 63.1527 102.595 63.3353C102.946 63.5233 103.215 63.7253 103.39 63.9375C103.517 64.0927 103.594 64.2535 103.614 64.4179C103.62 64.4486 103.622 64.4797 103.622 64.5107Z" fill="#FFCE4F"/>
<path opacity="0.3" d="M103.39 63.9372L92.8511 66.9619C92.0662 66.9121 91.3208 66.8323 90.6299 66.7272L102.596 63.335C102.947 63.5226 103.216 63.7246 103.39 63.9372Z" fill="white"/>
<path opacity="0.3" d="M98.6904 62.2559L86.8561 65.614C86.7751 65.5673 86.6991 65.5195 86.6289 65.4711L98.1078 62.1819C98.3057 62.2044 98.4999 62.2293 98.6904 62.2559Z" fill="white"/>
<path opacity="0.3" d="M101.359 62.8324L88.9231 66.3887C88.7647 66.3488 88.6114 66.3068 88.4639 66.2638L100.939 62.7082C101.083 62.7481 101.224 62.7897 101.359 62.8324Z" fill="white"/>
<path d="M101.849 64.5115C101.849 64.5422 101.846 64.5733 101.842 64.6037C101.672 65.6682 98.5746 66.5191 94.7907 66.5191C91.0067 66.5191 87.9096 65.6682 87.7392 64.6037C87.7352 64.5729 87.7324 64.5422 87.7324 64.5115C87.7324 63.4043 90.8987 62.5039 94.791 62.5039C98.6829 62.5036 101.849 63.4043 101.849 64.5115Z" fill="#FA8A00"/>
<path d="M101.842 64.6038C101.672 65.6684 98.5743 66.5193 94.7903 66.5193C94.7055 66.5193 94.622 66.5186 94.5382 66.518C93.6944 66.5094 92.8876 66.4589 92.1432 66.3729C91.3985 66.287 90.7171 66.1658 90.1244 66.0167C89.9738 65.9789 89.829 65.9393 89.689 65.898C89.0567 65.7093 88.5504 65.4865 88.2128 65.2395C88.131 65.1805 88.0592 65.1194 87.9982 65.058C87.8524 64.9126 87.7648 64.7604 87.7393 64.6038C87.9096 63.5393 91.0071 62.688 94.7907 62.688C95.2693 62.688 95.7371 62.7016 96.1902 62.7279C96.4205 62.7412 96.6481 62.7576 96.8709 62.7774C97.7798 62.8572 98.6111 62.9879 99.3231 63.1582C99.4767 63.1947 99.6253 63.2336 99.7684 63.2742C100.323 63.4311 100.787 63.614 101.134 63.816C101.473 64.0129 101.702 64.2275 101.798 64.4537C101.82 64.5025 101.834 64.553 101.842 64.6038Z" fill="#FFAC00"/>
<path opacity="0.2" d="M101.798 64.4524L94.5386 66.517C93.6947 66.5085 92.8879 66.458 92.1436 66.372L101.134 63.8147C101.473 64.0119 101.702 64.2262 101.798 64.4524Z" fill="white"/>
<path opacity="0.2" d="M96.8707 62.7771L88.2127 65.2395C88.1309 65.1805 88.059 65.1194 87.998 65.058L96.1901 62.728C96.4207 62.7409 96.6483 62.7576 96.8707 62.7771Z" fill="white"/>
<path opacity="0.2" d="M99.7685 63.2732L90.1248 66.0161C89.9743 65.9782 89.8295 65.9386 89.6895 65.8973L99.3232 63.1572C99.4769 63.1937 99.6257 63.2326 99.7685 63.2732Z" fill="white"/>
<path d="M95.7724 65.6497V65.983H94.2826V65.6644C93.2262 65.6463 92.2014 65.5651 91.5674 65.4538L92.3704 64.9369C93.0677 65.0539 93.9975 65.1294 94.811 65.1294C95.5189 65.1294 95.7724 65.0874 95.7724 65.015C95.7724 64.7506 91.6839 64.9639 91.6839 64.1798C91.6839 63.8403 92.5503 63.5547 94.283 63.4854V63.1579H95.7727V63.4793C96.5546 63.5005 97.3154 63.5574 97.9173 63.6537L97.1671 64.1675C96.4381 64.0624 95.7516 64.0112 95.1071 64.0112C94.378 64.0112 94.1457 64.0713 94.1457 64.1436C94.1457 64.3961 98.2345 64.1856 98.2345 64.9608C98.2338 65.286 97.4097 65.5685 95.7724 65.6497Z" fill="#FA8A00"/>
<path d="M95.7291 65.5391V65.8728H94.2396V65.5541C93.1832 65.536 92.1584 65.4548 91.5244 65.3436L92.3274 64.8266C93.0248 64.944 93.9545 65.0191 94.768 65.0191C95.476 65.0191 95.7294 64.9771 95.7294 64.9048C95.7294 64.6404 91.6409 64.8536 91.6409 64.0695C91.6409 63.73 92.5073 63.4444 94.24 63.3755V63.048H95.7294V63.3694C96.5113 63.3905 97.272 63.4475 97.874 63.5437L97.1238 64.0576C96.3948 63.9525 95.708 63.9013 95.0638 63.9013C94.3347 63.9013 94.1024 63.9614 94.1024 64.0334C94.1024 64.2858 98.1912 64.0753 98.1912 64.8509C98.1909 65.1754 97.3668 65.4579 95.7291 65.5391Z" fill="#FFCE4F"/>
<path d="M103.183 63.6757C103.184 63.6839 103.184 63.6921 103.184 63.7007C103.184 64.0074 103.021 64.3022 102.719 64.5772C102.646 64.6448 102.564 64.7106 102.474 64.7751C102.224 64.9563 101.912 65.1269 101.547 65.2855C101.468 65.32 101.386 65.3534 101.302 65.3865C101.019 65.4981 100.709 65.6025 100.375 65.6991C100.295 65.7223 100.213 65.7451 100.13 65.7673C99.8369 65.8458 99.5272 65.9185 99.2022 65.9846C99.1214 66.001 99.04 66.0171 98.9572 66.0328C98.6595 66.0891 98.3498 66.1406 98.0299 66.1856C97.9488 66.1972 97.8674 66.2081 97.785 66.219C97.4838 66.2583 97.1745 66.2924 96.8576 66.3218C96.7765 66.3293 96.6948 66.3364 96.6127 66.3429C96.3098 66.3678 96.0001 66.3876 95.6853 66.4023C95.6043 66.406 95.5225 66.4098 95.4404 66.4129C95.1358 66.4245 94.8265 66.4313 94.5131 66.433C94.4589 66.4333 94.4037 66.4337 94.3492 66.4337C94.3223 66.4337 94.295 66.4337 94.2681 66.4333C93.9547 66.4326 93.6453 66.4268 93.3404 66.4159C93.2583 66.4132 93.1769 66.4098 93.0955 66.4064C92.8635 66.3961 92.6345 66.3828 92.4087 66.3675C92.3279 66.362 92.2479 66.3559 92.1681 66.3497C92.086 66.3432 92.0046 66.3364 91.9232 66.3293C91.6064 66.3016 91.297 66.2682 90.9959 66.23C90.9134 66.2194 90.832 66.2088 90.7509 66.1972C90.5591 66.1709 90.3711 66.1423 90.1868 66.1116C90.0641 66.0911 89.9432 66.0699 89.8236 66.0481C89.7411 66.0328 89.6594 66.0171 89.5786 66.001C89.2543 65.9365 88.9443 65.8656 88.651 65.7891C88.593 65.7741 88.5358 65.7588 88.4789 65.7431C88.4544 65.7366 88.4302 65.7294 88.406 65.7226C88.2735 65.6854 88.1444 65.6469 88.0193 65.6069C87.8299 65.5465 87.6497 65.4838 87.4787 65.4186C87.3945 65.3862 87.3131 65.3538 87.2337 65.3207C86.921 65.1893 86.645 65.0491 86.4113 64.9013C86.3756 64.8788 86.3401 64.856 86.3064 64.8328C86.2638 64.8041 86.2229 64.7751 86.1841 64.7457C86.1412 64.714 86.1006 64.6816 86.0618 64.6492C85.7082 64.3541 85.5146 64.034 85.5146 63.701C85.5146 63.6775 85.5157 63.6542 85.5181 63.6307L85.5187 61.7422L86.0614 61.7415L86.3064 61.7411L87.2337 61.7398L87.4787 61.7391L88.2023 61.7381L88.406 61.7377L88.651 61.7374L89.5786 61.736L89.8236 61.7357L90.7509 61.734L90.9959 61.7336L91.9232 61.7323L92.1681 61.7319L93.0955 61.7306L93.3404 61.7302L94.2681 61.7289L94.5131 61.7285L95.4404 61.7272L95.6853 61.7268L96.6127 61.7251L96.8576 61.7248L97.785 61.7231L98.0299 61.7227L98.9572 61.7214L99.2022 61.721L100.13 61.7196L100.375 61.7193H100.435L101.302 61.7179L101.547 61.7176L102.474 61.7162L102.719 61.7159L103.18 61.7152L103.183 63.6757Z" fill="#FFAC00"/>
<path d="M86.3068 61.7401V64.8321C86.2643 64.8034 86.2234 64.7744 86.1846 64.7451C86.1418 64.7133 86.1013 64.6809 86.0625 64.6485V61.7405L86.3068 61.7401Z" fill="#FA8A00"/>
<path d="M87.48 61.7387V65.4186C87.3959 65.3861 87.3146 65.3537 87.2354 65.3206V61.7394L87.48 61.7387Z" fill="#FA8A00"/>
<path d="M88.6519 61.737V65.7887C88.594 65.7737 88.5369 65.7584 88.48 65.7427C88.4555 65.7362 88.4314 65.729 88.4072 65.7222V61.7373L88.6519 61.737Z" fill="#FA8A00"/>
<path d="M89.8247 61.7353V66.0477C89.7424 66.0324 89.6607 66.0167 89.5801 66.0006V61.7356L89.8247 61.7353Z" fill="#FA8A00"/>
<path d="M90.9966 61.7336V66.2296C90.9142 66.219 90.8329 66.2084 90.752 66.1968V61.7339L90.9966 61.7336Z" fill="#FA8A00"/>
<path d="M92.1685 61.7319V66.3493C92.0865 66.3429 92.0051 66.336 91.9238 66.3289V61.7322L92.1685 61.7319Z" fill="#FA8A00"/>
<path d="M93.3413 61.7302V66.4159C93.2593 66.4132 93.178 66.4098 93.0967 66.4064V61.7309L93.3413 61.7302Z" fill="#FA8A00"/>
<path d="M94.5132 61.7281V66.4326C94.4591 66.433 94.404 66.4333 94.3495 66.4333C94.3227 66.4333 94.2954 66.4333 94.2686 66.433V61.7288L94.5132 61.7281Z" fill="#FA8A00"/>
<path d="M95.6861 61.7268V66.4023C95.6051 66.406 95.5234 66.4098 95.4414 66.4128V61.7272L95.6861 61.7268Z" fill="#FA8A00"/>
<path d="M96.8579 61.7251V66.3217C96.7769 66.3292 96.6953 66.3364 96.6133 66.3429V61.7254L96.8579 61.7251Z" fill="#FA8A00"/>
<path d="M98.0298 61.723V66.1852C97.9488 66.1968 97.8675 66.2078 97.7852 66.2187V61.723H98.0298Z" fill="#FA8A00"/>
<path d="M99.2026 61.7213V65.9843C99.122 66.0006 99.0407 66.0167 98.958 66.0324V61.7217L99.2026 61.7213Z" fill="#FA8A00"/>
<path d="M100.375 61.7197V65.6991C100.295 65.7223 100.213 65.7451 100.13 65.7673V61.7203L100.375 61.7197Z" fill="#FA8A00"/>
<path d="M101.546 61.718V65.2852C101.467 65.3197 101.386 65.3531 101.302 65.3862V61.718H101.546Z" fill="#FA8A00"/>
<path d="M102.719 61.7162V64.5769C102.646 64.6444 102.564 64.7103 102.475 64.7748V61.7162H102.719Z" fill="#FA8A00"/>
<path d="M103.182 61.7395C103.182 63.1265 99.2285 64.2514 94.3507 64.2514C93.6843 64.2514 93.035 64.2306 92.4108 64.1907C91.6259 64.1408 90.8805 64.061 90.1899 63.9559C89.5733 63.8621 89.0006 63.7481 88.4828 63.6168C88.3244 63.5768 88.1711 63.5352 88.0235 63.4919C87.3742 63.3022 86.8295 63.0835 86.4159 62.8433C86.3348 62.7965 86.2588 62.7487 86.1886 62.7003C85.7573 62.4045 85.5195 62.08 85.5195 61.7398C85.5195 61.7088 85.5216 61.6777 85.5267 61.6467C85.698 60.3027 89.5832 59.2279 94.3507 59.2279C95.524 59.2279 96.6434 59.2931 97.6675 59.4111C97.8655 59.434 98.0597 59.4586 98.2501 59.4855C99.082 59.6022 99.8394 59.7547 100.498 59.9366C100.643 59.9765 100.783 60.0181 100.919 60.0608C101.4 60.2129 101.816 60.3818 102.156 60.564C102.506 60.7517 102.776 60.954 102.95 61.1663C103.078 61.3215 103.154 61.4819 103.175 61.6467C103.18 61.6774 103.182 61.7084 103.182 61.7395Z" fill="#FFCE4F"/>
<path opacity="0.3" d="M102.951 61.1659L92.4113 64.1906C91.6264 64.1408 90.881 64.061 90.1904 63.9559L102.157 60.5637C102.507 60.7513 102.776 60.9533 102.951 61.1659Z" fill="white"/>
<path opacity="0.3" d="M98.25 59.4847L86.4157 62.8428C86.3346 62.796 86.2587 62.7483 86.1885 62.6998L97.6674 59.4106C97.8653 59.4332 98.0595 59.4577 98.25 59.4847Z" fill="white"/>
<path opacity="0.3" d="M100.919 60.0611L88.4827 63.6174C88.3243 63.5775 88.171 63.5359 88.0234 63.4925L100.498 59.9369C100.643 59.9768 100.783 60.0181 100.919 60.0611Z" fill="white"/>
<path d="M101.409 61.7399C101.409 61.7706 101.406 61.8017 101.402 61.832C101.232 62.8966 98.1345 63.7475 94.3506 63.7475C90.5666 63.7475 87.4695 62.8966 87.2988 61.832C87.2947 61.8017 87.292 61.7706 87.292 61.7399C87.292 60.6327 90.4583 59.7323 94.3506 59.7323C98.2428 59.7323 101.409 60.6331 101.409 61.7399Z" fill="#FA8A00"/>
<path d="M101.402 61.8323C101.232 62.8968 98.1342 63.7478 94.3502 63.7478C94.2654 63.7478 94.1819 63.7471 94.0981 63.7464C93.2539 63.7379 92.4475 63.6874 91.7028 63.6014C90.9584 63.5154 90.2767 63.3943 89.6839 63.2452C89.5334 63.2073 89.3886 63.1677 89.2485 63.1265C88.6162 62.9378 88.11 62.715 87.7724 62.4679C87.6906 62.4089 87.6187 62.3482 87.5577 62.2864C87.4119 62.1411 87.3244 61.9889 87.2988 61.8323C87.4692 60.7677 90.5666 59.9164 94.3506 59.9164C94.8292 59.9164 95.297 59.9301 95.7501 59.9564C95.9807 59.9697 96.208 59.9861 96.4308 60.0058C97.3397 60.0857 98.171 60.2164 98.883 60.3866C99.0366 60.4235 99.1855 60.462 99.3283 60.5026C99.8829 60.6596 100.347 60.8425 100.694 61.0444C101.033 61.2413 101.262 61.4559 101.358 61.6822C101.379 61.7313 101.394 61.7818 101.402 61.8323Z" fill="#FFAC00"/>
<path opacity="0.2" d="M101.358 61.6811L94.0985 63.7461C93.2542 63.7375 92.4479 63.687 91.7031 63.6011L100.694 61.0438C101.033 61.2403 101.261 61.4549 101.358 61.6811Z" fill="white"/>
<path opacity="0.2" d="M96.4309 60.0059L87.7732 62.468C87.6915 62.409 87.6196 62.3482 87.5586 62.2865L95.7506 59.9564C95.9809 59.9697 96.2081 59.9861 96.4309 60.0059Z" fill="white"/>
<path opacity="0.2" d="M99.329 60.5016L89.6854 63.2445C89.5348 63.2067 89.39 63.1671 89.25 63.1258L98.8838 60.3856C99.0374 60.4225 99.186 60.461 99.329 60.5016Z" fill="white"/>
<path d="M95.332 62.8784V63.2121H93.8422V62.8934C92.7857 62.8754 91.761 62.7942 91.127 62.6829L91.9299 62.166C92.6273 62.283 93.557 62.3584 94.3706 62.3584C95.0785 62.3584 95.332 62.3165 95.332 62.2441C95.332 61.9797 91.2435 62.193 91.2435 61.4089C91.2435 61.0694 92.1098 60.7838 93.8425 60.7149V60.3873H95.3323V60.7087C96.1142 60.7299 96.8749 60.7869 97.4769 60.8831L96.7267 61.3969C95.9977 61.2919 95.3112 61.2407 94.6666 61.2407C93.9376 61.2407 93.7052 61.3007 93.7052 61.3727C93.7052 61.6252 97.7941 61.4147 97.7941 62.1902C97.7937 62.5147 96.9696 62.7972 95.332 62.8784Z" fill="#FA8A00"/>
<path d="M95.289 62.7675V63.1012H93.7992V62.7825C92.7428 62.7645 91.718 62.6832 91.084 62.5724L91.887 62.0554C92.5843 62.1728 93.5141 62.2479 94.3276 62.2479C95.0355 62.2479 95.289 62.2059 95.289 62.1336C95.289 61.8691 91.2005 62.0824 91.2005 61.2983C91.2005 60.9588 92.0668 60.6732 93.7995 60.604V60.2764H95.2893V60.5978C96.0712 60.619 96.832 60.676 97.4339 60.7722L96.6837 61.286C95.9547 61.1809 95.2679 61.1298 94.6237 61.1298C93.8946 61.1298 93.6623 61.1898 93.6623 61.2622C93.6623 61.5146 97.7511 61.3041 97.7511 62.0797C97.7508 62.4041 96.9267 62.6863 95.289 62.7675Z" fill="#FFCE4F"/>
<path d="M27.2271 29.8843L27.6131 31.0673C26.3952 31.7824 23.3229 33.4642 21.9537 33.9682C21.5469 34.1179 20.978 34.3039 20.331 34.5049C20.0844 34.5816 19.8262 34.6611 19.5608 34.741C19.3325 34.8096 19.0991 34.8788 18.8637 34.9484C18.8535 34.9518 18.8426 34.9549 18.8321 34.9576C18.5203 34.9938 18.1248 35.0382 17.6758 35.0846L17.6799 33.1994L18.4195 32.9944L18.8549 32.8739L19.4691 32.704L20.8138 32.3314C21.8202 31.7101 26.2013 30.4255 27.2271 29.8843Z" fill="#FDA893"/>
<path d="M28.958 29.1654C28.9914 29.1528 29.3938 29.0041 29.512 29.1719C29.6357 29.3466 29.4936 29.5227 29.4936 29.5227C29.4936 29.5227 29.7893 29.6895 29.7968 29.8618C29.804 30.0341 29.6636 30.1522 29.6636 30.1522C29.6636 30.1522 29.8534 30.2453 29.8476 30.4084C29.8421 30.5715 29.6186 30.81 29.2875 30.8974C28.9935 30.9748 28.847 30.9124 28.8187 30.8977C28.8153 30.8953 28.8133 30.8943 28.8133 30.8943C28.8133 30.8943 28.7587 30.9148 28.663 30.9465C28.5036 30.9997 28.2297 31.0847 27.9098 31.1563C27.3984 31.271 26.7651 30.5661 26.7188 30.1109C26.7188 30.1109 26.9061 29.5012 27.1211 29.1501C27.3361 28.7993 27.4921 28.7168 27.7524 28.7509C28.0127 28.7853 28.2682 28.8727 28.324 28.8625C28.3803 28.8529 29.7082 28.162 30.0128 28.251C30.3109 28.3384 29.0156 29.1303 28.958 29.1654Z" fill="#FDA893"/>
<path d="M27.5177 29.7797C27.5062 29.7797 27.4942 29.777 27.4833 29.7709C27.4482 29.7517 27.435 29.7077 27.454 29.6725L27.6148 29.3736C27.6244 29.3559 27.6411 29.3426 27.6608 29.3378C27.6806 29.3327 27.7014 29.3364 27.7184 29.3477C27.7215 29.3497 28.0509 29.5629 28.3531 29.4874C28.4454 29.4642 28.5078 29.4256 28.533 29.376C28.5613 29.3197 28.5377 29.2596 28.5374 29.2592C28.5224 29.2223 28.5398 29.18 28.5762 29.1646C28.6127 29.1493 28.6549 29.1657 28.6706 29.2022C28.6757 29.2145 28.7203 29.3241 28.6635 29.4392C28.6185 29.5304 28.5262 29.5939 28.3882 29.6284C28.1116 29.6978 27.8322 29.5762 27.7065 29.5089L27.5811 29.7418C27.5685 29.7657 27.5436 29.7797 27.5177 29.7797Z" fill="#FD896B"/>
<path d="M28.8177 30.8967C28.8143 30.8943 28.8123 30.8933 28.8123 30.8933C28.8123 30.8933 28.7579 30.9137 28.6623 30.9455C28.5353 30.7957 28.5262 30.6162 28.518 30.4651C28.5112 30.334 28.5051 30.2204 28.436 30.1375C28.3645 30.0525 28.3356 29.958 28.3305 29.868C28.324 29.7813 28.3407 29.698 28.3618 29.6308C28.3696 29.6056 28.3778 29.5824 28.386 29.5626C28.4071 29.5104 28.4268 29.4769 28.4295 29.4725C28.4503 29.438 28.4945 29.4264 28.5289 29.4473C28.5632 29.4677 28.5741 29.5121 28.5541 29.5465C28.5537 29.5469 28.5506 29.5523 28.5459 29.5619C28.5251 29.6015 28.4751 29.7124 28.4751 29.8318C28.4751 29.9038 28.4935 29.9792 28.5476 30.044C28.6473 30.1634 28.6558 30.3125 28.6633 30.4565C28.6718 30.621 28.6799 30.7766 28.8177 30.8967Z" fill="#FD896B"/>
<path d="M27.8108 30.3601C27.7836 30.3601 27.7577 30.3448 27.7452 30.3185C27.7281 30.2823 27.7438 30.2389 27.7799 30.2218C27.7843 30.2198 28.2133 30.0114 28.2565 29.6009C28.2606 29.5609 28.2967 29.5319 28.3362 29.5363C28.376 29.5404 28.4046 29.5763 28.4005 29.6163C28.3488 30.1091 27.8622 30.3437 27.8414 30.3533C27.8316 30.3577 27.821 30.3601 27.8108 30.3601Z" fill="#FD896B"/>
<path d="M26.3196 30.2542C23.605 31.1734 21.5558 31.7845 19.4361 32.3038C15.642 33.2336 13.6221 32.6866 13.6221 32.6866L15.0478 35.3105L15.3013 35.7772C15.7176 35.8898 16.2058 35.9 16.7015 35.8526C18.1218 35.7185 19.5997 35.116 19.5997 35.116C23.4899 33.5939 26.0351 32.3734 27.0885 31.6439L26.3196 30.2542Z" fill="#0172D0"/>
<path d="M26.2495 30.0621L25.5957 30.3692L26.4917 32.0895L27.1662 31.7002L26.2495 30.0621Z" fill="#0056C5"/>
<path d="M16.7015 35.853C16.2062 35.9004 15.7176 35.8902 15.3013 35.7776L15.0479 35.3108C15.101 35.0768 15.2362 34.8847 15.4999 34.7816C15.4999 34.7816 15.8348 35.4633 16.7015 35.853Z" fill="#0056C5"/>
<path d="M5.60095 68.6177L4.48828 70.1084C4.48828 70.1084 4.69133 70.7747 5.51543 71.2883L6.84613 69.573L5.60095 68.6177Z" fill="#FDA893"/>
<path d="M5.33036 70.8263C5.33036 70.8263 5.85092 70.714 6.02909 70.8942C6.20727 71.0743 6.65424 73.5265 7.07226 74.0629C7.49027 74.5993 7.06953 74.8845 6.81198 74.993C6.55442 75.1019 2.86621 71.4114 2.86621 71.4114C2.86621 71.4114 3.77787 70.15 4.21769 69.905C4.65751 69.6601 4.86362 70.5666 5.33036 70.8263Z" fill="#FB6B18"/>
<path d="M12.4258 71.177L12.5944 73.0304C12.5944 73.0304 13.1906 73.3894 14.1459 73.2191L13.9892 71.0529L12.4258 71.177Z" fill="#FDA893"/>
<path d="M13.8087 72.9584C13.8087 72.9584 14.1341 72.507 14.3981 72.5224C14.6618 72.5377 16.7185 74.1274 17.4172 74.2512C18.1156 74.3751 17.9878 74.8906 17.8638 75.1551C17.7398 75.4195 12.3322 75.2676 12.3322 75.2676C12.3322 75.2676 12.1329 73.5193 12.3032 73.0219C12.4736 72.5244 13.2657 73.0836 13.8087 72.9584Z" fill="#FB6B18"/>
<path d="M11.3874 51.0596L10.2635 60.3747C10.2635 60.3747 9.25538 61.745 8.29398 63.4981C7.48725 64.9696 5.33789 68.7877 5.33789 68.7877L6.63793 69.7802L13.7585 62.3902L15.654 50.9685L11.3874 51.0596Z" fill="#001030"/>
<path d="M6.95899 69.7567C6.84214 70.0504 6.62376 70.2504 6.36893 70.4182L4.85938 69.1415C4.98611 68.8733 5.15917 68.6416 5.3738 68.442L6.95899 69.7567Z" fill="#0C375A"/>
<path d="M5.6377 51.4444C5.6377 51.4444 7.64294 56.3819 10.2488 60.232C10.2488 60.232 10.6379 63.9791 11.3036 65.9738C11.5948 66.8472 12.1593 70.9853 12.1593 70.9853L14.1363 70.8952L13.6263 59.3896L11.5349 51.0562L5.6377 51.4444Z" fill="#0C375A"/>
<path d="M14.3206 70.8277C14.446 71.172 14.4116 71.5132 14.3206 71.855L12.0326 71.9192C11.9355 71.5899 11.9065 71.2556 11.9379 70.9174L14.3206 70.8277Z" fill="#005986"/>
<path d="M15.9532 50.8034C15.9532 51.2084 15.9522 51.5294 15.9495 51.7461C14.9918 52.0044 14.0345 52.1914 13.0775 52.306C13.0523 52.3091 13.0268 52.3125 13.0012 52.3152C12.9583 52.3207 12.916 52.3255 12.8738 52.3302C12.8632 52.3313 12.853 52.3323 12.8418 52.333C12.6755 52.3514 12.5106 52.3674 12.3437 52.3807C11.5206 52.4486 10.6979 52.4633 9.87478 52.4251C9.80221 52.4217 9.73101 52.4179 9.65845 52.4135C9.5944 52.4101 9.52899 52.4063 9.46392 52.4016C9.43496 52.4002 9.40532 52.3981 9.37602 52.3958C9.32083 52.392 9.267 52.3876 9.21181 52.3838C8.0024 52.2855 6.79332 52.0737 5.58458 51.7458C5.57845 51.2688 5.57266 50.297 5.57062 49.0438C5.57062 48.9752 5.56993 48.9053 5.57062 48.835C5.56925 47.4528 5.57436 45.756 5.59071 44.0087C5.59208 43.8705 5.59344 43.7327 5.59548 43.5938C5.59685 43.4338 5.59855 43.2728 5.60025 43.111C5.60059 43.0841 5.6006 43.0564 5.60128 43.0291C5.6023 42.9916 5.60264 42.9537 5.60332 42.9155C5.60366 42.8398 5.60468 42.7633 5.60639 42.6876C5.60775 42.5767 5.60945 42.4665 5.61116 42.3566C5.61218 42.273 5.61354 42.1894 5.61456 42.1055C5.61695 41.939 5.62001 41.7728 5.6224 41.6073C5.68066 38.1391 5.79785 34.9516 6.02031 34.1405C6.0411 34.0655 6.0629 34.0109 6.08436 33.9785C6.10787 33.9423 6.13751 33.9058 6.17021 33.8683C6.21178 33.8208 6.26015 33.772 6.31398 33.7226C6.68498 33.3807 7.32819 32.9835 7.98059 32.6068C8.05656 32.5628 8.13322 32.5192 8.20851 32.4758C8.22009 32.4697 9.98141 31.8746 9.99231 31.8678L11.8347 31.9971C12.0558 32.1271 13.7987 32.7208 14.0127 32.8542C14.0761 32.8938 14.1384 32.9334 14.1997 32.9726C14.7009 33.2961 15.1271 33.6178 15.3131 33.8911C15.5812 34.2859 15.7433 37.8269 15.837 41.6793C15.8394 41.7684 15.8415 41.8568 15.8438 41.9455C15.8534 42.3532 15.8622 42.763 15.8704 43.1724C15.8786 43.5768 15.8858 43.9801 15.8926 44.3806C15.9031 45.0361 15.913 45.6813 15.9205 46.3026C15.9215 46.3732 15.9219 46.4435 15.9229 46.5135C15.93 47.1194 15.9358 47.7005 15.9403 48.243C15.9406 48.314 15.9413 48.3843 15.9416 48.4539C15.9478 49.2683 15.9518 49.9896 15.9522 50.5686V50.5693C15.9532 50.6509 15.9532 50.728 15.9532 50.8034Z" fill="#0172D0"/>
<path d="M12.5669 37.3788L14.6767 37.256C14.6767 37.256 14.7554 39.8208 13.6325 39.742C12.51 39.6632 12.5669 37.3788 12.5669 37.3788Z" fill="#0890FE"/>
<path d="M7.41408 38.6573C7.41408 38.5655 7.29756 38.5256 7.24203 38.5986C6.50173 39.5754 6.05476 40.6403 5.79073 41.4821C5.72294 41.6984 5.66468 41.9076 5.61392 42.1068C5.6129 42.1904 5.61153 42.2743 5.61051 42.3579C5.60847 42.4678 5.6071 42.578 5.60574 42.6889C5.60438 42.7643 5.60336 42.8407 5.60268 42.9168C5.60233 42.955 5.60165 42.9929 5.60063 43.0304C5.60029 43.0574 5.60029 43.085 5.59961 43.1123C5.66911 42.6906 5.7846 42.1402 5.97436 41.5346C6.23328 40.711 6.67105 39.6693 7.39398 38.7153C7.40726 38.6982 7.41408 38.6781 7.41408 38.6573Z" fill="#0056C5"/>
<path d="M7.78943 48.7241H7.78977C9.77935 48.7152 11.4773 47.8086 12.5515 47.0495C13.7132 46.2286 14.4174 45.3967 14.4242 45.3885C14.4583 45.3479 14.4531 45.2875 14.4126 45.2534C14.3721 45.2193 14.3118 45.2244 14.2777 45.265C14.2709 45.2732 13.5796 46.089 12.4367 46.8959C11.3857 47.6377 9.7262 48.5238 7.78875 48.5323C7.73594 48.5327 7.69336 48.5757 7.69336 48.6286C7.69404 48.6814 7.73663 48.7241 7.78943 48.7241Z" fill="#0056C5"/>
<path d="M9.86269 49.401C11.5889 49.401 13.3107 48.4156 13.3887 48.3703C13.4344 48.3436 13.4501 48.285 13.4238 48.2392C13.3973 48.1935 13.3387 48.1778 13.293 48.2044C13.2729 48.216 11.2472 49.3747 9.45115 49.1885C9.398 49.1823 9.35167 49.2212 9.34622 49.2741C9.34077 49.3266 9.37893 49.3741 9.43139 49.3792C9.57448 49.3942 9.71859 49.401 9.86269 49.401Z" fill="#0056C5"/>
<path d="M12.6682 46.2653L11.761 49.0673L10.4971 46.5594L10.7989 35.6066L10.8105 35.1941L11.3021 35.1248L11.3702 35.6806L12.6682 46.2653Z" fill="white"/>
<path d="M11.3694 35.6812L11.1333 35.9763L10.7988 35.6071L10.8104 35.1941L11.3014 35.1248L11.3694 35.6812Z" fill="white"/>
<path d="M10.1807 34.6117L11.0535 35.5568L11.7682 34.3896L11.1445 33.3243L10.1807 34.6117Z" fill="white"/>
<path d="M9.71921 31.7664L9.4419 31.9643C9.36558 32.0186 9.29131 32.0759 9.22113 32.138C9.00991 32.325 8.93496 32.4539 8.99015 32.7835C8.99867 32.8344 9.00957 32.8784 9.02218 32.9135L9.54989 35.4558L11.1456 33.3247C11.145 33.3243 9.98698 32.9115 9.71921 31.7664Z" fill="#0890FE"/>
<path d="M11.8232 31.8685C11.8232 31.8685 12.5549 32.5625 12.34 33.3902L12.0065 34.796L11.1445 33.324C11.1445 33.324 11.7618 32.9487 11.8232 31.8685Z" fill="#0890FE"/>
<path d="M2.27581 53.7892C2.2305 54.2816 2.82942 54.0144 2.6601 53.0167C2.49112 52.0191 2.97114 51.1156 3.17793 51.1446C3.38541 51.1739 3.00657 52.234 3.19088 52.6162C3.37485 52.9983 3.61264 52.2558 3.84941 51.8055C4.09505 51.3377 4.08074 50.3171 3.96899 49.5894C3.85725 48.8606 5.17535 44.4369 5.18216 43.155L5.34296 42.6115L5.93098 40.6216L6.85149 37.5054C6.85149 37.5054 6.29993 35.1467 5.37021 35.3494C5.37021 35.3494 4.87793 36.9923 4.35192 38.845C4.263 39.1596 4.17272 39.4803 4.0838 39.8C3.70905 41.1433 3.35679 42.4695 3.19326 43.2564C2.7606 45.3339 2.72721 49.6525 2.72721 49.6525C2.72721 49.6525 1.96409 51.2391 1.94603 51.945C1.92627 52.698 2.32078 53.2965 2.27581 53.7892Z" fill="#FDA893"/>
<path d="M6.17569 33.9504C6.15968 33.9859 6.1113 33.8761 6.08269 33.9433C5.97503 34.1924 5.49706 34.8075 5.26097 35.4067C5.23064 35.4831 5.19964 35.5623 5.16796 35.6435C4.82796 36.5187 2.95421 42.2805 2.57129 47.1972L4.397 47.5401C4.97547 44.3229 5.33796 43.3512 5.69363 41.7639C5.87794 41.1457 6.06906 40.552 6.24826 40.0067C6.2486 40.005 6.24928 40.004 6.24996 40.0026C6.32151 39.7846 6.39169 39.5741 6.45846 39.3731C6.45948 39.3694 6.4605 39.366 6.46221 39.3629C6.48537 39.2923 6.50786 39.2227 6.53102 39.1548V39.1541C6.79812 38.3451 7.00525 37.7019 7.06453 37.327C7.22363 36.3173 6.78858 34.3404 6.17569 33.9504Z" fill="#0172D0"/>
<path d="M2.4619 46.8448L2.33789 47.5913L4.50053 47.9318L4.6518 47.1897L2.4619 46.8448Z" fill="#0056C5"/>
<path d="M2.61082 48.0135C2.61082 48.0135 3.80593 47.9248 4.31287 48.2875L4.20692 48.9879C4.20692 48.9879 2.81012 48.8313 2.48409 48.8494C2.48409 48.8498 2.45207 48.1575 2.61082 48.0135Z" fill="#001030"/>
<path d="M3.21315 48.4859C3.21315 48.807 2.99716 49.0674 2.73109 49.0674C2.46501 49.0674 2.24902 48.807 2.24902 48.4859C2.24902 48.1649 2.46501 47.9045 2.73109 47.9045C2.99716 47.9045 3.21315 48.1649 3.21315 48.4859Z" fill="#0C375A"/>
<path d="M3.00118 48.4658C3.00118 48.7008 2.84365 48.8914 2.64903 48.8914C2.45441 48.8914 2.29688 48.7008 2.29688 48.4658C2.29688 48.2309 2.45441 48.0403 2.64903 48.0403C2.84365 48.0399 3.00118 48.2305 3.00118 48.4658Z" fill="#005986"/>
<path d="M8.07812 27.1479C8.07812 28.7499 9.06269 29.8537 10.6622 29.8537C12.2617 29.8537 13.3764 28.6666 13.3764 27.065C13.3764 25.4634 12.4293 24.2495 10.8298 24.2495C8.91177 24.2495 8.07812 25.546 8.07812 27.1479Z" fill="#0C375A"/>
<path d="M8.07871 27.1479C8.07871 27.1479 8.26507 25.9377 8.07871 25.3123C7.89236 24.6868 8.08723 24.6155 8.50082 24.5019C8.9144 24.3883 8.75837 23.8765 9.15561 23.7769C9.63767 23.6561 9.81142 23.9618 10.179 23.5066C10.5466 23.0518 10.8873 23.0273 11.2423 23.1839C11.6835 23.3787 11.8075 23.2071 12.3778 23.1228C12.9545 23.0375 13.376 23.4213 13.4727 23.8195C13.5695 24.2177 13.178 24.5589 13.3402 24.8431C13.5027 25.1273 13.5201 26.0472 13.0864 26.3785C12.653 26.7095 8.07871 27.1479 8.07871 27.1479Z" fill="#0C375A"/>
<path d="M8.4385 27.8375C8.4385 27.8375 7.99426 27.2442 7.6638 27.7348C7.33333 28.2255 7.80041 29.6749 8.60953 29.3211L8.4385 27.8375Z" fill="#FD896B"/>
<path d="M8.43218 28.8743C8.40224 28.8743 8.37502 28.8545 8.36651 28.8241C8.2413 28.3764 7.77891 28.1947 7.77449 28.193C7.73944 28.1793 7.72141 28.14 7.73502 28.1045C7.74829 28.0693 7.78775 28.0512 7.8228 28.0646C7.84423 28.0728 8.35392 28.2712 8.49819 28.7869C8.50839 28.8235 8.4873 28.861 8.45089 28.8713C8.44443 28.8737 8.4383 28.8743 8.43218 28.8743Z" fill="#D65C48"/>
<path d="M7.96549 28.6489C7.9529 28.6489 7.93998 28.6455 7.92875 28.638C7.89711 28.6175 7.88792 28.5751 7.90833 28.5434C7.91174 28.5379 7.99339 28.4129 8.16454 28.3361C8.1989 28.3204 8.23939 28.3361 8.2547 28.3706C8.27001 28.4051 8.2547 28.4457 8.22034 28.4611C8.08798 28.5205 8.02368 28.6165 8.023 28.6175C8.00973 28.6376 7.98795 28.6489 7.96549 28.6489Z" fill="#D65C48"/>
<path d="M13.0177 27.8375C13.0177 27.8375 13.4619 27.2442 13.7924 27.7348C14.1229 28.2255 13.6558 29.6749 12.8467 29.3211L13.0177 27.8375Z" fill="#FD896B"/>
<path d="M13.0227 28.8743C13.0526 28.8743 13.0798 28.8545 13.0883 28.8241C13.2136 28.3764 13.6759 28.1947 13.6804 28.193C13.7154 28.1793 13.7331 28.14 13.7198 28.1045C13.7066 28.0693 13.6671 28.0512 13.6321 28.0646C13.6103 28.0728 13.1009 28.2712 12.9567 28.7869C12.9465 28.8235 12.9676 28.861 13.004 28.8713C13.0104 28.8737 13.0166 28.8743 13.0227 28.8743Z" fill="#D65C48"/>
<path d="M13.4895 28.6489C13.5021 28.6489 13.515 28.6455 13.5262 28.638C13.5579 28.6175 13.5671 28.5751 13.5466 28.5434C13.5432 28.5379 13.4616 28.4129 13.2904 28.3361C13.2561 28.3204 13.2156 28.3361 13.2003 28.3706C13.185 28.4051 13.2003 28.4457 13.2346 28.4611C13.367 28.5205 13.4313 28.6165 13.432 28.6175C13.4452 28.6376 13.467 28.6489 13.4895 28.6489Z" fill="#D65C48"/>
<path d="M11.8222 30.5504V31.9916C11.8222 31.9916 12.016 33.3408 10.9207 33.3326C10.3388 33.3281 9.71777 32.1435 9.71777 32.1435V30.6518L11.8222 30.5504Z" fill="#FDA893"/>
<path d="M11.8222 30.5504V31.1898C11.4328 31.6228 10.7412 31.7306 9.71777 31.5795V30.6518L11.8222 30.5504Z" fill="#FD896B"/>
<path d="M13.3384 26.8487C13.3118 27.4086 13.2583 28.1091 13.1517 28.6693C13.1251 28.8089 13.0948 28.9406 13.0614 29.0583C12.7585 30.1201 12.0012 31.9414 9.88046 31.183C8.94393 30.8482 8.50991 29.8031 8.3164 28.7406C8.18524 28.019 8.16514 27.2899 8.17502 26.7689C8.18524 26.2369 8.47516 25.7507 8.93712 25.4883C10.1888 24.7776 11.5096 25.0427 12.3794 25.3774C12.983 25.6095 13.3694 26.2031 13.3384 26.8487Z" fill="#FDA893"/>
<path d="M9.94692 27.9224C9.94692 28.0764 9.86799 28.2011 9.77034 28.2011C9.67269 28.2011 9.59375 28.0761 9.59375 27.9224C9.59375 27.7683 9.67269 27.6437 9.77034 27.6437C9.86799 27.6437 9.94692 27.7683 9.94692 27.9224Z" fill="#0C375A"/>
<path d="M11.9987 27.9224C11.9987 28.0764 11.9197 28.2011 11.8221 28.2011C11.7244 28.2011 11.6455 28.0761 11.6455 27.9224C11.6455 27.7683 11.7244 27.6437 11.8221 27.6437C11.9197 27.6437 11.9987 27.7683 11.9987 27.9224Z" fill="#0C375A"/>
<path d="M12.3031 27.0628C12.3031 27.0628 11.745 26.8418 11.3154 27.0279L11.3584 27.2674C11.3584 27.2674 11.989 27.2141 12.3065 27.3428C12.3351 27.2506 12.3392 27.1574 12.3031 27.0628Z" fill="#0C375A"/>
<path d="M9.05137 27.0628C9.05137 27.0628 9.6094 26.8418 10.039 27.0279L9.99608 27.2674C9.99608 27.2674 9.36548 27.2141 9.04796 27.3428C9.01934 27.2506 9.01526 27.1574 9.05137 27.0628Z" fill="#0C375A"/>
<path d="M10.7973 29.13C10.683 29.144 10.5642 29.1133 10.5455 29.1081C10.5091 29.0983 10.4877 29.0607 10.4975 29.0242C10.5074 28.9877 10.5448 28.9662 10.5812 28.9761C10.6455 28.9935 10.7973 29.0147 10.8561 28.9686C10.8674 28.9597 10.8827 28.943 10.8817 28.9014C10.8772 28.6612 10.7153 27.8733 10.7139 27.8655C10.7064 27.8283 10.7299 27.7921 10.767 27.7846C10.8041 27.7768 10.8401 27.8007 10.8476 27.8379C10.8544 27.8706 11.0137 28.6458 11.0184 28.899C11.0201 28.9942 10.9769 29.0484 10.9402 29.0771C10.9 29.1081 10.849 29.1235 10.7973 29.13Z" fill="#FD896B"/>
<path d="M9.86328 29.5408C9.91915 29.8225 10.1048 30.341 10.7303 30.341C11.3575 30.341 11.5333 29.8673 11.5936 29.5408H9.86328Z" fill="white"/>
<path d="M10.6776 30.764C10.8542 30.764 11.0043 30.6746 11.0104 30.6708C11.0427 30.6514 11.0529 30.6092 11.0335 30.5769C11.0141 30.5446 10.972 30.5344 10.9396 30.5538C10.9386 30.5545 10.8151 30.6273 10.6776 30.6273C10.5514 30.6273 10.4303 30.5548 10.4293 30.5541C10.3973 30.5344 10.3551 30.5442 10.3354 30.5762C10.3156 30.6082 10.3255 30.6504 10.3575 30.6701C10.3636 30.6742 10.5109 30.764 10.6776 30.764Z" fill="#FD896B"/>
<path d="M13.2661 27.8498H12.9564C12.9909 27.5383 12.8777 27.1619 12.7844 26.9108C12.5728 26.342 13.0232 26.0912 12.6587 25.8063C12.2945 25.5207 11.3873 25.6432 10.7567 25.6228C10.122 25.6023 9.10198 25.6112 8.85465 25.6688C8.60629 25.7258 8.74256 26.1383 8.83352 26.458C8.92517 26.777 8.52929 27.1305 8.46286 27.4611C8.44378 27.556 8.44787 27.6969 8.46286 27.8498H8.20463C8.17396 27.4472 8.16919 27.0725 8.17499 26.7689C8.18521 26.2369 8.47513 25.7507 8.93709 25.4883C10.1888 24.7776 11.5096 25.0427 12.3793 25.3774C12.983 25.6095 13.3693 26.2031 13.3387 26.8487C13.3237 27.1558 13.3012 27.5048 13.2661 27.8498Z" fill="#0C375A"/>
<path d="M26 14C26 14 26.1259 16.2144 27.8713 16.2144C29.6168 16.2144 41.0795 16.2144 41.0795 16.2144C41.0795 16.2144 42.3363 16.5058 43.017 14H26Z" fill="url(#paint29_linear_1_3505)"/>
<defs>
<linearGradient id="paint0_linear_1_3505" x1="102.223" y1="44.0771" x2="102.223" y2="62.2366" gradientUnits="userSpaceOnUse">
<stop stop-color="#469FEF"/>
<stop offset="0.258455" stop-color="#5C75F0"/>
<stop offset="0.652018" stop-color="#6C56F0"/>
</linearGradient>
<linearGradient id="paint1_linear_1_3505" x1="108.133" y1="47.3273" x2="108.133" y2="49.6136" gradientUnits="userSpaceOnUse">
<stop stop-color="#469FEF"/>
<stop offset="0.258455" stop-color="#5C75F0"/>
<stop offset="0.652018" stop-color="#6C56F0"/>
</linearGradient>
<linearGradient id="paint2_linear_1_3505" x1="104.488" y1="47.1614" x2="104.488" y2="50.9961" gradientUnits="userSpaceOnUse">
<stop stop-color="#469FEF"/>
<stop offset="0.258455" stop-color="#5C75F0"/>
<stop offset="0.652018" stop-color="#6C56F0"/>
</linearGradient>
<linearGradient id="paint3_linear_1_3505" x1="106.821" y1="41.7417" x2="106.821" y2="45.8934" gradientUnits="userSpaceOnUse">
<stop stop-color="#469FEF"/>
<stop offset="0.258455" stop-color="#5C75F0"/>
<stop offset="0.652018" stop-color="#6C56F0"/>
</linearGradient>
<linearGradient id="paint4_linear_1_3505" x1="105.496" y1="53.0534" x2="105.496" y2="54.9846" gradientUnits="userSpaceOnUse">
<stop stop-color="#469FEF"/>
<stop offset="0.258455" stop-color="#5C75F0"/>
<stop offset="0.652018" stop-color="#6C56F0"/>
</linearGradient>
<linearGradient id="paint5_linear_1_3505" x1="101.677" y1="51.7859" x2="101.677" y2="55.8411" gradientUnits="userSpaceOnUse">
<stop stop-color="#469FEF"/>
<stop offset="0.258455" stop-color="#5C75F0"/>
<stop offset="0.652018" stop-color="#6C56F0"/>
</linearGradient>
<linearGradient id="paint6_linear_1_3505" x1="102.758" y1="56.8346" x2="102.758" y2="58.7561" gradientUnits="userSpaceOnUse">
<stop stop-color="#469FEF"/>
<stop offset="0.258455" stop-color="#5C75F0"/>
<stop offset="0.652018" stop-color="#6C56F0"/>
</linearGradient>
<linearGradient id="paint7_linear_1_3505" x1="49.9185" y1="5.40283" x2="49.9185" y2="23.8992" gradientUnits="userSpaceOnUse">
<stop stop-color="#469FEF"/>
<stop offset="0.258455" stop-color="#5C75F0"/>
<stop offset="0.652018" stop-color="#6C56F0"/>
</linearGradient>
<linearGradient id="paint8_linear_1_3505" x1="19.5718" y1="48.5521" x2="19.5718" y2="69.8489" gradientUnits="userSpaceOnUse">
<stop stop-color="#469FEF"/>
<stop offset="0.258455" stop-color="#5C75F0"/>
<stop offset="0.652018" stop-color="#6C56F0"/>
</linearGradient>
<linearGradient id="paint9_linear_1_3505" x1="18.3612" y1="2.21069" x2="18.3612" y2="22.0988" gradientUnits="userSpaceOnUse">
<stop stop-color="#469FEF"/>
<stop offset="0.258455" stop-color="#5C75F0"/>
<stop offset="0.652018" stop-color="#6C56F0"/>
</linearGradient>
<linearGradient id="paint10_linear_1_3505" x1="13.9269" y1="4.8844" x2="13.9269" y2="7.62396" gradientUnits="userSpaceOnUse">
<stop stop-color="#469FEF"/>
<stop offset="0.258455" stop-color="#5C75F0"/>
<stop offset="0.652018" stop-color="#6C56F0"/>
</linearGradient>
<linearGradient id="paint11_linear_1_3505" x1="17.2925" y1="5.99866" x2="17.2925" y2="9.35299" gradientUnits="userSpaceOnUse">
<stop stop-color="#469FEF"/>
<stop offset="0.258455" stop-color="#5C75F0"/>
<stop offset="0.652018" stop-color="#6C56F0"/>
</linearGradient>
<linearGradient id="paint12_linear_1_3505" x1="16.2092" y1="0" x2="16.2092" y2="3.9818" gradientUnits="userSpaceOnUse">
<stop stop-color="#469FEF"/>
<stop offset="0.258455" stop-color="#5C75F0"/>
<stop offset="0.652018" stop-color="#6C56F0"/>
</linearGradient>
<linearGradient id="paint13_linear_1_3505" x1="15.1759" y1="11.2493" x2="15.1759" y2="13.3859" gradientUnits="userSpaceOnUse">
<stop stop-color="#469FEF"/>
<stop offset="0.258455" stop-color="#5C75F0"/>
<stop offset="0.652018" stop-color="#6C56F0"/>
</linearGradient>
<linearGradient id="paint14_linear_1_3505" x1="18.8957" y1="11.06" x2="18.8957" y2="14.789" gradientUnits="userSpaceOnUse">
<stop stop-color="#469FEF"/>
<stop offset="0.258455" stop-color="#5C75F0"/>
<stop offset="0.652018" stop-color="#6C56F0"/>
</linearGradient>
<linearGradient id="paint15_linear_1_3505" x1="16.9593" y1="15.572" x2="16.9593" y2="17.6865" gradientUnits="userSpaceOnUse">
<stop stop-color="#469FEF"/>
<stop offset="0.258455" stop-color="#5C75F0"/>
<stop offset="0.652018" stop-color="#6C56F0"/>
</linearGradient>
<linearGradient id="paint16_linear_1_3505" x1="33.8286" y1="13.4211" x2="33.8286" y2="73.8527" gradientUnits="userSpaceOnUse">
<stop stop-color="#469FEF"/>
<stop offset="0.258455" stop-color="#5C75F0"/>
<stop offset="0.652018" stop-color="#6C56F0"/>
</linearGradient>
<linearGradient id="paint17_linear_1_3505" x1="34.2757" y1="13.7555" x2="34.2757" y2="73.8527" gradientUnits="userSpaceOnUse">
<stop stop-color="#469FEF"/>
<stop offset="0.258455" stop-color="#5C75F0"/>
<stop offset="0.652018" stop-color="#6C56F0"/>
</linearGradient>
<linearGradient id="paint18_linear_1_3505" x1="16.6992" y1="23.1842" x2="16.6992" y2="30.3538" gradientUnits="userSpaceOnUse">
<stop stop-color="#469FEF"/>
<stop offset="0.258455" stop-color="#5C75F0"/>
<stop offset="0.652018" stop-color="#6C56F0"/>
</linearGradient>
<linearGradient id="paint19_linear_1_3505" x1="16.6992" y1="31.3267" x2="16.6992" y2="38.4966" gradientUnits="userSpaceOnUse">
<stop stop-color="#469FEF"/>
<stop offset="0.258455" stop-color="#5C75F0"/>
<stop offset="0.652018" stop-color="#6C56F0"/>
</linearGradient>
<linearGradient id="paint20_linear_1_3505" x1="33.0564" y1="26.646" x2="33.0564" y2="47.3425" gradientUnits="userSpaceOnUse">
<stop stop-color="#469FEF"/>
<stop offset="0.258455" stop-color="#5C75F0"/>
<stop offset="0.652018" stop-color="#6C56F0"/>
</linearGradient>
<linearGradient id="paint21_linear_1_3505" x1="98.7255" y1="43.9724" x2="98.7255" y2="51.0154" gradientUnits="userSpaceOnUse">
<stop stop-color="#469FEF"/>
<stop offset="0.258455" stop-color="#5C75F0"/>
<stop offset="0.652018" stop-color="#6C56F0"/>
</linearGradient>
<linearGradient id="paint22_linear_1_3505" x1="56.5833" y1="63.5348" x2="56.5833" y2="74.7926" gradientUnits="userSpaceOnUse">
<stop stop-color="#469FEF"/>
<stop offset="0.258455" stop-color="#5C75F0"/>
<stop offset="0.652018" stop-color="#6C56F0"/>
</linearGradient>
<linearGradient id="paint23_linear_1_3505" x1="56.5835" y1="63.5338" x2="56.5835" y2="71.0958" gradientUnits="userSpaceOnUse">
<stop stop-color="#469FEF"/>
<stop offset="0.258455" stop-color="#5C75F0"/>
<stop offset="0.652018" stop-color="#6C56F0"/>
</linearGradient>
<linearGradient id="paint24_linear_1_3505" x1="81.9732" y1="63.5338" x2="81.9732" y2="74.7916" gradientUnits="userSpaceOnUse">
<stop stop-color="#469FEF"/>
<stop offset="0.258455" stop-color="#5C75F0"/>
<stop offset="0.652018" stop-color="#6C56F0"/>
</linearGradient>
<linearGradient id="paint25_linear_1_3505" x1="81.9732" y1="63.5338" x2="81.9732" y2="71.1426" gradientUnits="userSpaceOnUse">
<stop stop-color="#469FEF"/>
<stop offset="0.258455" stop-color="#5C75F0"/>
<stop offset="0.652018" stop-color="#6C56F0"/>
</linearGradient>
<linearGradient id="paint26_linear_1_3505" x1="70.4276" y1="24.9594" x2="70.4276" y2="69.9879" gradientUnits="userSpaceOnUse">
<stop stop-color="#469FEF"/>
<stop offset="0.258455" stop-color="#5C75F0"/>
<stop offset="0.652018" stop-color="#6C56F0"/>
</linearGradient>
<linearGradient id="paint27_linear_1_3505" x1="42.4878" y1="41.6575" x2="42.4878" y2="53.449" gradientUnits="userSpaceOnUse">
<stop stop-color="#469FEF"/>
<stop offset="0.258455" stop-color="#5C75F0"/>
<stop offset="0.652018" stop-color="#6C56F0"/>
</linearGradient>
<linearGradient id="paint28_linear_1_3505" x1="54.65" y1="22.8065" x2="54.65" y2="31.1925" gradientUnits="userSpaceOnUse">
<stop stop-color="#469FEF"/>
<stop offset="0.258455" stop-color="#5C75F0"/>
<stop offset="0.652018" stop-color="#6C56F0"/>
</linearGradient>
<linearGradient id="paint29_linear_1_3505" x1="34.5085" y1="14" x2="34.5085" y2="16.2248" gradientUnits="userSpaceOnUse">
<stop stop-color="#469FEF"/>
<stop offset="0.258455" stop-color="#5C75F0"/>
<stop offset="0.652018" stop-color="#6C56F0"/>
</linearGradient>
</defs>
</svg>
