<svg width="93" height="78" viewBox="0 0 93 78" fill="none" xmlns="http://www.w3.org/2000/svg">
<path d="M12.7691 21.6631C16.5761 20.8663 18.9581 17.3883 18.0895 13.8949C17.2209 10.4015 13.4306 8.21546 9.62363 9.01229C5.81664 9.80912 3.4346 13.2871 4.30319 16.7805C5.17179 20.2739 8.96209 22.4599 12.7691 21.6631Z" fill="#FB6B18"/>
<path opacity="0.1" d="M10.4766 8.2961C6.23865 8.66125 3.12561 12.1099 3.52353 15.999C3.92145 19.888 7.67958 22.7447 11.9177 22.3795C16.1557 22.0144 19.2687 18.5657 18.8708 14.6766C18.4729 10.7876 14.7146 7.93095 10.4766 8.2961ZM11.7966 21.1967C8.27039 21.5006 5.14347 19.1237 4.81248 15.8879C4.48136 12.6521 7.07151 9.78264 10.5977 9.4789C14.1239 9.17505 17.2509 11.5519 17.5819 14.7877C17.9129 18.0235 15.3227 20.8929 11.7966 21.1967Z" fill="#272525"/>
<path d="M10.4024 7.57422C5.72972 7.97679 2.29732 11.7792 2.73602 16.0672C3.17472 20.3551 7.31839 23.5049 11.9912 23.1023C16.6639 22.6997 20.0963 18.8973 19.6576 14.6093C19.2189 10.3213 15.0752 7.17165 10.4024 7.57422ZM11.8577 21.7982C7.96987 22.1331 4.52221 19.5124 4.15719 15.9448C3.79217 12.3771 6.64802 9.21332 10.5359 8.87836C14.4237 8.5434 17.8714 11.164 18.2364 14.7318C18.6014 18.2995 15.7456 21.4632 11.8577 21.7982Z" fill="#FFAF2A"/>
<path d="M9.09489 17.4733C9.00332 17.4252 8.97655 17.3111 8.94628 17.2083C8.86935 16.9466 9.02984 16.7303 9.31367 16.6756C9.73949 16.5937 10.2091 16.8579 10.6161 16.997C10.9505 17.1113 11.3115 17.1528 11.6992 17.1215C12.1141 17.0881 12.4381 16.9687 12.6709 16.7631C12.9037 16.5577 13.0056 16.3039 12.9769 16.0022C12.9476 15.6961 12.8259 15.4865 12.612 15.3734C12.3979 15.2604 12.0463 15.2235 11.5569 15.2629L11.234 15.289C10.4354 15.3532 9.81192 15.2494 9.36371 14.9769C8.91551 14.7045 8.66357 14.2774 8.60791 13.6955C8.55349 13.1264 8.71573 12.6681 9.09476 12.3204C9.47379 11.9728 10.0332 11.7691 10.7732 11.7095C11.0747 11.6852 11.3864 11.7069 11.7086 11.7744C12.3784 11.9149 13.5029 12.3112 13.3313 12.9237C13.1355 13.6222 11.9023 12.7326 11.4861 12.6067C11.2425 12.533 10.962 12.5088 10.645 12.5344C10.277 12.564 9.98892 12.6774 9.78102 12.8744C9.57299 13.0714 9.48217 13.308 9.50857 13.5838C9.53459 13.8553 9.66856 14.0401 9.91074 14.1378C10.1528 14.2356 10.6564 14.2624 11.4215 14.2181C12.2378 14.1742 12.8479 14.2824 13.2516 14.5432C13.6552 14.8039 13.8862 15.2382 13.9443 15.8461C14 16.4281 13.837 16.9104 13.4555 17.2929C13.0738 17.6755 12.5308 17.8952 11.826 17.9519C11.6029 17.9698 11.3522 17.9673 11.0738 17.9441C10.556 17.901 9.72635 17.8046 9.09489 17.4733Z" fill="white"/>
<path d="M11.7419 19.5055L11.733 19.5061C11.4898 19.5258 11.2725 19.3324 11.2479 19.0742L10.4857 11.1055C10.461 10.8474 10.6382 10.6223 10.8814 10.6026L10.8902 10.602C11.1334 10.5823 11.3506 10.7758 11.3753 11.0339L12.1375 19.0026C12.1622 19.2607 11.985 19.4859 11.7419 19.5055Z" fill="white"/>
<path d="M82.8153 19.7954L71.3714 17.6681C71.0232 17.6034 70.8025 17.2728 70.8781 16.9297L74.1504 2.10643C74.2261 1.76332 74.5697 1.53764 74.9179 1.60239L86.3618 3.72969C86.7099 3.79443 86.9307 4.12502 86.855 4.46813L83.5827 19.2914C83.5071 19.6345 83.1634 19.8602 82.8153 19.7954Z" fill="url(#paint0_linear_1_4886)"/>
<path d="M77.4583 11.6078L74.4628 11.0448C74.2765 11.0098 74.1586 10.8324 74.1995 10.6487L74.8406 7.77763C74.8816 7.59399 75.066 7.47348 75.2524 7.50849L78.2478 8.07157C78.4342 8.10657 78.552 8.2839 78.5111 8.46765L77.87 11.3387C77.8291 11.5223 77.6447 11.6428 77.4583 11.6078Z" fill="#0890FE"/>
<path d="M82.9886 12.6325L79.9919 12.0755C79.8054 12.0409 79.6871 11.8638 79.7277 11.68L80.3619 8.80761C80.4025 8.62386 80.5866 8.50301 80.7731 8.53767L83.7698 9.09466C83.9564 9.12932 84.0746 9.30642 84.034 9.49017L83.3998 12.3625C83.3592 12.5462 83.1752 12.6672 82.9886 12.6325Z" fill="#0890FE"/>
<path d="M76.4261 16.302L73.4294 15.745C73.2429 15.7103 73.1246 15.5332 73.1652 15.3495L73.7994 12.477C73.84 12.2933 74.0241 12.1724 74.2106 12.2071L77.2073 12.7641C77.3938 12.7988 77.5122 12.9758 77.4715 13.1596L76.8373 16.032C76.7966 16.2158 76.6126 16.3366 76.4261 16.302Z" fill="#0890FE"/>
<path d="M81.9515 17.3288L78.9548 16.7718C78.7683 16.7372 78.65 16.5601 78.6906 16.3763L79.3248 13.5039C79.3654 13.3202 79.5495 13.1993 79.736 13.234L82.7327 13.7909C82.9192 13.8256 83.0375 14.0027 82.9969 14.1865L82.3627 17.0589C82.322 17.2426 82.138 17.3635 81.9515 17.3288Z" fill="#0890FE"/>
<path d="M76.5622 9.45738L77.4132 9.61554C77.4664 9.62541 77.5068 9.65054 77.5344 9.69094C77.5621 9.73134 77.5706 9.77622 77.5597 9.82546C77.5488 9.87481 77.5228 9.91165 77.4816 9.93598C77.4405 9.96043 77.3924 9.96755 77.3378 9.95733L76.4868 9.79918L76.2955 10.6655C76.2832 10.7209 76.2577 10.7627 76.2191 10.7907C76.1803 10.8188 76.1344 10.8279 76.0812 10.818C76.0343 10.8093 75.9974 10.7832 75.9704 10.7397C75.9434 10.6962 75.9352 10.6499 75.9462 10.6005L76.1375 9.73421L75.2911 9.57697C75.2363 9.56676 75.1949 9.54312 75.1665 9.5057C75.1381 9.4684 75.1294 9.42513 75.1403 9.37578C75.1505 9.32964 75.1782 9.29222 75.2236 9.26376C75.2689 9.23529 75.3165 9.22577 75.3666 9.23506L76.2129 9.39242L76.4037 8.52841C76.416 8.47297 76.4422 8.43131 76.4825 8.40353C76.5228 8.37576 76.5687 8.36669 76.6204 8.37622C76.6735 8.38609 76.7119 8.41088 76.7357 8.45059C76.7595 8.4903 76.7652 8.53782 76.753 8.59325L76.5622 9.45738Z" fill="white"/>
<path d="M80.8669 10.6704C80.8356 10.6645 80.8131 10.6504 80.7995 10.6278C80.7857 10.6052 80.7826 10.5769 80.7901 10.5431L80.8441 10.2983C80.8506 10.269 80.8647 10.2475 80.8864 10.234C80.9081 10.2205 80.9346 10.2165 80.9659 10.2223L82.9094 10.5835C82.9453 10.5901 82.9715 10.6039 82.9882 10.6246C83.0047 10.6453 83.0098 10.6702 83.0033 10.6995L82.9493 10.9443C82.9431 10.972 82.9259 10.9949 82.8975 11.0128C82.8691 11.0309 82.8401 11.0371 82.8104 11.0316L80.8669 10.6704Z" fill="white"/>
<path d="M79.946 14.7031C79.9147 14.6973 79.8922 14.6832 79.8786 14.6605C79.8648 14.6379 79.8617 14.6097 79.8692 14.5758L79.9232 14.331C79.9298 14.3018 79.9438 14.2804 79.9655 14.2668C79.9872 14.2532 80.0137 14.2492 80.045 14.2551L81.9885 14.6162C82.0244 14.6229 82.0507 14.6367 82.0673 14.6573C82.0839 14.678 82.089 14.703 82.0825 14.7323L82.0284 14.9771C82.0223 15.0048 82.0051 15.0277 81.9767 15.0456C81.9483 15.0636 81.9192 15.0698 81.8896 15.0643L79.946 14.7031Z" fill="white"/>
<path d="M79.7478 15.6005C79.7165 15.5947 79.694 15.5806 79.6803 15.558C79.6666 15.5353 79.6635 15.5071 79.671 15.4733L79.725 15.2284C79.7315 15.1992 79.7455 15.1777 79.7673 15.1642C79.7889 15.1506 79.8155 15.1467 79.8467 15.1525L81.7903 15.5137C81.8262 15.5203 81.8525 15.5341 81.8691 15.5547C81.8856 15.5755 81.8907 15.6004 81.8842 15.6297L81.8302 15.8745C81.8241 15.9023 81.8068 15.9251 81.7784 15.943C81.75 15.961 81.721 15.9672 81.6913 15.9617L79.7478 15.6005Z" fill="white"/>
<path d="M74.3132 14.2114C74.2819 14.2055 74.2594 14.1914 74.2458 14.1688C74.232 14.1462 74.2289 14.118 74.2364 14.0841L74.2904 13.8393C74.2969 13.81 74.311 13.7886 74.3327 13.775C74.3544 13.7615 74.3809 13.7576 74.4122 13.7633L76.3557 14.1245C76.3916 14.1312 76.4178 14.1449 76.4345 14.1656C76.451 14.1864 76.4561 14.2113 76.4496 14.2405L76.3956 14.4853C76.3895 14.5131 76.3722 14.536 76.3438 14.5539C76.3154 14.5719 76.2864 14.5781 76.2567 14.5726L74.3132 14.2114Z" fill="white"/>
<path d="M75.7205 13.6403C75.6903 13.7775 75.5527 13.8679 75.4133 13.8421C75.274 13.8161 75.1856 13.6838 75.2159 13.5465C75.2462 13.4092 75.3838 13.3189 75.5231 13.3447C75.6625 13.3706 75.7508 13.503 75.7205 13.6403Z" fill="white"/>
<path d="M75.4667 14.7921C75.4364 14.9293 75.2988 15.0197 75.1594 14.9938C75.0201 14.9679 74.9316 14.8357 74.962 14.6983C74.9923 14.561 75.1299 14.4707 75.2693 14.4966C75.4085 14.5223 75.4969 14.6547 75.4667 14.7921Z" fill="white"/>
<path d="M75.1982 3.46392L74.708 5.68457L85.0205 7.60087L85.5107 5.38022L75.1982 3.46392Z" fill="white"/>
<g opacity="0.5">
<path opacity="0.5" d="M42.6661 65.9528C39.9426 65.9623 37.2192 66.0395 34.5005 66.396C33.4754 66.5304 32.4719 66.826 31.4444 66.9452C29.3922 67.1834 27.3767 67.6278 25.3173 67.8328C23.6589 67.9979 21.9934 68.0952 20.3397 68.3047C18.7893 68.501 17.0729 68.4558 15.5345 68.1314C14.3956 67.8912 13.2514 67.756 12.1316 67.3703C10.8789 66.9388 9.51804 66.6304 8.21283 66.6414C6.35169 66.6572 4.53915 66.6591 2.7581 67.4209C2.13289 67.6884 1.36743 68.128 0.892696 68.6893C-0.19418 69.9741 -0.341318 73.1799 0.743938 74.5125C2.57177 76.7553 6.473 77.6353 9.03511 77.6767C11.8427 77.7222 14.57 77.4765 17.3818 77.3321C19.9944 77.1978 22.6006 77.0069 25.2175 77.0136C30.5624 77.0273 35.9081 77.0136 41.2433 76.5926C46.2559 76.1972 51.2811 76.333 56.3047 76.333C61.4561 76.333 66.5727 76.3807 71.687 77.1878C73.9154 77.5394 76.1856 77.6626 78.4251 77.9089C80.4308 78.1296 82.3582 77.9046 84.356 77.7007C86.0334 77.5294 87.6999 77.0216 89.2239 76.163C90.4302 75.4834 92.5808 73.3719 92.9507 71.7497C93.9879 67.2018 78.3347 67.3111 75.9312 67.3214C73.2426 67.3329 70.5327 67.4371 67.8461 67.3162C66.7161 67.2654 65.6026 67.005 64.4997 66.7197C63.4012 66.4355 62.2943 66.5078 61.1803 66.3883C56.5344 65.8902 51.8783 65.963 47.2177 65.963C45.7009 65.9631 44.1835 65.9475 42.6661 65.9528Z" fill="#EED5D5"/>
</g>
<path d="M72.4801 0L57.0403 3.98886L60.7731 7.45554C56.633 11.3186 51.4563 16.1691 51.3184 16.3983C51.0876 16.7816 47.0701 9.24489 47.0701 9.24489L36.2235 20.2432L32.2636 15.4361L23.6045 24.3154L31.6887 19.262L36.0568 24.4891L45.8067 15.4005L49.9637 23.1972L64.4579 10.8778L68.4699 14.6038L72.4801 0Z" fill="url(#paint1_linear_1_4886)"/>
<path d="M50.1162 23.2188L64.8726 11.0821L64.0437 10.1865L50.1162 23.2188Z" fill="url(#paint2_linear_1_4886)"/>
<path d="M36.2217 24.4357L46.4572 16.2763L45.9067 15.2544L36.2217 24.4357Z" fill="url(#paint3_linear_1_4886)"/>
<path d="M31.8772 19.2075L23.8379 24.294L32.3512 19.8547L31.8772 19.2075Z" fill="url(#paint4_linear_1_4886)"/>
<path d="M29.3296 24.0492L28.9062 22.0381L30.2148 20.666L30.9002 21.2377L30.5849 22.66L30.9244 23.0043L30.5548 24.4581C30.5548 24.458 29.3253 24.0217 29.3296 24.0492Z" fill="#EFBFA5"/>
<path d="M46.4168 19.9767L46.5776 17.8784L44.7278 16.5645L43.9521 17.4951L44.7875 18.8638L44.4892 19.5755L45.3093 20.7056L46.4168 19.9767Z" fill="#EFBFA5"/>
<path d="M31.76 43.811L31.6104 55.685L32.9892 70.9707H34.8642L37.1077 56.8683L39.6735 42.7417L31.76 43.811Z" fill="#0890FE"/>
<path d="M34.8539 71.6962L32.8262 72.6264L31.8125 71.6962L32.8262 70.7661H34.8539V71.6962Z" fill="#0890FE"/>
<path d="M44.6147 43.811L44.6515 50.6805L43.3869 70.9707H41.5121L38.3755 57.5062L36.7012 42.7417L44.6147 43.811Z" fill="#0890FE"/>
<path d="M41.5225 71.6962L43.5501 72.6264L44.5638 71.6962L43.5501 70.7661H41.5225V71.6962Z" fill="#0890FE"/>
<path d="M46.5646 47.947C46.6047 49.0369 46.579 50.4949 46.0788 50.5493C45.9853 50.5595 45.895 50.5215 45.8125 50.4848C44.943 50.0971 44.323 49.5491 43.4658 49.1746C42.5675 48.7821 41.5464 48.5767 40.5485 48.4349C39.0602 48.2168 37.5473 48.0857 36.0495 48.0735C34.7621 48.063 33.4233 48.6019 32.2063 48.8983C31.7378 49.0124 31.3568 49.3256 30.9675 49.5714C30.3927 49.9342 30.1406 50.078 30.2191 49.3365C30.347 48.1266 30.4797 46.917 30.642 45.7104C30.9655 43.3039 31.4059 40.9032 32.1511 38.5736C32.4358 37.6837 32.7642 36.8061 33.0924 35.9289C33.4922 34.8606 33.8919 33.7924 34.2917 32.7241C34.7885 31.3965 35.627 30.4612 37.0952 29.9968C38.3642 29.5955 39.9402 29.4857 41.1744 30.0475C42.5462 30.6719 43.1987 32.7997 43.8652 33.9367C44.4493 34.9331 45.1856 37.6506 45.4041 38.7248C45.6673 40.0177 45.9103 41.3045 46.1016 42.5879C46.3136 44.0093 46.463 45.4265 46.5063 46.8355C46.5113 46.9911 46.5454 47.4266 46.5646 47.947Z" fill="#0890FE"/>
<path d="M39.7873 30.2354L37.2536 30.2575C37.2536 30.2575 34.5347 38.9767 34.4347 40.4794C34.3367 41.9547 33.6494 47.9364 33.6494 47.9364C33.6494 47.9364 36.4555 47.9971 39.6886 48.3586C42.8493 48.9793 43.115 48.6123 43.115 48.6123C43.115 48.6123 41.4091 42.3253 41.3526 40.519C41.2946 38.6714 41.0369 32.5694 41.0369 32.5694L39.7873 30.2354Z" fill="white"/>
<path d="M39.4203 30.3779H38.1729C37.8817 30.3779 37.7167 30.6841 37.8933 30.8966L38.4055 31.5124L37.043 43.0456L38.72 44.5582L39.8729 42.7621L39.5584 31.5125L39.7613 30.7804C39.8178 30.5762 39.6498 30.3779 39.4203 30.3779Z" fill="#0890FE"/>
<path d="M38.2506 30.2797C38.2804 30.3034 38.3146 30.322 38.3543 30.3341C38.433 30.3578 38.5184 30.3492 38.6007 30.3403C38.936 30.3039 39.2711 30.2675 39.6062 30.2311C39.4956 29.2894 40.0957 29.0764 40.6804 28.4707C41.273 27.8567 41.0906 27.0288 41.0573 26.2774C41.0478 26.0682 41.0367 25.8525 40.9402 25.6627C40.771 25.3295 40.3769 25.1455 39.9944 25.0365C39.0182 24.7582 37.9016 24.8267 37.0421 25.3344C36.8133 25.4695 36.5997 25.6393 36.4758 25.8616C36.2847 26.2042 36.3333 26.6131 36.3864 26.9949C36.4684 27.5817 36.6576 28.158 37.0193 28.6525C37.3562 29.1133 37.9986 29.3339 38.0725 29.8869C38.0915 30.0297 38.1386 30.1904 38.2506 30.2797Z" fill="#EFBFA5"/>
<path d="M42.0463 22.9899C41.8524 22.7118 41.6161 22.4621 41.3384 22.3065C40.6734 21.9343 39.7476 21.9001 39.0312 21.645C38.0234 21.2861 37.5112 21.6098 36.5597 21.8901C36.1794 22.0022 35.7421 22.0995 35.5407 22.4302C35.4295 22.6128 35.413 22.8381 35.3007 23.0201C35.1561 23.2546 34.8815 23.3769 34.6434 23.5245C34.3672 23.6957 34.2495 23.9491 34.2399 24.2326C34.2191 24.8383 34.718 25.8223 35.3316 26.0692C35.4508 26.1171 35.5828 26.1454 35.7222 26.1589C35.8705 26.5361 36.1334 26.8996 36.5295 27.0228C36.5921 26.7874 36.4718 26.548 36.4149 26.3113C36.4005 26.2515 36.3977 26.1898 36.4019 26.1274C36.8598 26.0547 37.322 25.8986 37.6585 25.7639C38.3592 25.4834 39.7236 25.1844 40.451 25.5157C41.0263 25.7779 40.8496 26.6135 40.8206 27.142C40.8131 27.2778 40.8017 27.4161 40.8359 27.5483C40.8833 27.7317 41.0348 27.8347 41.0644 28.0213C41.5354 27.8274 41.8204 27.3401 42.0864 26.9439C42.2194 26.7458 42.3439 26.5388 42.4418 26.3139C42.8793 25.3087 42.718 23.9535 42.0463 22.9899Z" fill="#292949"/>
<path d="M36.4733 30.1937L30.4465 30.1145L31.0312 24.1866L29.089 23.5386L26.7471 30.6842L27.846 32.8397L34.5725 34.6445L36.4733 30.1937Z" fill="#0890FE"/>
<path d="M40.5996 29.9264L47.0319 28.1868L44.651 20.8074L46.6129 19.5161L51.3488 28.0587L50.0392 31.017L43.8935 33.9279L40.5996 29.9264Z" fill="#0890FE"/>
<path d="M82.8584 20.5268L83.1387 18.3414L80.5507 17.3271L80.0693 18.3365L81.2881 19.9798L81.5833 20.9797L82.8584 20.5268Z" fill="#EFBFA5"/>
<path d="M71.0507 33.7275L67.9182 38.1402L65.8789 41.7142L66.625 43.0996L69.3377 42.4034L71.0507 33.7275Z" fill="url(#paint5_linear_1_4886)"/>
<path d="M74.8042 49.3109V51.5454L71.5577 61.2277L72.3694 71.2825L70.3403 71.655L67.0938 59.3658L67.2178 55.7501L68.7169 48.376L74.8042 49.3109Z" fill="#0890FE"/>
<path d="M70.6066 71.4638L69.0576 72.9678L69.5051 73.7303L72.7012 72.3227L72.1125 71.2085L70.6066 71.4638Z" fill="#343434"/>
<path d="M75.5178 72.1509L73.6084 73.2521L73.8339 74.093L77.312 73.4627L77.0454 72.2488L75.5178 72.1509Z" fill="#343434"/>
<path d="M71.0402 33.7163L75.8701 31.958C75.8701 31.958 77.5866 35.8704 79.5381 42.1378C81.4894 48.4051 78.632 56.3829 78.632 56.3829C78.632 56.3829 67.5669 53.9697 65.3574 53.5718L68.1288 42.1158L71.0402 33.7163Z" fill="url(#paint6_linear_1_4886)"/>
<path d="M72.2285 51.9561L75.4907 72.4382H76.9734L77.9099 61.2661L79.9391 50.0942L72.2285 51.9561Z" fill="#0890FE"/>
<path d="M70.8794 27.7277C72.1944 27.8165 73.4241 26.8256 74.7184 27.0716C75.56 27.2315 76.2244 27.9164 76.4812 28.6883C76.6009 29.0481 76.6433 29.4402 76.5261 29.7979C76.45 30.0301 76.3098 30.2393 76.1448 30.4253C75.924 30.6739 75.6542 30.8803 75.3545 31.0391C75.5191 31.2825 75.7076 31.5122 75.9174 31.7244C75.3108 31.9375 74.7044 32.1505 74.0979 32.3637C73.964 32.0439 73.8299 31.7241 73.6959 31.4044C73.5135 31.3951 73.3318 31.3713 73.1536 31.3289C72.0769 31.0725 71.1841 30.2072 70.9439 29.1871C70.8316 28.7093 70.8532 28.215 70.8794 27.7277Z" fill="#EFBFA5"/>
<path d="M71.2117 28.0919L75.2782 27.6485L76.0674 30.4985L77.2158 29.6623L76.6239 24.9991L70.8852 24.8857L68.4004 26.2232L68.5056 27.5635L70.7274 28.9357L71.2117 28.0919Z" fill="#292949"/>
<path d="M72.7904 32.8862L77.6203 31.1279C77.6203 31.1279 79.3368 35.0403 81.2881 41.3077C83.2394 47.575 80.382 55.5529 80.382 55.5529C80.382 55.5529 70.4839 51.0648 68.2744 50.6669L69.8788 41.2858L72.7904 32.8862Z" fill="white"/>
<path d="M81.3619 41.1995C79.4106 34.9321 77.7208 31.0132 77.7208 31.0132L72.8642 32.778L72.8563 32.8006C72.9633 33.0567 73.0751 33.3113 73.172 33.571C73.5546 34.5956 73.8374 35.6503 74.011 36.7216C74.3163 38.6047 74.3484 40.5409 74.2827 42.4413C74.2198 44.2646 74.0149 46.0846 73.6619 47.8801C73.1952 50.2536 72.4511 52.5664 71.4922 54.8049C75.9846 55.6426 81.2715 56.633 81.2715 56.633C81.2715 56.633 83.3134 47.4668 81.3619 41.1995Z" fill="url(#paint7_linear_1_4886)"/>
<path d="M77.3125 31.1623L82.1208 28.4272L81.2269 20.9188L83.3583 20.1616L86.8651 28.7428L86.1775 30.131L79.5869 35.9674L77.3125 31.1623Z" fill="#0890FE"/>
<path d="M68.4373 39.4694L68.9185 34.2324H66.5808L64.793 41.4254L66.0308 43.6338L68.021 42.7412L68.4373 39.4694Z" fill="#0890FE"/>
<path d="M66.8564 34.2321V32.4656L68.3004 31.9609L69.6068 32.9072V33.7273L68.6443 34.2321H66.8564Z" fill="#EFBFA5"/>
<path d="M9.41406 24.8484L9.69189 22.7118L11.5135 21.7476L12.0395 22.8984L11.1697 24.208V25.2804L9.41406 24.8484Z" fill="#EFBFA5"/>
<path d="M23.1958 72.5001L21.5659 71.1188C21.0929 70.8992 20.5928 70.7459 20.1874 70.7506C19.893 70.754 19.6487 70.8407 19.5013 71.0457C19.3599 71.2425 19.3311 71.5017 19.4275 71.7117C19.4628 71.7885 19.5129 71.8572 19.5691 71.922C19.6177 71.9777 19.6715 72.0314 19.7243 72.0836C19.7579 72.1167 19.7951 72.1524 19.8345 72.1895C20.1717 72.525 20.7369 73.0712 20.9613 73.1947C21.2904 73.3758 22.0144 73.859 22.8701 73.3154C22.8669 73.3128 22.8633 73.3103 22.8601 73.3077C23.1714 73.1145 23.263 72.797 23.1958 72.5001Z" fill="#343434"/>
<path d="M21.9169 60.4689L21.7853 62.2025L21.1396 70.6427L21.7853 71.6246C21.7853 71.6246 21.9169 72.4097 20.9297 72.3493C20.636 72.3314 19.5958 71.1177 19.5958 71.1177L19.7462 70.5616L19.0143 64.2242L19.021 62.3836L18.6709 60.3398L21.9169 60.4689Z" fill="#EFBFA5"/>
<path d="M11.5838 70.3571C11.2803 70.2695 10.9977 70.283 10.7712 70.4478C10.5536 70.6062 10.4289 70.8632 10.4507 71.1086C10.4656 71.276 10.5426 71.4309 10.6187 71.5821C11.0122 72.3648 12.1162 74.1345 13.3828 73.8101C13.9151 73.6738 14.1166 73.1752 14.0086 72.7348C13.8458 72.0713 12.5984 70.6499 11.5838 70.3571Z" fill="#343434"/>
<path d="M17.9679 59.4566L17.7474 61.953L12.4073 70.776C12.4073 70.776 13.1749 72.0066 12.688 72.1135C12.2012 72.2203 10.7735 71.8476 10.7705 70.4581C11.3319 68.7752 13.5388 63.061 13.5388 63.061L14.5722 61.5865L14.557 58.8154L17.9679 59.4566Z" fill="#EFBFA5"/>
<path d="M11.9352 51.0999C11.8931 50.364 12.1496 48.444 12.4131 47.756C13.3738 45.2472 13.5589 44.0109 13.5589 41.9689C13.5589 39.927 12.5717 33.4527 12.5717 33.4527L16.0016 31.5635L20.1131 31.6693L22.3962 32.3602C22.3962 32.3602 22.8795 40.5057 23.0168 43.131C23.1147 45.0045 23.2564 46.6271 23.4431 48.798C23.4431 48.798 23.9665 53.7494 23.1579 59.0572C23.1579 59.0572 22.9774 60.8197 22.8964 60.9741C22.8858 61.0264 22.8798 61.0546 22.8798 61.0546C22.8798 61.0546 22.8473 61.0546 22.8469 61.0547L13.7042 61.0546V58.0298C13.3998 57.0589 13.1107 56.0837 12.8336 55.106C12.4816 53.8635 12.0135 52.4657 11.9352 51.0999Z" fill="#343434"/>
<path d="M13.8689 32.1342L12.3083 33.2113C12.3083 33.2113 13.4955 40.6679 13.5588 41.969C13.6221 43.2703 11.7949 48.47 11.7949 48.47L19.364 49.376C19.364 49.376 20.4773 43.8229 20.7977 41.0642C21.118 38.3056 16.5385 31.5806 16.5385 31.5806L13.8689 32.1342Z" fill="url(#paint8_linear_1_4886)"/>
<path d="M21.4566 32.0037L23.0013 32.6763C23.0013 32.6763 22.784 40.9655 23.1802 43.0709C23.4216 44.3542 24.3617 48.51 24.3617 48.51L21.9174 49.2776C21.9174 49.2776 20.4125 44.0792 20.1136 41.3205C19.8146 38.5619 20.1403 31.7017 20.1403 31.7017L21.4566 32.0037Z" fill="url(#paint9_linear_1_4886)"/>
<path d="M21.1579 28.9658C21.3585 29.6778 20.8981 30.3813 20.4952 30.9819C20.3306 31.2273 20.0755 31.5686 20.2879 31.8488C20.5257 32.1623 21.1163 32.0995 21.3761 31.8651C21.5595 31.6995 21.6497 31.4751 21.728 31.2562C22.0786 30.2754 22.5684 28.9017 22.4725 27.8708C22.3957 27.0442 21.2909 25.5763 20.1527 26.1015C19.9461 26.1969 19.8136 26.3759 19.7003 26.5521C19.6326 26.6572 19.5673 26.7674 19.5538 26.8875C19.5001 27.3661 20.0032 27.4892 20.3337 27.7465C20.7413 28.0637 21.0299 28.5112 21.1579 28.9658Z" fill="#292949"/>
<path d="M19.2588 31.5237C20.019 31.4351 20.6544 30.9475 20.9945 30.3605C21.3345 29.7736 21.4157 29.0983 21.4023 28.4397C21.358 26.2482 18.1907 26.1264 16.9593 27.7014C15.8861 29.0739 17.0487 31.7812 19.2588 31.5237Z" fill="#EFBFA5"/>
<path d="M17.0962 28.7368C17.0701 29.0022 16.923 29.2837 16.8824 29.5564C16.8078 30.0584 16.9302 30.7097 16.7299 31.1683C16.1745 31.0985 15.4992 30.7798 15.0876 30.43C14.6673 30.0728 14.743 29.5417 14.649 29.0155C14.5621 28.5288 14.4514 28.0398 14.4817 27.5474C14.6475 24.8517 17.5789 23.3776 20.1616 24.5936C21.1387 25.0537 21.566 26.2228 20.8474 26.9911C20.0744 27.8174 18.5036 27.4591 17.5779 28.0722C17.3727 28.2083 17.2147 28.4526 17.0962 28.7368Z" fill="#292949"/>
<path d="M19.3218 31.2988C19.2833 31.462 19.2446 31.6251 19.2062 31.7883C19.1886 31.8631 19.1952 32.0772 19.125 32.1285C19.0885 32.1552 19.0341 32.1512 18.986 32.1458C18.8487 32.1303 17.6195 31.9867 17.6329 31.915C17.6688 31.7227 17.709 31.5344 17.7744 31.3507C17.8272 31.2023 17.8475 30.9231 17.9449 30.8105C18.1537 30.9415 18.3695 31.0225 18.6154 31.0866C18.8527 31.1483 19.0912 31.2064 19.3308 31.2609C19.3278 31.2735 19.3248 31.2862 19.3218 31.2988Z" fill="#EFBFA5"/>
<path d="M16.2023 31.8251L10.1712 32.2273L11.5221 24.1577L9.32082 24.1686L6.09082 32.6278L7.21252 35.2927L14.2416 35.8888L16.2023 31.8251Z" fill="url(#paint10_linear_1_4886)"/>
<path d="M22.3457 32.3501L23.8905 33.0228L27.6722 41.667L31.9779 43.1034L30.3517 44.1366L25.8844 44.0647L22.7215 38.9539L22.3457 32.3501Z" fill="#8CABEF"/>
<path d="M60.2174 18.2334L60.484 16.6828L58.8292 15.9512L57.4453 17.5397L58.6874 18.5802L60.2174 18.2334Z" fill="#B97262"/>
<path d="M57.7861 32.7769L60.0686 26.0615L58.2679 18.3879L60.4462 17.877L63.0761 26.1801L60.3515 35.6098L58.2816 32.8619L57.7861 32.7769Z" fill="url(#paint11_linear_1_4886)"/>
<path d="M62.8549 70.5416C62.8584 70.537 62.8609 70.5339 62.8609 70.5339L62.8542 70.5321L62.5263 66.5898L60.4014 67.0083L61.4549 70.441L60.9126 71.4853C60.9126 71.4853 60.7055 72.0091 60.8991 71.955C61.0928 71.9009 61.9312 71.6863 61.9969 71.6292C62.0525 71.5807 62.6331 70.8293 62.8099 70.6L62.8549 70.5416Z" fill="#B97262"/>
<path d="M53.3824 67.6444L53.717 70.3283L53.1611 71.0368L53.2193 71.5036L54.709 71.0517L55.3794 70.7449L55.4227 66.9575L53.3824 67.6444Z" fill="#B97262"/>
<path d="M55.9043 47.5316L56.9502 55.122L57.598 57.9532L60.4329 68.4132L63.0157 67.9265L61.8195 56.4831L62.4042 49.2045L62.6345 47.2922L63.2701 44.9863L55.9043 47.5316Z" fill="#5655B9"/>
<path d="M50.6328 47.9257L51.0506 55.6527L53.1739 68.5535L55.7174 68.2866L55.7966 60.6522L57.1744 46.379L54.2655 45.2655L51.938 44.6821L50.6328 47.9257Z" fill="#5655B9"/>
<path d="M53.7176 70.329L51.752 72.1312L51.9028 72.8246L53.4925 72.6579L55.5726 71.2574L55.5761 70.2522L55.3636 70.0972C55.3636 70.0972 53.4378 71.1859 53.3033 71.1409C53.169 71.0959 53.7176 70.329 53.7176 70.329Z" fill="#343434"/>
<path d="M61.4521 70.4595L60.455 71.44L59.8516 71.8799L60.0979 72.6347L60.9806 72.7759L63.3062 71.4791L63.0929 70.5509L62.8738 70.3369C62.8738 70.3369 61.9632 71.0257 61.1076 71.4253C60.8656 71.5382 61.4521 70.4595 61.4521 70.4595Z" fill="#343434"/>
<path d="M53.7428 32.3604L51.8919 33.2414L46.6357 37.5447L46.7411 39.7501L53.428 37.1177L53.7428 32.3604Z" fill="url(#paint12_linear_1_4886)"/>
<path d="M53.2363 32.6905C53.2363 32.6905 54.1324 31.7144 57.5246 31.7144C60.9168 31.7144 63.4502 41.5729 63.3222 43.3422C63.1943 45.1116 63.669 49.0993 63.669 49.0993L55.7325 47.2724C55.7325 47.2724 51.2536 47.2802 50.1656 48.2564C49.0775 49.2326 52.2834 41.2896 52.3473 39.4593C52.4113 37.6291 52.1483 33.6058 53.2363 32.6905Z" fill="#0890FE"/>
<path d="M56.8931 31.9365L57.204 31.9493L56.199 39.8047L54.4518 36.4717L54.1318 32.8889L54.4518 32.3603L56.8931 31.9365Z" fill="white"/>
<path d="M52.3658 28.787C52.1565 26.4062 55.5041 25.9885 56.9954 27.5854C57.9682 28.6272 57.6988 30.5929 56.5054 31.4822C56.5219 31.5319 56.5385 31.5779 56.5562 31.6155C56.6471 31.8088 56.7118 32.0095 56.7723 32.2148C56.7948 32.2913 55.507 32.558 55.363 32.5871C55.3126 32.5973 55.2555 32.6065 55.2136 32.5808C55.133 32.5316 55.115 32.2987 55.0875 32.2192C55.0551 32.1253 55.0225 32.0313 54.99 31.9374C54.1775 31.9058 53.4507 31.4363 53.0233 30.8333C52.5939 30.2276 52.4287 29.5025 52.3658 28.787Z" fill="#B97262"/>
<path d="M53.4185 26.1377C53.649 26.2226 53.8105 26.4048 53.9514 26.5857C54.0354 26.6936 54.1177 26.8072 54.146 26.9362C54.259 27.4505 53.7395 27.6294 53.4187 27.9383C53.0232 28.3192 52.7691 28.8304 52.6864 29.3352C52.5569 30.1255 53.1278 30.847 53.6256 31.4619C53.801 31.6786 54.0939 31.988 53.9924 32.2847C53.8893 32.5861 53.3947 32.7442 53.0932 32.7311C52.8178 32.7191 52.5412 32.6038 52.2743 32.6652C51.9917 32.7303 51.6863 32.9791 51.4583 32.8065C51.3949 32.7585 51.3558 32.6844 51.2859 32.6451C51.0496 32.5126 50.7941 32.8811 50.525 32.8288C50.3595 32.7965 50.2764 32.6197 50.2525 32.4631C50.2288 32.3064 50.2333 32.1362 50.136 32.0061C50.0524 31.8943 49.9104 31.8362 49.7983 31.749C49.5768 31.5766 49.4814 31.2747 49.5677 31.0197C49.728 30.5455 50.3866 30.3593 50.5799 29.8963C50.6806 29.6551 50.6349 29.3836 50.5928 29.1263C50.5506 28.869 50.5161 28.5936 50.6352 28.3601C50.7824 28.0715 51.1432 27.966 51.2702 27.6429C51.3447 27.453 51.354 27.2411 51.4538 27.0619C51.5854 26.8257 51.9298 26.5466 52.1472 26.3659C52.4922 26.0792 52.9823 25.9773 53.4185 26.1377Z" fill="#292949"/>
<path d="M56.8744 28.6868C57.2125 29.3626 57.1943 30.2471 57.8218 30.7098C58.4551 31.1768 59.3675 30.941 60.116 30.6787C60.2391 30.6356 61.814 30.1278 61.839 30.1083C62.6446 29.4826 61.7838 29.0524 61.6906 28.5301C61.5566 27.7793 62.8366 27.8968 62.5537 27.2414C62.3931 27.2775 62.2378 27.14 62.1878 26.9915C62.1378 26.8431 62.1569 26.6836 62.1383 26.5292C62.0927 26.1498 61.7969 25.8043 61.4109 25.6796C60.6404 25.4307 59.7403 26.023 59.015 25.6733C58.5651 25.4564 58.3696 24.9587 58.0234 24.6127C57.3537 23.9436 56.336 24.1553 55.4647 24.0811C54.5449 24.0028 53.7492 24.0768 52.956 24.5504C51.9728 25.1376 51.6561 26.4441 52.5087 27.2125C53.6022 28.198 55.6503 27.2544 56.6207 28.3112C56.7249 28.4248 56.8068 28.5517 56.8744 28.6868Z" fill="#292949"/>
<path d="M60.7606 40.7505L58.9338 36.394H58.933C58.7578 35.9217 58.2715 35.5815 57.6974 35.5815C57.0607 35.5815 56.5312 35.9998 56.4156 36.553L56.291 36.5609V41.0748L56.5802 40.722L56.9 41.1119H56.9613L57.281 40.722L57.6006 41.1119H57.6619L57.9815 40.722L58.3012 41.1119H58.3625L58.6823 40.722L59.002 41.1119H59.0632L59.3829 40.722L59.7025 41.1119H59.7638L60.0834 40.722L60.4032 41.1119H60.4645L60.7606 40.7505Z" fill="#BABCBE"/>
<path d="M56.3639 35.5815H55.839H49.9622C49.2462 35.5815 48.6655 36.1105 48.657 36.7657C48.657 36.7705 48.6562 36.7751 48.6562 36.78C48.6562 36.7848 48.657 36.7894 48.657 36.7942V56.1911H53.703C53.9883 56.4474 54.3785 56.6059 54.8093 56.6059C55.2401 56.6059 55.6301 56.4474 55.9156 56.1911C56.3349 55.8143 56.3639 55.393 56.3639 54.8884L56.3916 36.78C56.3916 36.1181 56.9762 35.5815 57.6975 35.5815H56.3639Z" fill="#F7F7F7"/>
<path d="M53.3276 55.1999C53.3276 55.064 53.3495 54.9329 53.3876 54.8082H53.3276L47.501 55.6377L47.8027 56.0185C48.1181 56.4163 48.6218 56.6517 49.1579 56.6517H54.9098C54.036 56.6517 53.3276 56.0016 53.3276 55.1999Z" fill="#BABCBE"/>
<path d="M55.6676 40.3535H49.335V40.5627H55.6676V40.3535Z" fill="#D2CFCA"/>
<path d="M55.6676 41.5815H49.335V41.7908H55.6676V41.5815Z" fill="#D2CFCA"/>
<path d="M55.6676 42.8115H49.335V43.0208H55.6676V42.8115Z" fill="#D2CFCA"/>
<path d="M55.6676 44.0396H49.335V44.2488H55.6676V44.0396Z" fill="#D2CFCA"/>
<path d="M55.6676 45.2681H49.335V45.4773H55.6676V45.2681Z" fill="#D2CFCA"/>
<path d="M55.6676 46.4966H49.335V46.7058H55.6676V46.4966Z" fill="#D2CFCA"/>
<path d="M55.6676 47.8872H49.335V48.0964H55.6676V47.8872Z" fill="#D2CFCA"/>
<path d="M55.6676 49.2783H49.335V49.4875H55.6676V49.2783Z" fill="#D2CFCA"/>
<path d="M55.6676 50.6689H49.335V50.8781H55.6676V50.6689Z" fill="#D2CFCA"/>
<path d="M55.6676 39.0054H49.335V39.2146H55.6676V39.0054Z" fill="#D2CFCA"/>
<path d="M46.7148 37.5449L51.8919 41.1047L51.068 42.733L46.2461 40.8282L46.7148 37.5449Z" fill="url(#paint13_linear_1_4886)"/>
<path d="M51.812 41.2622C51.812 41.2622 52.7506 41.5021 52.7506 41.4236C52.7506 41.3451 52.7506 41.7949 52.7506 41.7949L53.347 42.2921L52.7992 43.1074L51.2168 42.4383L51.812 41.2622Z" fill="url(#paint14_linear_1_4886)"/>
<path d="M17.8079 39.7097C17.6562 39.5926 17.5297 39.444 17.4395 39.2945C17.2841 39.037 17.2153 38.7339 17.2517 38.4392C17.2675 38.3118 17.3797 38.2055 17.5269 38.2098C17.6619 38.2139 17.7908 38.3265 17.7749 38.4547C17.7383 38.7504 17.8368 39.0374 18.0518 39.2539C18.1005 39.204 18.1543 39.1582 18.2121 39.1174C18.4238 38.9674 18.7522 38.7713 19.0109 38.9281C19.3021 39.1046 19.2281 39.4529 19.008 39.6546C18.8343 39.8139 18.5965 39.9345 18.353 39.9299C18.4549 40.2043 18.5943 40.3165 18.9133 40.3001C19.1071 40.2901 19.5607 40.1898 19.6446 39.9952C19.699 39.869 19.5821 39.577 19.5662 39.4366C19.522 39.047 19.5249 38.6526 19.5732 38.2618C19.6713 37.4685 19.9571 36.6978 20.374 35.9908C21.3157 34.3942 22.8796 33.1391 24.6018 32.2538C24.6968 32.2049 24.7925 32.1572 24.8888 32.1103C26.0855 31.5293 27.3333 31.1673 28.569 31.0292C28.6866 30.5814 28.8952 30.1545 29.2001 29.7825C29.8809 28.9524 31.0635 28.4443 32.1761 28.6098C31.7281 29.6202 31.5371 30.9239 31.508 31.137C32.8428 31.3962 34.0962 31.9503 35.1753 32.8081C35.1978 32.8261 35.2188 32.8432 35.2392 32.8598L36.6858 32.616C36.6858 32.616 38.1012 34.874 38.0689 35.7033C38.0689 35.7033 37.1485 36.441 36.5594 36.8068C36.4437 37.9526 35.9577 39.1176 35.1589 40.1849C35.106 40.2556 35.0516 40.3258 34.996 40.3956L36.0494 42.2225C36.0494 42.2225 34.6799 43.4976 33.7471 43.6454L32.5296 42.5909C32.1498 42.8345 31.7469 43.0611 31.3221 43.2674C30.8197 43.5113 30.3121 43.7216 29.8041 43.8976L30.072 45.4298C29.4142 46.0544 27.4949 46.3762 27.4949 46.3762L26.4421 44.5503C23.8271 44.6418 21.5147 43.6727 20.2607 41.4979C20.1539 41.3126 20.0594 41.1262 19.9769 40.9391C19.5895 41.054 19.1784 41.0875 18.7885 40.964C18.4883 40.8689 18.2516 40.6976 18.0752 40.4595C17.9162 40.2446 17.7651 39.9788 17.8079 39.7097Z" fill="#FAB994"/>
<path d="M27.7013 31.7329L27.8072 32.5207C27.8072 32.5207 25.1762 33.0564 23.0772 34.8171L22.29 34.604C22.29 34.6038 23.7562 32.0671 27.7013 31.7329Z" fill="white"/>
<path opacity="0.03" d="M20.5249 41.6536C22.2337 42.7849 24.4317 43.0963 26.5254 42.937C28.0756 42.819 29.669 42.4832 31.1098 41.8732C33.1955 40.9901 34.8024 39.5121 36.2024 37.9036C36.2641 37.8327 36.3233 37.7608 36.3814 37.6885C36.1544 38.5277 35.7376 39.3605 35.1533 40.1409C34.2481 41.3502 32.9413 42.4341 31.3166 43.2229C26.9957 45.3207 22.2885 44.9374 20.2715 41.4816C20.3538 41.5413 20.4397 41.5972 20.5249 41.6536Z" fill="black"/>
<path opacity="0.03" d="M35.2871 32.8984C35.2871 32.8984 37.2601 34.9041 36.5599 36.8053L37.1411 36.4091C37.141 36.4092 36.9357 33.9558 35.2871 32.8984Z" fill="black"/>
<path d="M30.6379 44.3472L29.5596 44.1786L30.1674 42.711L31.4652 42.4526L32.2355 43.2115L30.6379 44.3472Z" fill="#EFBFA5"/>
<defs>
<linearGradient id="paint0_linear_1_4886" x1="78.8666" y1="1.59131" x2="78.8666" y2="19.8065" gradientUnits="userSpaceOnUse">
<stop stop-color="#469FEF"/>
<stop offset="0.258455" stop-color="#5C75F0"/>
<stop offset="0.652018" stop-color="#6C56F0"/>
</linearGradient>
<linearGradient id="paint1_linear_1_4886" x1="48.0423" y1="0" x2="48.0423" y2="24.4891" gradientUnits="userSpaceOnUse">
<stop stop-color="#469FEF"/>
<stop offset="0.258455" stop-color="#5C75F0"/>
<stop offset="0.652018" stop-color="#6C56F0"/>
</linearGradient>
<linearGradient id="paint2_linear_1_4886" x1="57.4944" y1="10.1865" x2="57.4944" y2="23.2188" gradientUnits="userSpaceOnUse">
<stop stop-color="#469FEF"/>
<stop offset="0.258455" stop-color="#5C75F0"/>
<stop offset="0.652018" stop-color="#6C56F0"/>
</linearGradient>
<linearGradient id="paint3_linear_1_4886" x1="41.3394" y1="15.2544" x2="41.3394" y2="24.4357" gradientUnits="userSpaceOnUse">
<stop stop-color="#469FEF"/>
<stop offset="0.258455" stop-color="#5C75F0"/>
<stop offset="0.652018" stop-color="#6C56F0"/>
</linearGradient>
<linearGradient id="paint4_linear_1_4886" x1="28.0945" y1="19.2075" x2="28.0945" y2="24.294" gradientUnits="userSpaceOnUse">
<stop stop-color="#469FEF"/>
<stop offset="0.258455" stop-color="#5C75F0"/>
<stop offset="0.652018" stop-color="#6C56F0"/>
</linearGradient>
<linearGradient id="paint5_linear_1_4886" x1="68.4648" y1="33.7275" x2="68.4648" y2="43.0996" gradientUnits="userSpaceOnUse">
<stop stop-color="#469FEF"/>
<stop offset="0.258455" stop-color="#5C75F0"/>
<stop offset="0.652018" stop-color="#6C56F0"/>
</linearGradient>
<linearGradient id="paint6_linear_1_4886" x1="72.7886" y1="31.958" x2="72.7886" y2="56.3829" gradientUnits="userSpaceOnUse">
<stop stop-color="#469FEF"/>
<stop offset="0.258455" stop-color="#5C75F0"/>
<stop offset="0.652018" stop-color="#6C56F0"/>
</linearGradient>
<linearGradient id="paint7_linear_1_4886" x1="76.8493" y1="31.0132" x2="76.8493" y2="56.633" gradientUnits="userSpaceOnUse">
<stop stop-color="#469FEF"/>
<stop offset="0.258455" stop-color="#5C75F0"/>
<stop offset="0.652018" stop-color="#6C56F0"/>
</linearGradient>
<linearGradient id="paint8_linear_1_4886" x1="16.3043" y1="31.5806" x2="16.3043" y2="49.376" gradientUnits="userSpaceOnUse">
<stop stop-color="#469FEF"/>
<stop offset="0.258455" stop-color="#5C75F0"/>
<stop offset="0.652018" stop-color="#6C56F0"/>
</linearGradient>
<linearGradient id="paint9_linear_1_4886" x1="22.1745" y1="31.7017" x2="22.1745" y2="49.2776" gradientUnits="userSpaceOnUse">
<stop stop-color="#469FEF"/>
<stop offset="0.258455" stop-color="#5C75F0"/>
<stop offset="0.652018" stop-color="#6C56F0"/>
</linearGradient>
<linearGradient id="paint10_linear_1_4886" x1="11.1465" y1="24.1577" x2="11.1465" y2="35.8888" gradientUnits="userSpaceOnUse">
<stop stop-color="#469FEF"/>
<stop offset="0.258455" stop-color="#5C75F0"/>
<stop offset="0.652018" stop-color="#6C56F0"/>
</linearGradient>
<linearGradient id="paint11_linear_1_4886" x1="60.4311" y1="17.877" x2="60.4311" y2="35.6098" gradientUnits="userSpaceOnUse">
<stop stop-color="#469FEF"/>
<stop offset="0.258455" stop-color="#5C75F0"/>
<stop offset="0.652018" stop-color="#6C56F0"/>
</linearGradient>
<linearGradient id="paint12_linear_1_4886" x1="50.1893" y1="32.3604" x2="50.1893" y2="39.7501" gradientUnits="userSpaceOnUse">
<stop stop-color="#469FEF"/>
<stop offset="0.258455" stop-color="#5C75F0"/>
<stop offset="0.652018" stop-color="#6C56F0"/>
</linearGradient>
<linearGradient id="paint13_linear_1_4886" x1="49.069" y1="37.5449" x2="49.069" y2="42.733" gradientUnits="userSpaceOnUse">
<stop stop-color="#469FEF"/>
<stop offset="0.258455" stop-color="#5C75F0"/>
<stop offset="0.652018" stop-color="#6C56F0"/>
</linearGradient>
<linearGradient id="paint14_linear_1_4886" x1="52.2819" y1="41.2622" x2="52.2819" y2="43.1074" gradientUnits="userSpaceOnUse">
<stop stop-color="#469FEF"/>
<stop offset="0.258455" stop-color="#5C75F0"/>
<stop offset="0.652018" stop-color="#6C56F0"/>
</linearGradient>
</defs>
</svg>
