<svg width="24" height="24" viewBox="0 0 24 24" fill="none" xmlns="http://www.w3.org/2000/svg">
<g clip-path="url(#clip0_1_5592)">
<path d="M7.69708 20.8134L3.18649 16.3028C3.14031 16.2566 3.14031 16.195 3.18649 16.1489C4.14095 15.1944 13.7009 5.61903 18.5194 0.800559C19.597 -0.277055 20.844 -0.277055 21.9216 0.815954C22.3988 1.29318 22.876 1.75502 23.3379 2.23225C24.2154 3.15592 24.2154 4.44905 23.3379 5.34193C18.4424 10.2374 8.80548 19.8589 7.85102 20.8134C7.80484 20.8596 7.74326 20.8596 7.69708 20.8134Z" fill="#898989"/>
<path d="M-6.66345e-05 23.8924C0.754263 21.6294 1.4932 19.4434 2.21674 17.2727C2.23213 17.2111 2.3245 17.1804 2.37068 17.2419C3.83316 18.7044 5.29564 20.1669 6.77351 21.6448C6.81969 21.6909 6.8043 21.7833 6.74272 21.7987C4.5721 22.5222 2.38608 23.2612 0.123089 24.0155C0.0461168 24.0309 -0.0154611 23.9539 -6.66345e-05 23.8924Z" fill="#898989"/>
</g>
<defs>
<clipPath id="clip0_1_5592">
<rect width="24" height="24" fill="white"/>
</clipPath>
</defs>
</svg>
