<svg width="24" height="24" viewBox="0 0 24 24" fill="none" xmlns="http://www.w3.org/2000/svg">
<g clip-path="url(#clip0_1_5573)">
<path d="M23.847 11.468C22.9177 10.0707 21.8149 8.79686 20.565 7.677L8.76501 19.477C9.81002 19.8167 10.9012 19.9931 12 20C19.071 20 23.655 12.837 23.847 12.532C23.9471 12.3726 24.0003 12.1882 24.0003 12C24.0003 11.8118 23.9471 11.6274 23.847 11.468Z" fill="#898989"/>
<path d="M22.706 1.29302C22.5185 1.10585 22.2644 1.00073 21.9995 1.00073C21.7346 1.00073 21.4805 1.10585 21.293 1.29302L17.235 5.35102C15.6257 4.48214 13.8288 4.01844 12 4.00002C4.92901 4.00002 0.345012 11.163 0.153012 11.468C0.0528771 11.6274 -0.000244141 11.8118 -0.000244141 12C-0.000244141 12.1882 0.0528771 12.3726 0.153012 12.532C1.46248 14.4862 3.10752 16.1932 5.01201 17.574L2.29301 20.293C2.19527 20.3847 2.11694 20.495 2.06269 20.6176C2.00843 20.7401 1.97935 20.8723 1.97718 21.0062C1.975 21.1402 1.99977 21.2733 2.05002 21.3975C2.10027 21.5217 2.17497 21.6345 2.26969 21.7293C2.3644 21.8241 2.4772 21.8989 2.60138 21.9492C2.72556 21.9996 2.85859 22.0244 2.99257 22.0223C3.12655 22.0203 3.25875 21.9913 3.38131 21.9371C3.50386 21.8829 3.61429 21.8047 3.70601 21.707L22.706 2.70702C22.8935 2.51949 22.9988 2.26518 22.9988 2.00002C22.9988 1.73486 22.8935 1.48055 22.706 1.29302ZM8.00001 12C8.00001 10.9392 8.42144 9.92174 9.17158 9.17159C9.92173 8.42145 10.9391 8.00002 12 8.00002C12.7105 8.00376 13.4065 8.20229 14.012 8.57402L8.57401 14.011C8.20289 13.4056 8.00439 12.7102 8.00001 12Z" fill="#898989"/>
</g>
<defs>
<clipPath id="clip0_1_5573">
<rect width="24" height="24" fill="white"/>
</clipPath>
</defs>
</svg>
