<svg width="24" height="24" viewBox="0 0 24 24" fill="none" xmlns="http://www.w3.org/2000/svg">
<path d="M20.1647 6.06775C20.1633 6.07764 20.1629 6.07991 20.1603 6.09757C20.1603 6.09757 20.1624 6.08319 20.1647 6.06775Z" fill="#898989"/>
<path d="M20.1648 6.06774C20.1688 6.04051 20.1716 6.02191 20.1648 6.06774V6.06774Z" fill="#898989"/>
<path d="M19.1486 1.80966C18.0372 0.54304 16.0284 0 13.4585 0H6.00005C5.47428 0 5.02747 0.38238 4.94518 0.90086L1.8396 20.597C1.77789 20.9854 2.07862 21.3372 2.47226 21.3372H7.07684L8.23329 14.0022L8.19743 14.2319C8.27976 13.7134 8.7232 13.331 9.24833 13.331H11.4364C15.7349 13.331 19.1007 11.5851 20.0839 6.53438C20.1131 6.38503 20.1603 6.09758 20.1603 6.09758C20.4391 4.22865 20.1583 2.96016 19.1486 1.80966Z" fill="#898989"/>
<path d="M21.3258 7.05408C20.2567 12.0266 16.8465 14.6586 11.4365 14.6586H9.47412L8.01074 24H11.1936C11.653 24 12.044 23.6655 12.1157 23.212L12.1536 23.0142L12.8851 18.3778L12.9323 18.1215C13.004 17.6681 13.395 17.3335 13.8544 17.3335H14.4353C18.1954 17.3335 21.1396 15.806 22 11.388C22.3448 9.61553 22.1796 8.12849 21.3258 7.05408Z" fill="#898989"/>
</svg>
