<svg width="24" height="24" viewBox="0 0 24 24" fill="none" xmlns="http://www.w3.org/2000/svg">
<path d="M6 1H2V3H6V1Z" fill="#898989"/>
<path d="M22 4H17L15 1H9L7 4H2C1.46957 4 0.960859 4.21071 0.585786 4.58579C0.210714 4.96086 0 5.46957 0 6L0 20C0 20.5304 0.210714 21.0391 0.585786 21.4142C0.960859 21.7893 1.46957 22 2 22H22C22.5304 22 23.0391 21.7893 23.4142 21.4142C23.7893 21.0391 24 20.5304 24 20V6C24 5.46957 23.7893 4.96086 23.4142 4.58579C23.0391 4.21071 22.5304 4 22 4ZM4 9C3.80222 9 3.60888 8.94135 3.44443 8.83147C3.27998 8.72159 3.15181 8.56541 3.07612 8.38268C3.00043 8.19996 2.98063 7.99889 3.01921 7.80491C3.0578 7.61093 3.15304 7.43275 3.29289 7.29289C3.43275 7.15304 3.61093 7.0578 3.80491 7.01921C3.99889 6.98063 4.19996 7.00043 4.38268 7.07612C4.56541 7.15181 4.72159 7.27998 4.83147 7.44443C4.94135 7.60888 5 7.80222 5 8C5 8.26522 4.89464 8.51957 4.70711 8.70711C4.51957 8.89464 4.26522 9 4 9ZM12 18C11.0111 18 10.0444 17.7068 9.22215 17.1573C8.3999 16.6079 7.75904 15.827 7.3806 14.9134C7.00216 13.9998 6.90315 12.9945 7.09607 12.0245C7.289 11.0546 7.7652 10.1637 8.46447 9.46447C9.16373 8.7652 10.0546 8.289 11.0245 8.09607C11.9945 7.90315 12.9998 8.00216 13.9134 8.3806C14.827 8.75904 15.6079 9.3999 16.1573 10.2221C16.7068 11.0444 17 12.0111 17 13C17 14.3261 16.4732 15.5979 15.5355 16.5355C14.5979 17.4732 13.3261 18 12 18Z" fill="#898989"/>
</svg>
