<svg width="24" height="24" viewBox="0 0 24 24" fill="none" xmlns="http://www.w3.org/2000/svg">
<path d="M21 4H19L17 1H11L9 4H3C2.20435 4 1.44129 4.31607 0.87868 4.87868C0.31607 5.44129 0 6.20435 0 7L0 19C0 19.7956 0.31607 20.5587 0.87868 21.1213C1.44129 21.6839 2.20435 22 3 22H21C21.7956 22 22.5587 21.6839 23.1213 21.1213C23.6839 20.5587 24 19.7956 24 19V7C24 6.20435 23.6839 5.44129 23.1213 4.87868C22.5587 4.31607 21.7956 4 21 4ZM6 20H4V6H6V20ZM14 18C13.0111 18 12.0444 17.7068 11.2221 17.1573C10.3999 16.6079 9.75904 15.827 9.3806 14.9134C9.00216 13.9998 8.90315 12.9945 9.09607 12.0245C9.289 11.0546 9.7652 10.1637 10.4645 9.46447C11.1637 8.7652 12.0546 8.289 13.0245 8.09607C13.9945 7.90315 14.9998 8.00216 15.9134 8.3806C16.827 8.75904 17.6079 9.3999 18.1573 10.2221C18.7068 11.0444 19 12.0111 19 13C19 14.3261 18.4732 15.5979 17.5355 16.5355C16.5979 17.4732 15.3261 18 14 18Z" fill="#898989"/>
</svg>
