<svg width="24" height="24" viewBox="0 0 24 24" fill="none" xmlns="http://www.w3.org/2000/svg">
<g clip-path="url(#clip0_1_5534)">
<path d="M12.414 15.9999L14.414 13.9999L13 12.5859L11 14.5859L9.41396 12.9999L11.414 10.9999L9.99996 9.58594L7.99996 11.5859L6.67096 10.2579C6.48343 10.0705 6.22912 9.96515 5.96396 9.96515C5.69879 9.96515 5.44449 10.0705 5.25696 10.2579L3.75696 11.7579C2.75391 12.7597 2.13871 14.0847 2.02079 15.4974C1.90287 16.9101 2.28987 18.3188 3.11296 19.4729L0.292959 22.2929C0.197449 22.3852 0.121267 22.4955 0.0688577 22.6175C0.0164487 22.7395 -0.0111375 22.8708 -0.0122913 23.0035C-0.0134452 23.1363 0.0118565 23.268 0.0621374 23.3909C0.112418 23.5138 0.186671 23.6254 0.280564 23.7193C0.374457 23.8132 0.486109 23.8875 0.609005 23.9378C0.731901 23.988 0.863581 24.0133 0.99636 24.0122C1.12914 24.011 1.26036 23.9834 1.38236 23.931C1.50437 23.8786 1.61471 23.8024 1.70696 23.7069L4.52696 20.8869C5.68132 21.7102 7.09031 22.0972 8.50321 21.979C9.91611 21.8609 11.2413 21.2454 12.243 20.2419L13.743 18.7419C13.9304 18.5544 14.0357 18.3001 14.0357 18.0349C14.0357 17.7698 13.9304 17.5155 13.743 17.3279L12.414 15.9999Z" fill="#898989"/>
<path d="M17.3289 13.742C17.5164 13.9294 17.7707 14.0347 18.0359 14.0347C18.3011 14.0347 18.5554 13.9294 18.7429 13.742L20.2429 12.242C21.2459 11.2402 21.8611 9.91518 21.9791 8.5025C22.097 7.08983 21.71 5.68112 20.8869 4.52696L23.7069 1.70696C23.8024 1.61471 23.8786 1.50437 23.931 1.38236C23.9834 1.26036 24.011 1.12914 24.0121 0.99636C24.0133 0.863581 23.988 0.731901 23.9377 0.609005C23.8874 0.486109 23.8132 0.374457 23.7193 0.280564C23.6254 0.186671 23.5137 0.112418 23.3909 0.0621374C23.268 0.0118565 23.1363 -0.0134452 23.0035 -0.0122913C22.8707 -0.0111375 22.7395 0.0164487 22.6175 0.0688577C22.4955 0.121267 22.3851 0.197449 22.2929 0.292959L19.4729 3.11296C18.3185 2.28973 16.9096 1.90274 15.4966 2.02085C14.0837 2.13896 12.7586 2.7545 11.7569 3.75796L10.2569 5.25796C10.0694 5.44549 9.96411 5.69979 9.96411 5.96496C9.96411 6.23012 10.0694 6.48443 10.2569 6.67196L17.3289 13.742Z" fill="#898989"/>
</g>
<defs>
<clipPath id="clip0_1_5534">
<rect width="24" height="24" fill="white"/>
</clipPath>
</defs>
</svg>
