<svg width="24" height="24" viewBox="0 0 24 24" fill="none" xmlns="http://www.w3.org/2000/svg">
<path d="M13 20H11V24H13V20Z" fill="#898989"/>
<path d="M22 4H17V0H15V4H9V0H7V4H2C1.73478 4 1.48043 4.10536 1.29289 4.29289C1.10536 4.48043 1 4.73478 1 5C1 5.26522 1.10536 5.51957 1.29289 5.70711C1.48043 5.89464 1.73478 6 2 6H4V11C4 13.1217 4.84285 15.1566 6.34315 16.6569C7.84344 18.1571 9.87827 19 12 19C14.1217 19 16.1566 18.1571 17.6569 16.6569C19.1571 15.1566 20 13.1217 20 11V6H22C22.2652 6 22.5196 5.89464 22.7071 5.70711C22.8946 5.51957 23 5.26522 23 5C23 4.73478 22.8946 4.48043 22.7071 4.29289C22.5196 4.10536 22.2652 4 22 4Z" fill="#898989"/>
</svg>
