<svg width="40" height="30" viewBox="0 0 40 30" fill="none" xmlns="http://www.w3.org/2000/svg">
<rect width="40" height="30" rx="2" fill="white"/>
<mask id="mask0_1_18834" style="mask-type:luminance" maskUnits="userSpaceOnUse" x="0" y="0" width="40" height="30">
<rect width="40" height="30" rx="2" fill="white"/>
</mask>
<g mask="url(#mask0_1_18834)">
<rect width="40" height="30" fill="#F1361D"/>
<path fill-rule="evenodd" clip-rule="evenodd" d="M14.3896 4.65106L15.7731 4.89872L16.8108 5.89096L17.0466 4.43829L17.9916 3.34879L16.6081 3.10113L15.5705 2.10889L15.3346 3.56155L14.3896 4.65106ZM18.0954 9.73205L19.2943 8.96592L20.6974 9L19.9677 7.74118L20.0002 6.26795L18.8013 7.03407L17.3982 7L18.1278 8.25882L18.0954 9.73205ZM16.4691 17.9563L15.2964 18.7659L15.2799 17.2923L14.5088 16.061L15.9122 16.0437L17.0849 15.2341L17.1014 16.7076L17.8724 17.9389L16.4691 17.9563ZM17.4875 14.1471L18.8824 13.9848L20.1403 14.6383L19.9857 13.1736L20.6081 11.8528L19.2132 12.0152L17.9553 11.3617L18.1099 12.8263L17.4875 14.1471Z" fill="#FFDC42"/>
<path fill-rule="evenodd" clip-rule="evenodd" d="M9.52386 12.3401L6.16508 14.8542L7.40436 10.7232L4.08925 8.14596L8.21393 8.10696L9.52386 4.00006L10.8338 8.10696L14.9585 8.14596L11.6434 10.7232L12.8826 14.8542L9.52386 12.3401Z" fill="#FFDC42"/>
</g>
</svg>
