<svg width="40" height="30" viewBox="0 0 40 30" fill="none" xmlns="http://www.w3.org/2000/svg">
<rect x="0.25" y="0.25" width="39.5" height="29.5" rx="1.75" fill="white" stroke="#F5F5F5" stroke-width="0.5"/>
<mask id="mask0_1_18822" style="mask-type:luminance" maskUnits="userSpaceOnUse" x="0" y="0" width="40" height="30">
<rect x="0.25" y="0.25" width="39.5" height="29.5" rx="1.75" fill="white" stroke="white" stroke-width="0.5"/>
</mask>
<g mask="url(#mask0_1_18822)">
<path fill-rule="evenodd" clip-rule="evenodd" d="M19.9997 22C23.6816 22 26.6663 18.866 26.6663 15C26.6663 11.134 23.6816 8 19.9997 8C16.3178 8 13.333 11.134 13.333 15C13.333 18.866 16.3178 22 19.9997 22Z" fill="#E01B41"/>
<mask id="mask1_1_18822" style="mask-type:luminance" maskUnits="userSpaceOnUse" x="13" y="8" width="14" height="14">
<path fill-rule="evenodd" clip-rule="evenodd" d="M19.9997 22C23.6816 22 26.6663 18.866 26.6663 15C26.6663 11.134 23.6816 8 19.9997 8C16.3178 8 13.333 11.134 13.333 15C13.333 18.866 16.3178 22 19.9997 22Z" fill="white"/>
</mask>
<g mask="url(#mask1_1_18822)">
<path fill-rule="evenodd" clip-rule="evenodd" d="M13.3329 15.9999C15.2377 17.8749 18.0948 18.9999 19.9996 15.9999C21.9043 12.9999 25.7138 12.9999 26.6662 15.9999C27.6186 18.9999 26.6662 21.9999 26.6662 21.9999H13.3329C13.3329 21.9999 11.4281 14.1249 13.3329 15.9999Z" fill="#0E4B9C"/>
</g>
<path opacity="0.75" fill-rule="evenodd" clip-rule="evenodd" d="M8.89648 5.19403C8.98518 5.03272 9.18471 4.97931 9.34214 5.07474L10.4216 5.72914C10.579 5.82458 10.6348 6.03272 10.5461 6.19403L8.01013 10.806C7.92143 10.9673 7.7219 11.0207 7.56447 10.9253L6.48499 10.2709C6.32757 10.1755 6.27185 9.96732 6.36055 9.80601L8.89648 5.19403ZM29.579 5.72916C29.4216 5.82459 29.3659 6.03273 29.4546 6.19405L31.9905 10.806C32.0792 10.9673 32.2787 11.0207 32.4361 10.9253L33.5156 10.2709C33.6731 10.1755 33.7288 9.96734 33.6401 9.80602L31.1041 5.19405C31.0154 5.03273 30.8159 4.97932 30.6585 5.07476L29.579 5.72916ZM27.1046 7.22917C26.9472 7.32461 26.8915 7.53275 26.9802 7.69406L29.5161 12.306C29.6048 12.4674 29.8044 12.5208 29.9618 12.4253L31.0413 11.7709C31.1987 11.6755 31.2544 11.4674 31.1657 11.306L28.6298 6.69406C28.5411 6.53275 28.3416 6.47934 28.1841 6.57477L27.1046 7.22917ZM6.36055 20.194C6.27185 20.0327 6.32756 19.8246 6.48499 19.7291L7.56447 19.0747C7.72189 18.9793 7.92142 19.0327 8.01012 19.194L10.546 23.806C10.6348 23.9673 10.579 24.1755 10.4216 24.2709L9.34213 24.9253C9.1847 25.0207 8.98518 24.9673 8.89648 24.806L6.36055 20.194ZM8.95935 18.2291C8.80193 18.3246 8.74621 18.5327 8.83492 18.694L11.3708 23.306C11.4595 23.4673 11.6591 23.5207 11.8165 23.4253L12.896 22.7709C13.0534 22.6754 13.1091 22.4673 13.0204 22.306L10.4845 17.694C10.3958 17.5327 10.1963 17.4793 10.0388 17.5747L8.95935 18.2291ZM29.5161 17.694C29.6048 17.5327 29.8044 17.4793 29.9618 17.5747L31.0413 18.2291C31.1987 18.3245 31.2544 18.5327 31.1657 18.694L28.6298 23.306C28.5411 23.4673 28.3416 23.5207 28.1841 23.4253L27.1047 22.7709C26.9472 22.6754 26.8915 22.4673 26.9802 22.306L29.5161 17.694ZM32.4361 19.0747C32.2787 18.9793 32.0792 19.0327 31.9905 19.194L29.4546 23.806C29.3659 23.9673 29.4216 24.1754 29.579 24.2709L30.6585 24.9253C30.8159 25.0207 31.0154 24.9673 31.1041 24.806L33.6401 20.194C33.7288 20.0327 33.6731 19.8246 33.5156 19.7291L32.4361 19.0747ZM11.8165 6.57476C11.6591 6.47933 11.4595 6.53274 11.3708 6.69405L8.83492 11.306C8.74622 11.4673 8.80193 11.6755 8.95936 11.7709L10.0388 12.4253C10.1963 12.5208 10.3958 12.4673 10.4845 12.306L13.0204 7.69405C13.1091 7.53274 13.0534 7.3246 12.896 7.22916L11.8165 6.57476Z" fill="#262626"/>
</g>
</svg>
