<svg width="40" height="30" viewBox="0 0 40 30" fill="none" xmlns="http://www.w3.org/2000/svg">
<rect x="0.25" y="0.25" width="39.5" height="29.5" rx="1.75" fill="white" stroke="#F5F5F5" stroke-width="0.5"/>
<mask id="mask0_1_18816" style="mask-type:luminance" maskUnits="userSpaceOnUse" x="0" y="0" width="40" height="30">
<rect x="0.25" y="0.25" width="39.5" height="29.5" rx="1.75" fill="white" stroke="white" stroke-width="0.5"/>
</mask>
<g mask="url(#mask0_1_18816)">
<path fill-rule="evenodd" clip-rule="evenodd" d="M0 10H40V0H0V10Z" fill="#1A78D6"/>
<path fill-rule="evenodd" clip-rule="evenodd" d="M0 30H40V20H0V30Z" fill="#1A78D6"/>
<path d="M20 11.667C21.7771 11.6671 23.1904 13.1747 23.1904 15C23.1904 16.8253 21.7771 18.3329 20 18.333C18.2228 18.333 16.8096 16.8254 16.8096 15C16.8096 13.1746 18.2228 11.667 20 11.667Z" stroke="#DBCD92" stroke-width="0.666667"/>
<path fill-rule="evenodd" clip-rule="evenodd" d="M20.0005 13L21.9052 17H18.0957L20.0005 13Z" fill="#9CDDEE"/>
</g>
</svg>
